<?xml version="1.0" encoding="utf-8"?>
<!-- Generator: Adobe Illustrator 18.1.1, SVG Export Plug-In . SVG Version: 6.00 Build 0)  -->
<svg version="1.1" id="Layer_1" xmlns="http://www.w3.org/2000/svg" xmlns:xlink="http://www.w3.org/1999/xlink" x="0px" y="0px"
	 viewBox="0 0 3000 3000" enable-background="new 0 0 3000 3000" xml:space="preserve">
<path fill="#F7F7F7" d="M1500,0C675,0,0,675,0,1500s675,1500,1500,1500s1500-675,1500-1500S2325,0,1500,0z M2262.1,1915.8
	c-0.3,5.4-1.6,10.6-3.8,15.7c-7.3,16.9-24.1,31.2-51.4,43.9c-33.4,15.5-83.3,28.6-148.5,38.8c-3.3,6.3-6.8,22.5-9,32.6
	c-2.5,11.7-5.1,23.2-8.7,35.4c-5.4,18.6-19.7,29.2-39,29.2h-0.9h-0.9c-8.8,0-20.2-1.4-34.9-4.3c-22.6-4.4-47.8-8.5-79.7-8.5
	c-18.5,0-37.7,1.6-57,4.8c-37.2,6.2-69.3,28.8-106.4,55l-0.1,0.1c-54.3,38.3-115.7,81.8-209.7,81.8c-4.1,0-7.9-0.2-11-0.3
	c-2.6,0.2-5.1,0.3-7.7,0.3c-94,0-155.5-43.5-209.8-81.9c-37.1-26.2-69.2-48.9-106.4-55.1c-19.3-3.2-38.5-4.8-57-4.8
	c-33.4,0-60.1,5.3-79.7,9.1c-13.3,2.6-24.9,4.9-34.9,4.9c-26.4,0-36.7-16.2-40.7-29.7c-3.6-12.5-6.2-24.3-8.7-35.7
	c-2.4-10.8-5.8-26.5-9.1-32.8c-65.1-10.2-115.1-23.3-148.5-38.8c-27.3-12.7-44.1-27.1-51.4-44.1v-0.1c-2.2-5-3.4-10.3-3.7-15.5
	c-1-18.2,11.8-34.2,29.7-37.1c45.7-7.5,89.3-24.6,129.6-50.6c33-21.4,64.1-48.8,92.3-81.7c49.6-57.8,73.8-112.6,76.4-118.7
	c0.3-0.6,0.5-1.1,0.8-1.7c10.4-21,12.8-38.5,7.2-51.7c-11.1-26.2-53.7-39.7-81.8-48.6c-8.1-2.5-15.8-5-22.2-7.5
	c-24.5-9.7-43.5-20.7-56.5-32.5c-23.5-21.5-23.6-42.7-21.6-53.4c3.1-16.2,14.5-30.8,32.1-41.2c14-8.2,30.2-12.7,45.5-12.7
	c9.5,0,18.1,1.8,25.7,5.3c25.7,12.1,48.5,18.2,67.6,18.2c11.8,0,19.9-2.4,24.9-4.7c-0.7-11.2-1.4-22.8-2.1-33.8v-0.2
	c-6.5-103-14.5-231.2,19.4-307.3c23.1-52,54.3-96.7,92.5-133c32-30.4,69.3-55.1,110.7-73.4c72.4-31.9,139.9-36.7,173.6-36.7
	c1.4-0.1,16.8-0.2,26.1-0.3c1.2,0,2.4,0,3.8,0c33.8,0,101.2,4.7,174,36.8c41.5,18.2,78.9,42.9,111.1,73.4
	c38.4,36.4,69.6,81.2,92.9,133.4c34,76.2,25.9,204.4,19.4,307.5l-0.3,4.4c-0.6,10.2-1.2,20-1.8,29.5c4.4,2,11.2,4.1,20.9,4.6
	c18.3-0.9,39.6-7,63.3-18.1c11.1-5.2,22.8-6.3,30.7-6.3c11.7,0,23.1,2.2,33.1,6.3c29.6,10.6,48.2,32.2,48.7,56.6
	c0.2,10-2.8,25.4-18.4,41.5c-13.1,13.5-32.9,25.4-60.6,36.3c-6.4,2.5-14.1,4.9-22.2,7.5c-28.1,8.9-70.6,22.4-81.7,48.5
	c-5.7,13.2-3.3,30.6,7.1,51.7c0.3,0.5,0.6,1.1,0.8,1.7c3.7,8.9,95.2,217.4,298.2,250.9C2250.3,1881.7,2263.1,1897.7,2262.1,1915.8z"
	/>
</svg>
