<?xml version="1.0" encoding="utf-8"?>
<!-- Generator: Adobe Illustrator 18.1.1, SVG Export Plug-In . SVG Version: 6.00 Build 0)  -->
<svg version="1.1" id="Layer_1" xmlns="http://www.w3.org/2000/svg" xmlns:xlink="http://www.w3.org/1999/xlink" x="0px" y="0px"
	 viewBox="0 0 200 200" enable-background="new 0 0 200 200" xml:space="preserve">
<g>
	<path fill="#FCFCFC" d="M34.7,95.7c0,31.7,28.9,57.4,64.4,57.4c35.5,0,64.4-25.8,64.4-57.4c0-31.7-28.9-57.4-64.4-57.4
		C63.6,38.3,34.7,64,34.7,95.7L34.7,95.7z M36.7,95.7c0-30.6,28-55.4,62.4-55.4c34.4,0,62.4,24.9,62.4,55.4
		c0,30.6-28,55.4-62.4,55.4C64.7,151.1,36.7,126.2,36.7,95.7"/>
	<path fill="#FCFCFC" d="M54.7,142.6l2.9,2.1l-10,14l-2.9-2.1L54.7,142.6l-22.5,2.7l-2.3-2.4l12.3-12l2.5,2.6L40.8,147l0,0l8.8-8.6
		l2.3,2.4l-12.3,12l-2.6-2.7l3.9-13.2l0,0l-8.6,8.4 M32.2,145.3l-2.3-2.4l12.3-12l2.5,2.6L40.8,147l0,0l8.8-8.6l2.3,2.4l-12.3,12
		l-2.6-2.7l3.9-13.2l0,0L32.2,145.3 M20.3,127.7l-1.6-2.9l15.1-8.3l1.7,3.1l-7.4,12l0,0l10.8-5.9l1.6,2.9L25.4,137l-1.8-3.3
		l7.3-11.7l0,0L20.3,127.7 M27.1,112.4c0.9-0.2,2.6-1.1,1.9-4.1c-0.4-1.6-1.2-3.4-3-3c-1.3,0.3-1.4,1.6-1.4,3.5l0,1.9
		c0,2.8-0.1,5.6-3.8,6.4c-1.9,0.4-5.4,0.2-6.6-5.2c-1.1-5.1,1.9-7.2,4-7.7l0.8,3.3c-0.7,0.3-2.4,0.9-1.8,4c0.3,1.3,1.1,2.8,2.7,2.4
		c1.3-0.3,1.4-1.4,1.4-2.2l0.1-4.3c0.1-2.4,0.5-4.7,3.5-5.4c5.1-1.1,6.6,3.9,7,5.3c1.4,6.1-1.9,7.9-4,8.4L27.1,112.4 M17,91L17,91
		l6.9-1.7l-0.3,4.3L17,91z M26.6,94.8l0.4-6.3l3.6-0.8l0.3-3.9l-17.6,4.8L13,92.7l16.8,7.3l0.3-3.7L26.6,94.8 M37.5,67l-1.3,3.1
		l-13.3-5.5l0,0L35,73.1l-1.3,3.2l-14.5-2.6l0,0l13.3,5.5l-1.3,3.1l-15.9-6.5l2-4.8L31,73.2l0,0l-11.4-8l2-4.8L37.5,67 M39.1,60
		l5.3-6.7l2.4,1.9l-7.5,9.5L25.8,54.1l2.2-2.8L39.1,60 M51.2,51.6l-2.6,2.4L37,41.2l2.6-2.4L51.2,51.6 M53.3,29l2.8-1.8l9.2,14.6
		l-3,1.9l-12.4-6.7l0,0l6.5,10.4l-2.8,1.8l-9.2-14.6l3.2-2l12.1,6.6l0,0L53.3,29 M72.8,29.2l6.8-2.2l2.9,8.8l-2.3,0.7l-1-1.9
		c-0.5,1.3-1.3,3.2-4.2,4.2c-3.9,1.3-8.4-0.4-10.3-6.1c-1.5-4.5-0.4-9.5,5.1-11.3c5-1.6,8,1,8.9,3.2l-3.4,1.1
		c-0.2-0.6-2-2.3-4.4-1.5c-2.4,0.8-4.1,3.2-2.7,7.4c1.5,4.5,4.3,4.8,6.6,4.1c0.7-0.2,3.1-1.4,2.7-4.9l-3.8,1.2L72.8,29.2 M87.6,29.8
		c0.1,1,0.8,2.7,3.9,2.4c1.7-0.2,3.5-0.8,3.3-2.6c-0.1-1.3-1.4-1.6-3.3-1.8l-1.9-0.3c-2.8-0.4-5.5-0.8-5.9-4.5
		c-0.2-1.9,0.5-5.4,6-5.9c5.2-0.5,6.9,2.8,7.2,4.9l-3.4,0.3c-0.2-0.8-0.6-2.5-3.7-2.2c-1.3,0.1-2.9,0.8-2.8,2.3
		c0.1,1.3,1.2,1.5,2,1.6l4.2,0.6c2.4,0.4,4.6,1.1,4.9,4.2c0.5,5.2-4.7,6.1-6.2,6.3c-6.2,0.6-7.6-2.9-7.8-5L87.6,29.8 M105.1,34.5
		l-3.5-0.4l2-17.1l3.5,0.4l-0.8,7l7.3-6.2l4.6,0.5l-7.7,6.2l6.2,10.9l-4.6-0.5l-4.4-8.1l-1.8,1.5L105.1,34.5 M122.9,29
		c1.6-4.6,4.6-4.8,6.4-4.1c1.8,0.6,4,2.7,2.4,7.2c-1.6,4.6-4.5,4.8-6.4,4.1C123.5,35.5,121.3,33.5,122.9,29L122.9,29z M119.5,27.8
		c-2.7,7.6,2.6,10.5,4.7,11.3c2.1,0.8,8.1,1.8,10.7-5.8c2.7-7.6-2.6-10.5-4.7-11.3C128.2,21.2,122.2,20.1,119.5,27.8 M152.6,33.9
		l2.8,1.8l-9.5,14.4l-3-2l0.9-14.1l0,0L137,44.4l-2.8-1.8l9.5-14.4l3.1,2.1l-0.9,13.7l0,0L152.6,33.9 M153.2,57.6l-2.4-2.6l10.3-9.7
		l-3.5-3.8l2.2-2.1l9.5,10.1l-2.2,2.1l-3.5-3.8L153.2,57.6 M167.9,61.2l4-2.2l2.1,3.9c1,1.8,0,2.8-0.8,3.3c-1.5,0.8-2.5,0.3-3.4-1.3
		L167.9,61.2z M157.8,62.8l1.7,3.1l5.9-3.3l1.8,3.2c1.3,2.3,0.5,2.9-1.5,4c-1.6,0.9-2.3,1.4-2.9,2l1.9,3.5l0.4-0.2
		c-0.1-0.8,0.4-1.1,2.6-2.3c2.8-1.6,2.9-2.5,2.8-4c1.3,1.2,3.2,1.2,4.9,0.3c1.3-0.7,3.9-3.1,1.7-7.1l-4.2-7.6L157.8,62.8 M174.3,78
		c4.7-1,6.5,1.4,6.8,3.3c0.4,1.9-0.2,4.8-4.9,5.8c-4.7,1-6.5-1.4-6.9-3.3C169,81.9,169.6,79,174.3,78L174.3,78z M173.6,74.6
		c-7.9,1.7-7.7,7.7-7.2,9.9c0.5,2.2,2.6,7.8,10.6,6.2c7.9-1.7,7.7-7.7,7.2-9.9C183.7,78.5,181.5,72.9,173.6,74.6 M171.1,98.6
		l-0.7,8.5l-3.1-0.2l1-12l17.2,1.4l-0.3,3.6L171.1,98.6 M168.5,113.2l-2.8,8l-2.9-1l4-11.4l16.3,5.7l-1.2,3.4L168.5,113.2
		 M166.5,140.4l5.1-7.5l-3-2l-4.6,6.9l-2.5-1.7l4.6-6.9l-3.7-2.5l-5.3,7.8l-2.5-1.7l7.2-10.7l14.3,9.6l-7,10.4L166.5,140.4
		 M156.4,154.5l-2.5,2.2l-11.4-12.9l2.7-2.4l13.4,4.6l0,0l-8.1-9.2l2.5-2.2l11.4,12.9l-2.8,2.5l-13-4.5l0,0L156.4,154.5"/>
	<path fill="#FCFCFC" d="M68.9,64.1h22.7V51.4H68.9V64.1z M146.1,68h-39.8l-14.8,8.7v-8.4H68.9v21.8l-13.1,7.7l13.1,9V131h22.7v-8.6
		l15.1,10.4H143L95.5,97.8L146.1,68 M146.1,68h-39.8l-14.8,8.7v-8.4H68.9v21.8l-13.1,7.7l13.1,9V131h22.7v-8.6l15.1,10.4H143
		L95.5,97.8L146.1,68"/>
	<path fill="#FCFCFC" d="M69.1,181.7c-0.3,0.4-0.7,0.8-1.4,1.1c-0.6,0.3-1.5,0.5-2.5,0.5c-1.3,0-2.4-0.4-3.2-1.3
		c-0.9-0.8-1.3-1.9-1.3-3.2v-2.2c0-1.3,0.4-2.4,1.2-3.2c0.8-0.8,1.8-1.3,3.1-1.3c1.3,0,2.2,0.3,2.9,0.9c0.7,0.6,1.1,1.4,1.1,2.4l0,0
		h-1.4c0-0.6-0.3-1.2-0.7-1.6c-0.4-0.4-1.1-0.6-1.9-0.6c-0.8,0-1.5,0.3-2,0.9c-0.5,0.6-0.8,1.4-0.8,2.4v2.3c0,1,0.3,1.8,0.9,2.4
		c0.6,0.6,1.3,0.9,2.2,0.9c0.6,0,1.1-0.1,1.5-0.2c0.4-0.2,0.7-0.4,0.8-0.6v-2.5h-2.4v-1.2h3.9V181.7z M69.1,181.7"/>
	<path fill="#FCFCFC" d="M79.9,178.7c0,1.3-0.4,2.4-1.2,3.3c-0.8,0.9-1.9,1.3-3.2,1.3c-1.3,0-2.3-0.4-3.1-1.3
		c-0.8-0.9-1.2-2-1.2-3.3v-1.9c0-1.3,0.4-2.4,1.2-3.3c0.8-0.9,1.8-1.3,3.1-1.3c1.3,0,2.4,0.4,3.2,1.3c0.8,0.9,1.2,2,1.2,3.3V178.7z
		 M78.4,176.7c0-1-0.3-1.8-0.8-2.5s-1.3-1-2.2-1c-0.9,0-1.6,0.3-2.1,1c-0.5,0.6-0.8,1.5-0.8,2.5v2c0,1,0.3,1.8,0.8,2.5
		c0.5,0.6,1.2,1,2.1,1c0.9,0,1.6-0.3,2.2-1c0.5-0.6,0.8-1.5,0.8-2.5V176.7z M78.4,176.7"/>
	<path fill="#FCFCFC" d="M82.1,183.2v-10.9h3.4c1.4,0,2.6,0.4,3.4,1.3c0.9,0.9,1.3,2,1.3,3.4v1.5c0,1.4-0.4,2.5-1.3,3.4
		c-0.9,0.9-2,1.3-3.4,1.3H82.1z M83.6,173.4v8.6h1.9c1,0,1.8-0.3,2.4-1c0.6-0.7,0.9-1.5,0.9-2.6v-1.5c0-1-0.3-1.9-0.9-2.5
		c-0.6-0.7-1.4-1-2.4-1H83.6z M83.6,173.4"/>
	<path fill="#FCFCFC" d="M95,178.2h-1.3v4.9h-1.5v-10.9h1.5v4.8h1.1l3.9-4.8h1.6l0,0l-4.2,5.2l4.6,5.6l0,0H99L95,178.2z M95,178.2"
		/>
	<path fill="#FCFCFC" d="M106.5,172.2h1.5v7.9c0,1-0.3,1.8-0.9,2.3c-0.6,0.6-1.4,0.9-2.4,0.9c-1.1,0-1.9-0.3-2.5-0.8
		c-0.6-0.5-0.9-1.3-0.9-2.3l0,0h1.4c0,0.7,0.2,1.2,0.5,1.5c0.3,0.3,0.8,0.5,1.5,0.5c0.5,0,1-0.2,1.3-0.5c0.3-0.4,0.5-0.9,0.5-1.5
		V172.2z M106.5,172.2"/>
	<path fill="#FCFCFC" d="M117.1,178.1h-5v3.9h5.8v1.2h-7.2v-10.9h7.2v1.2h-5.7v3.5h5V178.1z M117.1,178.1"/>
	<path fill="#FCFCFC" d="M127.9,183.2h-1.5l-5.3-8.5l0,0v8.4h-1.5v-10.9h1.5l5.3,8.4l0,0v-8.4h1.5V183.2z M127.9,183.2"/>
	<path fill="#FCFCFC" d="M137.7,173.4h-3.5v9.8h-1.5v-9.8h-3.5v-1.2h8.5V173.4z M137.7,173.4"/>
</g>
</svg>
