<?xml version="1.0" encoding="utf-8"?>
<!-- Generator: Adobe Illustrator 18.1.1, SVG Export Plug-In . SVG Version: 6.00 Build 0)  -->
<svg version="1.1" id="Layer_1" xmlns="http://www.w3.org/2000/svg" xmlns:xlink="http://www.w3.org/1999/xlink" x="0px" y="0px"
	 viewBox="0 0 3000 3000" enable-background="new 0 0 3000 3000" xml:space="preserve">
<g>
	<path fill="#F7F7F7" d="M1500.9,1782.9c143.4,0,259.7-116.3,259.7-259.7s-116.4-259.6-259.7-259.6
		c-143.5,0-259.7,116.2-259.7,259.6S1357.4,1782.9,1500.9,1782.9z"/>
	<path fill="#F7F7F7" d="M1974.9,999.4h-121.1c-28.6,0-51.8,23.1-51.8,51.8v121.3c0,28.5,23.3,51.9,51.9,51.9H1975
		c28.8,0,52-23.4,52-52v-121.2C2027,1022.6,2003.7,999.4,1974.9,999.4z"/>
	<path fill="#F7F7F7" d="M1916.1,1523.3c0,229.3-185.9,415.4-415.3,415.4s-415.4-186-415.4-415.4c0-25.3,3.2-49.8,7.8-73.8H977
		v541.2c0,28.7,23.3,51.8,52,51.8h946c28.8,0,52-23.2,52-51.8v-541.2h-118.6C1912.9,1473.5,1916.1,1497.9,1916.1,1523.3z"/>
	<path fill="#F7F7F7" d="M1500,0C675,0,0,675,0,1500s675,1500,1500,1500s1500-675,1500-1500S2325,0,1500,0z M2177,2049.4
		c0,82.6-67.5,150-150,150H977c-82.5,0-150-67.4-150-150v-1050c0-82.5,67.5-150,150-150h1050c82.5,0,150,67.5,150,150V2049.4z"/>
</g>
</svg>
