<?xml version="1.0" encoding="utf-8"?>
<!-- Generator: Adobe Illustrator 18.1.1, SVG Export Plug-In . SVG Version: 6.00 Build 0)  -->
<svg version="1.1" id="facebook-square" xmlns="http://www.w3.org/2000/svg" xmlns:xlink="http://www.w3.org/1999/xlink" x="0px"
	 y="0px" viewBox="0 0 3000 3000" enable-background="new 0 0 3000 3000" xml:space="preserve">
<path fill="#FFFFFF" d="M1500,60C704.7,60,60,704.7,60,1500s644.7,1440,1440,1440s1440-644.7,1440-1440S2295.3,60,1500,60z
	 M2235,1990c0,134.8-110.2,245-245,245h-980c-134.7,0-245-110.2-245-245V1010c0-134.8,110.3-245,245-245h980
	c134.8,0,245,110.3,245,245.1V1990z"/>
<path fill="#FFFFFF" d="M1776,1175.7c0-59.4,7.6-91.3,68.6-91.2H2050V856.9h-251.6c-218.3,0-298.4,110.4-298.4,296.1v136.6h-132.8
	V1500H1500v643.1h275.6V1500h239.1h0v0l36.5-210.4h-275.6L1776,1175.7z"/>
</svg>
