<?xml version="1.0" encoding="utf-8"?>
<!-- Generator: Adobe Illustrator 18.1.1, SVG Export Plug-In . SVG Version: 6.00 Build 0)  -->
<svg version="1.1" id="Layer_1" xmlns="http://www.w3.org/2000/svg" xmlns:xlink="http://www.w3.org/1999/xlink" x="0px" y="0px"
	 viewBox="0 0 3000 3000" enable-background="new 0 0 3000 3000" xml:space="preserve">
<g>
	<path fill="#F7F7F7" d="M1500,0C675,0,0,675,0,1500s675,1500,1500,1500s1500-675,1500-1500S2325,0,1500,0z M1500,2131.6
		c-806.1,0-820.2-71.7-820.2-631.6s14.1-631.6,820.2-631.6s820.2,71.7,820.2,631.6S2306.1,2131.6,1500,2131.6z"/>
	<path fill="#F7F7F7" d="M1762.9,1472.6l-368.3-171.9c-32.2-14.9-58.6,1.9-58.6,37.4v323.8c0,35.6,26.4,52.3,58.6,37.4l368.3-171.9
		C1795.1,1512.3,1795.1,1487.7,1762.9,1472.6z"/>
</g>
</svg>
