<?xml version="1.0" encoding="utf-8"?>
<!-- Generator: Adobe Illustrator 18.1.1, SVG Export Plug-In . SVG Version: 6.00 Build 0)  -->
<svg version="1.1" id="vimeo" xmlns="http://www.w3.org/2000/svg" xmlns:xlink="http://www.w3.org/1999/xlink" x="0px" y="0px"
	 viewBox="0 0 3000 3000" enable-background="new 0 0 3000 3000" xml:space="preserve">
<path fill="#F7F7F7" d="M1500,60C704.7,60,60,704.7,60,1500s644.7,1440,1440,1440s1440-644.7,1440-1440S2295.3,60,1500,60z
	 M2227.7,1166.6c-82.2,462.7-541.1,854.5-679.1,944c-138.1,89.5-264-35.8-309.7-130.6c-52.3-108.1-209-694-250-742.5
	c-41.1-48.5-164.2,48.5-164.2,48.5l-59.7-78.3c0,0,250-298.6,440.3-335.9c201.7-39.6,201.4,309.7,250,503.7
	c46.9,187.6,78.4,294.9,119.4,294.9c41.1,0,119.4-104.6,205.2-265c85.9-160.5-3.7-302.3-171.6-201.5
	C1675.4,800.9,2309.8,704,2227.7,1166.6z"/>
</svg>
