<?xml version="1.0" encoding="utf-8"?>
<!-- Generator: Adobe Illustrator 18.1.1, SVG Export Plug-In . SVG Version: 6.00 Build 0)  -->
<svg version="1.1" id="flickr" xmlns="http://www.w3.org/2000/svg" xmlns:xlink="http://www.w3.org/1999/xlink" x="0px" y="0px"
	 viewBox="0 0 3000 3000" enable-background="new 0 0 3000 3000" xml:space="preserve">
<path fill="#FFFFFF" d="M1500,60C704.7,60,60,704.7,60,1500s644.7,1440,1440,1440s1440-644.7,1440-1440S2295.3,60,1500,60z
	 M1086.6,1821.6c-177.6,0-321.6-144-321.6-321.6s144-321.6,321.6-321.6c177.6,0,321.6,144,321.6,321.6S1264.2,1821.6,1086.6,1821.6z
	 M1913.4,1821.6c-177.6,0-321.6-144-321.6-321.6s144-321.6,321.6-321.6s321.6,144,321.6,321.6S2091,1821.6,1913.4,1821.6z"/>
</svg>
