<?xml version="1.0" encoding="UTF-8" standalone="no"?>
<svg
   xmlns:dc="http://purl.org/dc/elements/1.1/"
   xmlns:cc="http://creativecommons.org/ns#"
   xmlns:rdf="http://www.w3.org/1999/02/22-rdf-syntax-ns#"
   xmlns:svg="http://www.w3.org/2000/svg"
   xmlns="http://www.w3.org/2000/svg"
   xmlns:sodipodi="http://sodipodi.sourceforge.net/DTD/sodipodi-0.dtd"
   xmlns:inkscape="http://www.inkscape.org/namespaces/inkscape"
   width="50mm"
   height="70mm"
   viewBox="0 0 50 70"
   version="1.1"
   id="svg8"
   inkscape:version="1.0.1 (3bc2e813f5, 2020-09-07)"
   sodipodi:docname="108.svg">
  <defs
     id="defs2">
    <marker
       style="overflow:visible"
       id="Arrow1Lstart"
       refX="0"
       refY="0"
       orient="auto"
       inkscape:stockid="Arrow1Lstart"
       inkscape:isstock="true">
      <path
         transform="matrix(0.8,0,0,0.8,10,0)"
         style="fill:#000000;fill-opacity:1;fill-rule:evenodd;stroke:#000000;stroke-width:1pt;stroke-opacity:1"
         d="M 0,0 5,-5 -12.5,0 5,5 Z"
         id="path1177" />
    </marker>
  </defs>
  <sodipodi:namedview
     id="base"
     pagecolor="#ccddff"
     bordercolor="#666666"
     borderopacity="1.0"
     inkscape:pageopacity="0"
     inkscape:pageshadow="2"
     inkscape:zoom="0.97790233"
     inkscape:cx="535.57129"
     inkscape:cy="273.79623"
     inkscape:document-units="mm"
     inkscape:current-layer="layer1"
     inkscape:document-rotation="0"
     showgrid="false"
     inkscape:pagecheckerboard="false"
     inkscape:window-width="1920"
     inkscape:window-height="1002"
     inkscape:window-x="-8"
     inkscape:window-y="-8"
     inkscape:window-maximized="1" />
  <metadata
     id="metadata5">
    <rdf:RDF>
      <cc:Work
         rdf:about="">
        <dc:format>image/svg+xml</dc:format>
        <dc:type
           rdf:resource="http://purl.org/dc/dcmitype/StillImage" />
        <dc:title></dc:title>
      </cc:Work>
    </rdf:RDF>
  </metadata>
  <g
     inkscape:label="Layer 1"
     inkscape:groupmode="layer"
     id="layer1">
    <path
       style="opacity:1;fill:#000000;fill-opacity:1;stroke:#000000;stroke-width:0.0311065;stroke-opacity:1"
       d="m 8.9330379,56.009057 3.5253381,-5.127054 2.694238,1.852557 2.694241,1.852556 -3.525355,5.127053 -3.525354,5.127052 -2.6942168,-1.852554 -2.6942285,-1.852556 z"
       id="path891-3" />
    <path
       style="opacity:1;fill:#666666;fill-opacity:1;stroke:#000000;stroke-width:0;stroke-miterlimit:0;stroke-dasharray:none;stroke-opacity:1"
       d="m 12.45871,50.883813 c 0.46442,-0.213027 5.290649,-1.801312 5.349847,-1.760608 0.07744,0.05325 0.08471,5.481647 0.0075,5.593948 -0.03211,0.04671 -1.304576,-0.771956 -2.827691,-1.819248 -2.175372,-1.495784 -2.717897,-1.927745 -2.52965,-2.014092 z"
       id="path1092" />
    <path
       style="opacity:1;fill:#666666;fill-opacity:1;stroke:#000000;stroke-width:0.685499;stroke-opacity:1"
       d=""
       id="path1094"
       transform="scale(0.26458333)" />
    <path
       style="opacity:1;fill:#666666;fill-opacity:1;stroke:#000000;stroke-width:0.685499;stroke-opacity:1"
       d=""
       id="path1098"
       transform="scale(0.26458333)" />
    <path
       style="opacity:1;fill:#666666;fill-opacity:1;stroke:#000000;stroke-width:0.685499;stroke-opacity:1"
       d=""
       id="path1100"
       transform="scale(0.26458333)" />
    <path
       style="opacity:1;fill:#666666;fill-opacity:1;stroke:#000000;stroke-width:0.685499;stroke-opacity:1"
       d=""
       id="path1102"
       transform="scale(0.26458333)" />
    <path
       style="opacity:1;fill:#666666;fill-opacity:1;stroke:#000000;stroke-width:0;stroke-miterlimit:0;stroke-dasharray:none;stroke-opacity:1"
       d="m 8.9230729,56.062743 c 3.1686771,-4.608346 3.4937831,-5.071282 3.5274061,-5.022357 0.02037,0.02963 0.234608,0.213404 0.476101,0.408384 0.468831,0.378532 4.529992,3.144295 4.722489,3.216159 l 0.102827,0.03838 -3.479653,5.060587 -3.479645,5.060586 -2.6799628,-1.84275 -2.6799655,-1.842751 z"
       id="path1115" />
    <path
       style="opacity:1;fill:#ffffff;fill-opacity:1;stroke:#000000;stroke-width:0;stroke-miterlimit:0;stroke-dasharray:none;stroke-opacity:1"
       d="m 8.1216822,59.494426 c 0.08092,-1.007182 0.153049,-1.848922 0.16082,-1.870492 0.01714,-0.04799 8.7041578,-3.033212 8.7068448,-2.992045 0.0011,0.01611 -0.224717,0.133007 -0.501709,0.25974 -3.171816,1.451212 -5.567274,2.992363 -7.1306674,4.587618 -0.4211997,0.429786 -0.9127097,1.061302 -1.1566244,1.486101 -0.112635,0.196155 -0.20959,0.357467 -0.215471,0.358468 -0.0061,10e-4 0.05549,-0.822237 0.136418,-1.829421 z"
       id="path1117" />
    <path
       style="opacity:1;fill:#ffffff;fill-opacity:1;stroke:#000000;stroke-width:0;stroke-miterlimit:0;stroke-dasharray:none;stroke-opacity:1"
       d=""
       id="path1119"
       transform="scale(0.26458333)" />
    <path
       style="opacity:1;fill:#ffffff;fill-opacity:1;stroke:#000000;stroke-width:0;stroke-miterlimit:0;stroke-dasharray:none;stroke-opacity:1"
       d=""
       id="path1121"
       transform="scale(0.26458333)" />
    <path
       style="opacity:1;fill:#ffffff;fill-opacity:1;stroke:#000000;stroke-width:0;stroke-miterlimit:0;stroke-dasharray:none;stroke-opacity:1"
       d=""
       id="path1123"
       transform="scale(0.26458333)" />
    <path
       style="opacity:1;fill:#ffffff;fill-opacity:1;stroke:#000000;stroke-width:0;stroke-miterlimit:0;stroke-dasharray:none;stroke-opacity:1"
       d=""
       id="path1125"
       transform="scale(0.26458333)" />
    <path
       style="opacity:1;fill:#ffffff;fill-opacity:1;stroke:#000000;stroke-width:0;stroke-miterlimit:0;stroke-dasharray:none;stroke-opacity:1"
       d=""
       id="path1127"
       transform="scale(0.26458333)" />
    <path
       style="opacity:1;fill:#ffffff;fill-opacity:1;stroke:#000000;stroke-width:0;stroke-miterlimit:0;stroke-dasharray:none;stroke-opacity:1"
       d=""
       id="path1129"
       transform="scale(0.26458333)" />
    <path
       style="opacity:1;fill:#ffffff;fill-opacity:1;stroke:#000000;stroke-width:0;stroke-miterlimit:0;stroke-dasharray:none;stroke-opacity:1"
       d=""
       id="path1131"
       transform="scale(0.26458333)" />
    <path
       style="fill:none;stroke:#000000;stroke-width:0.415454;stroke-linecap:butt;stroke-linejoin:miter;stroke-miterlimit:4;stroke-dasharray:none;stroke-opacity:1;marker-start:url(#Arrow1Lstart)"
       d="m 27.044807,23.719689 1.2182,-10.015088"
       id="path1175" />
    <path
       style="fill:none;stroke:#000000;stroke-width:0.264583px;stroke-linecap:butt;stroke-linejoin:miter;stroke-opacity:1"
       d="m 42.910121,13.934653 c 0,0 0,0 0,0 z"
       id="path1501" />
    <text
       xml:space="preserve"
       style="font-weight:bold;font-size:7.05556px;line-height:1.25;font-family:Calibri;-inkscape-font-specification:'Calibri Bold';stroke-width:0.264583"
       x="21.53569"
       y="10.687909"
       id="text1541"><tspan
         sodipodi:role="line"
         id="tspan1539"
         x="21.53569"
         y="10.687909"
         style="font-size:7.05556px;stroke-width:0.264583">Vind</tspan></text>
    <path
       style="opacity:1;fill:#000000;fill-opacity:1;stroke:#000000;stroke-width:0.0311065;stroke-opacity:1"
       d="m 37.034377,48.740202 -5.395399,-3.099109 1.62857,-2.83526 1.628569,-2.835261 5.395394,3.099109 5.3954,3.099108 -1.62857,2.83526 -1.62857,2.835261 z"
       id="path891-3-7-6" />
    <path
       style="opacity:1;fill:#666666;fill-opacity:1;stroke:#000000;stroke-width:0;stroke-miterlimit:0;stroke-dasharray:none;stroke-opacity:1"
       d="m 31.640755,45.640614 c -0.249893,-0.445672 -2.223336,-5.127626 -2.187554,-5.189921 0.04682,-0.08151 5.456836,-0.527814 5.575014,-0.459933 0.04915,0.02823 -0.663904,1.362738 -1.584573,2.965579 -1.314929,2.289228 -1.701594,2.864919 -1.802887,2.684275 z"
       id="path1092-2-0" />
    <path
       style="opacity:1;fill:#666666;fill-opacity:1;stroke:#000000;stroke-width:0;stroke-miterlimit:0;stroke-dasharray:none;stroke-opacity:1"
       d="m 37.088696,48.745789 c -4.849543,-2.78557 -5.337059,-3.072518 -5.291228,-3.10962 0.02791,-0.02271 0.193729,-0.251101 0.368537,-0.507569 0.339372,-0.497913 2.76759,-4.769474 2.82365,-4.967157 l 0.02994,-0.105596 5.325452,3.058932 5.32545,3.058932 -1.61994,2.82025 -1.61995,2.820259 z"
       id="path1115-2-4" />
    <path
       style="opacity:1;fill:#ffffff;fill-opacity:1;stroke:#000000;stroke-width:0;stroke-miterlimit:0;stroke-dasharray:none;stroke-opacity:1"
       d="m 40.573961,49.266985 c -1.010437,8.12e-4 -1.855251,-0.0034 -1.87738,-0.0093 -0.04925,-0.01318 -3.727295,-8.430331 -3.68648,-8.436341 0.01597,-0.0024 0.150745,0.213224 0.299466,0.47906 1.703008,3.044039 3.432863,5.307 5.149344,6.736255 0.46245,0.385058 1.13165,0.823878 1.57479,1.032633 0.2046,0.09642 0.37323,0.180018 0.37469,0.185817 0.002,0.0055 -0.82403,0.01117 -1.83446,0.01196 z"
       id="path1117-7-8" />
    <text
       xml:space="preserve"
       style="font-weight:bold;font-size:7.05556px;line-height:1.25;font-family:Calibri;-inkscape-font-specification:'Calibri Bold';stroke-width:0.264583"
       x="42.200188"
       y="42.224098"
       id="text1575"><tspan
         sodipodi:role="line"
         id="tspan1573"
         x="42.200188"
         y="42.224098"
         style="font-size:7.05556px;stroke-width:0.264583">A</tspan></text>
    <text
       xml:space="preserve"
       style="font-weight:bold;font-size:7.05556px;line-height:1.25;font-family:Calibri;-inkscape-font-specification:'Calibri Bold';stroke-width:0.264583"
       x="16.115551"
       y="62.846611"
       id="text1597"><tspan
         sodipodi:role="line"
         id="tspan1595"
         x="16.115551"
         y="62.846611"
         style="font-size:7.05556px;stroke-width:0.264583">B</tspan></text>
  </g>
</svg>
