<?xml version="1.0" encoding="UTF-8" standalone="no"?>
<svg
   xmlns:dc="http://purl.org/dc/elements/1.1/"
   xmlns:cc="http://creativecommons.org/ns#"
   xmlns:rdf="http://www.w3.org/1999/02/22-rdf-syntax-ns#"
   xmlns:svg="http://www.w3.org/2000/svg"
   xmlns="http://www.w3.org/2000/svg"
   xmlns:sodipodi="http://sodipodi.sourceforge.net/DTD/sodipodi-0.dtd"
   xmlns:inkscape="http://www.inkscape.org/namespaces/inkscape"
   width="50mm"
   height="70mm"
   viewBox="0 0 50 70"
   version="1.1"
   id="svg8"
   inkscape:version="1.0.1 (3bc2e813f5, 2020-09-07)"
   sodipodi:docname="106.svg">
  <defs
     id="defs2">
    <marker
       style="overflow:visible"
       id="Arrow1Lstart"
       refX="0"
       refY="0"
       orient="auto"
       inkscape:stockid="Arrow1Lstart"
       inkscape:isstock="true">
      <path
         transform="matrix(0.8,0,0,0.8,10,0)"
         style="fill:#000000;fill-opacity:1;fill-rule:evenodd;stroke:#000000;stroke-width:1pt;stroke-opacity:1"
         d="M 0,0 5,-5 -12.5,0 5,5 Z"
         id="path1177" />
    </marker>
  </defs>
  <sodipodi:namedview
     id="base"
     pagecolor="#ccddff"
     bordercolor="#666666"
     borderopacity="1.0"
     inkscape:pageopacity="0"
     inkscape:pageshadow="2"
     inkscape:zoom="0.97790233"
     inkscape:cx="535.57129"
     inkscape:cy="273.79623"
     inkscape:document-units="mm"
     inkscape:current-layer="layer1"
     inkscape:document-rotation="0"
     showgrid="false"
     inkscape:pagecheckerboard="false"
     inkscape:window-width="1920"
     inkscape:window-height="1002"
     inkscape:window-x="-8"
     inkscape:window-y="-8"
     inkscape:window-maximized="1" />
  <metadata
     id="metadata5">
    <rdf:RDF>
      <cc:Work
         rdf:about="">
        <dc:format>image/svg+xml</dc:format>
        <dc:type
           rdf:resource="http://purl.org/dc/dcmitype/StillImage" />
        <dc:title></dc:title>
      </cc:Work>
    </rdf:RDF>
  </metadata>
  <g
     inkscape:label="Layer 1"
     inkscape:groupmode="layer"
     id="layer1">
    <path
       style="opacity:1;fill:#000000;fill-opacity:1;stroke:#000000;stroke-width:0.0311065;stroke-opacity:1"
       d="m 21.222955,61.205402 -5.395399,-3.099092 1.628566,-2.835253 1.628566,-2.835255 5.395399,3.099108 5.395398,3.099107 -1.628566,2.835232 -1.628566,2.835245 z"
       id="path891-3" />
    <path
       style="opacity:1;fill:#666666;fill-opacity:1;stroke:#000000;stroke-width:0;stroke-miterlimit:0;stroke-dasharray:none;stroke-opacity:1"
       d="m 15.829333,58.10583 c -0.249893,-0.445667 -2.223339,-5.127617 -2.187556,-5.189913 0.04681,-0.08149 5.456834,-0.527812 5.575013,-0.45993 0.04915,0.02823 -0.663907,1.36274 -1.584572,2.965574 -1.314931,2.289229 -1.701595,2.864916 -1.802885,2.684269 z"
       id="path1092" />
    <path
       style="opacity:1;fill:#666666;fill-opacity:1;stroke:#000000;stroke-width:0.685499;stroke-opacity:1"
       d=""
       id="path1094"
       transform="scale(0.26458333)" />
    <path
       style="opacity:1;fill:#666666;fill-opacity:1;stroke:#000000;stroke-width:0.685499;stroke-opacity:1"
       d=""
       id="path1098"
       transform="scale(0.26458333)" />
    <path
       style="opacity:1;fill:#666666;fill-opacity:1;stroke:#000000;stroke-width:0.685499;stroke-opacity:1"
       d=""
       id="path1100"
       transform="scale(0.26458333)" />
    <path
       style="opacity:1;fill:#666666;fill-opacity:1;stroke:#000000;stroke-width:0.685499;stroke-opacity:1"
       d=""
       id="path1102"
       transform="scale(0.26458333)" />
    <path
       style="opacity:1;fill:#666666;fill-opacity:1;stroke:#000000;stroke-width:0;stroke-miterlimit:0;stroke-dasharray:none;stroke-opacity:1"
       d="m 21.277271,61.210992 c -4.849542,-2.785555 -5.337257,-3.072152 -5.291212,-3.109622 0.02789,-0.0227 0.193728,-0.2511 0.368537,-0.507573 0.339371,-0.497912 2.767589,-4.769472 2.823647,-4.967151 l 0.02994,-0.105595 5.325454,3.058932 5.325452,3.058924 -1.619946,2.820232 -1.619947,2.820235 z"
       id="path1115" />
    <path
       style="opacity:1;fill:#ffffff;fill-opacity:1;stroke:#000000;stroke-width:0;stroke-miterlimit:0;stroke-dasharray:none;stroke-opacity:1"
       d="m 24.76253,61.732189 c -1.010428,8.1e-4 -1.855244,-0.003 -1.877372,-0.009 -0.04922,-0.0132 -3.7273,-8.430302 -3.686485,-8.43631 0.01597,-0.0024 0.150747,0.213222 0.299469,0.479056 1.703006,3.044044 3.432862,5.306999 5.149343,6.73624 0.462446,0.385057 1.131648,0.823877 1.574785,1.032634 0.204622,0.0964 0.373248,0.17999 0.374721,0.18577 0.0015,0.006 -0.824031,0.0112 -1.834461,0.012 z"
       id="path1117" />
    <path
       style="opacity:1;fill:#ffffff;fill-opacity:1;stroke:#000000;stroke-width:0;stroke-miterlimit:0;stroke-dasharray:none;stroke-opacity:1"
       d=""
       id="path1119"
       transform="scale(0.26458333)" />
    <path
       style="opacity:1;fill:#ffffff;fill-opacity:1;stroke:#000000;stroke-width:0;stroke-miterlimit:0;stroke-dasharray:none;stroke-opacity:1"
       d=""
       id="path1121"
       transform="scale(0.26458333)" />
    <path
       style="opacity:1;fill:#ffffff;fill-opacity:1;stroke:#000000;stroke-width:0;stroke-miterlimit:0;stroke-dasharray:none;stroke-opacity:1"
       d=""
       id="path1123"
       transform="scale(0.26458333)" />
    <path
       style="opacity:1;fill:#ffffff;fill-opacity:1;stroke:#000000;stroke-width:0;stroke-miterlimit:0;stroke-dasharray:none;stroke-opacity:1"
       d=""
       id="path1125"
       transform="scale(0.26458333)" />
    <path
       style="opacity:1;fill:#ffffff;fill-opacity:1;stroke:#000000;stroke-width:0;stroke-miterlimit:0;stroke-dasharray:none;stroke-opacity:1"
       d=""
       id="path1127"
       transform="scale(0.26458333)" />
    <path
       style="opacity:1;fill:#ffffff;fill-opacity:1;stroke:#000000;stroke-width:0;stroke-miterlimit:0;stroke-dasharray:none;stroke-opacity:1"
       d=""
       id="path1129"
       transform="scale(0.26458333)" />
    <path
       style="opacity:1;fill:#ffffff;fill-opacity:1;stroke:#000000;stroke-width:0;stroke-miterlimit:0;stroke-dasharray:none;stroke-opacity:1"
       d=""
       id="path1131"
       transform="scale(0.26458333)" />
    <path
       style="fill:none;stroke:#000000;stroke-width:0.415454;stroke-linecap:butt;stroke-linejoin:miter;stroke-miterlimit:4;stroke-dasharray:none;stroke-opacity:1;marker-start:url(#Arrow1Lstart)"
       d="m 25.457306,23.190522 1.2182,-10.015088"
       id="path1175" />
    <path
       style="fill:none;stroke:#000000;stroke-width:0.264583px;stroke-linecap:butt;stroke-linejoin:miter;stroke-opacity:1"
       d="m 41.32262,13.405486 c 0,0 0,0 0,0 z"
       id="path1501" />
    <text
       xml:space="preserve"
       style="font-weight:bold;font-size:7.05556px;line-height:1.25;font-family:Calibri;-inkscape-font-specification:'Calibri Bold';stroke-width:0.264583"
       x="19.948189"
       y="10.158743"
       id="text1541"><tspan
         sodipodi:role="line"
         id="tspan1539"
         x="19.948189"
         y="10.158743"
         style="font-size:7.05556px;stroke-width:0.264583">Vind</tspan></text>
    <path
       style="opacity:1;fill:#000000;fill-opacity:1;stroke:#000000;stroke-width:0.0311065;stroke-opacity:1"
       d="m 24.863536,41.861031 -5.395399,-3.099109 1.62857,-2.83526 1.628569,-2.835261 5.395394,3.099109 5.3954,3.099108 -1.62857,2.83526 -1.62857,2.835261 z"
       id="path891-3-7-6" />
    <path
       style="opacity:1;fill:#666666;fill-opacity:1;stroke:#000000;stroke-width:0;stroke-miterlimit:0;stroke-dasharray:none;stroke-opacity:1"
       d="m 19.469914,38.761443 c -0.249893,-0.445672 -2.223336,-5.127626 -2.187554,-5.189921 0.04682,-0.08151 5.456836,-0.527814 5.575014,-0.459933 0.04915,0.02823 -0.663904,1.362738 -1.584573,2.965579 -1.314929,2.289228 -1.701594,2.864919 -1.802887,2.684275 z"
       id="path1092-2-0" />
    <path
       style="opacity:1;fill:#666666;fill-opacity:1;stroke:#000000;stroke-width:0;stroke-miterlimit:0;stroke-dasharray:none;stroke-opacity:1"
       d="m 24.917855,41.866618 c -4.849543,-2.78557 -5.337059,-3.072518 -5.291228,-3.10962 0.02791,-0.02271 0.193729,-0.251101 0.368537,-0.507569 0.339372,-0.497913 2.76759,-4.769474 2.82365,-4.967157 l 0.02994,-0.105596 5.325452,3.058932 5.32545,3.058932 -1.61994,2.82025 -1.61995,2.820259 z"
       id="path1115-2-4" />
    <path
       style="opacity:1;fill:#ffffff;fill-opacity:1;stroke:#000000;stroke-width:0;stroke-miterlimit:0;stroke-dasharray:none;stroke-opacity:1"
       d="m 28.40312,42.387814 c -1.010437,8.12e-4 -1.855251,-0.0034 -1.87738,-0.0093 -0.04925,-0.01318 -3.727295,-8.430331 -3.68648,-8.436341 0.01597,-0.0024 0.150745,0.213224 0.299466,0.47906 1.703008,3.044039 3.432863,5.307 5.149344,6.736255 0.46245,0.385058 1.13165,0.823878 1.57479,1.032633 0.2046,0.09642 0.37323,0.180018 0.37469,0.185817 0.002,0.0055 -0.82403,0.01117 -1.83446,0.01196 z"
       id="path1117-7-8" />
    <text
       xml:space="preserve"
       style="font-weight:bold;font-size:7.05556px;line-height:1.25;font-family:Calibri;-inkscape-font-specification:'Calibri Bold';stroke-width:0.264583"
       x="36.379349"
       y="44.340767"
       id="text1575"><tspan
         sodipodi:role="line"
         id="tspan1573"
         x="36.379349"
         y="44.340767"
         style="font-size:7.05556px;stroke-width:0.264583">A</tspan></text>
    <text
       xml:space="preserve"
       style="font-weight:bold;font-size:7.05556px;line-height:1.25;font-family:Calibri;-inkscape-font-specification:'Calibri Bold';stroke-width:0.264583"
       x="34.107235"
       y="64.434113"
       id="text1597"><tspan
         sodipodi:role="line"
         id="tspan1595"
         x="34.107235"
         y="64.434113"
         style="font-size:7.05556px;stroke-width:0.264583">B</tspan></text>
  </g>
</svg>
