<?xml version="1.0" encoding="UTF-8" standalone="no"?>
<svg
   xmlns:dc="http://purl.org/dc/elements/1.1/"
   xmlns:cc="http://creativecommons.org/ns#"
   xmlns:rdf="http://www.w3.org/1999/02/22-rdf-syntax-ns#"
   xmlns:svg="http://www.w3.org/2000/svg"
   xmlns="http://www.w3.org/2000/svg"
   xmlns:sodipodi="http://sodipodi.sourceforge.net/DTD/sodipodi-0.dtd"
   xmlns:inkscape="http://www.inkscape.org/namespaces/inkscape"
   width="66mm"
   height="9mm"
   viewBox="0 0 66 9"
   version="1.1"
   id="svg3291"
   inkscape:version="1.0.1 (3bc2e813f5, 2020-09-07)"
   sodipodi:docname="85.svg">
  <defs
     id="defs3285" />
  <sodipodi:namedview
     id="base"
     pagecolor="#ffffff"
     bordercolor="#666666"
     borderopacity="1.0"
     inkscape:pageopacity="0.0"
     inkscape:pageshadow="2"
     inkscape:zoom="1.1118987"
     inkscape:cx="279.01983"
     inkscape:cy="176.97993"
     inkscape:document-units="mm"
     inkscape:current-layer="layer1"
     inkscape:document-rotation="0"
     showgrid="false"
     inkscape:window-width="1920"
     inkscape:window-height="1002"
     inkscape:window-x="-8"
     inkscape:window-y="-8"
     inkscape:window-maximized="1" />
  <metadata
     id="metadata3288">
    <rdf:RDF>
      <cc:Work
         rdf:about="">
        <dc:format>image/svg+xml</dc:format>
        <dc:type
           rdf:resource="http://purl.org/dc/dcmitype/StillImage" />
        <dc:title></dc:title>
      </cc:Work>
    </rdf:RDF>
  </metadata>
  <g
     inkscape:label="Layer 1"
     inkscape:groupmode="layer"
     id="layer1">
    <path
       id="path1"
       d="M 5.2743528,0.01019619 C 5.0335364,0.08934622 4.6544609,0.16479063 4.4220645,0.17944187 3.9576084,0.2089111 3.6219806,0.34464523 3.0935317,0.71698478 2.9438211,0.82240507 2.715635,0.9758201 2.5863014,1.0576644 2.1713555,1.32071 0.08416703,3.4392218 0.04273953,3.6396221 -0.12869501,4.4653028 0.22040462,4.9363262 1.0036484,4.9363262 c 0.4802854,0 0.5304697,-0.03402 1.5903996,-1.0789589 C 3.3631453,3.0992163 3.5094877,2.9676931 3.716792,2.8479583 3.8479778,2.7721772 4.0374312,2.6505902 4.137631,2.5776713 4.4601237,2.3435908 5.0682273,2.1192778 5.3782576,2.1202885 c 0.2019152,5.048e-4 0.5732447,0.17295 0.9065143,0.4208391 0.1236076,0.091948 0.297737,0.2207767 0.3869905,0.2864543 0.1000312,0.073423 0.2357641,0.2182505 0.3534781,0.3772227 0.1052522,0.141964 0.3356278,0.4102301 0.5122827,0.5963159 0.227344,0.2398063 0.3728444,0.4237026 0.4989784,0.6315116 0.2593407,0.4272389 2.1616234,2.3365952 2.5846524,2.5945885 0.146679,0.089422 0.367792,0.235596 0.491232,0.3248502 0.478096,0.3457313 0.784085,0.4634453 1.307987,0.50302 0.236775,0.017853 0.417809,0.049003 0.566509,0.097506 0.27315,0.088917 0.371497,0.088917 0.66654,7.001e-4 0.129333,-0.03873 0.362066,-0.089086 0.517165,-0.1119881 0.340343,-0.050352 0.763709,-0.2421639 1.123755,-0.509588 0.123608,-0.091611 0.331922,-0.2291967 0.463109,-0.3056519 0.360888,-0.2103352 1.02608,-0.8792336 1.249382,-1.2564563 0.08959,-0.1515628 0.274329,-0.4013053 0.410399,-0.5552257 0.135901,-0.1539204 0.325691,-0.4088827 0.421513,-0.5666768 0.245869,-0.4045043 1.418965,-1.5845051 1.790126,-1.8007348 0.130175,-0.075782 0.33849,-0.2108412 0.463108,-0.3002628 0.278203,-0.1995582 0.921334,-0.4284177 1.199705,-0.4269022 0.205789,0.00121 0.547984,0.1609936 0.906009,0.4231972 0.139606,0.1023894 0.320639,0.2350907 0.402146,0.2950424 0.08757,0.064161 0.229534,0.2187559 0.346238,0.376718 0.108788,0.1473525 0.339837,0.4156186 0.513293,0.5963152 0.234922,0.2443534 0.357351,0.3997893 0.47877,0.6075989 0.220608,0.3772234 2.100661,2.2870844 2.502976,2.5425521 0.130176,0.082686 0.378233,0.2492365 0.551352,0.37015 0.548658,0.3834539 0.804799,0.4831484 1.346047,0.5240705 0.232733,0.017516 0.414609,0.049003 0.562466,0.097169 0.272477,0.08858 0.381097,0.089085 0.65711,0.00235 0.120408,-0.03789 0.350783,-0.088412 0.511945,-0.1123248 0.354321,-0.052714 0.778528,-0.2428373 1.138406,-0.5105987 0.123608,-0.09178 0.338322,-0.2349226 0.477254,-0.3181137 0.373519,-0.223639 1.008062,-0.8632349 1.234227,-1.2438265 0.08993,-0.1512261 0.275845,-0.4036622 0.413262,-0.5611189 0.137417,-0.1572887 0.326702,-0.4125884 0.420839,-0.5670135 0.264225,-0.4338068 1.382253,-1.5445944 1.847046,-1.8350897 0.177497,-0.1109774 0.392211,-0.2517627 0.477086,-0.3128932 0.205453,-0.1478579 0.89119,-0.3746971 1.130491,-0.3738551 0.217914,8.275e-4 0.559435,0.1717713 1.030627,0.5161558 0.441891,0.3228288 0.426229,0.3083462 0.605747,0.5631405 0.08285,0.1175453 0.301441,0.3725076 0.485675,0.5663394 0.240311,0.2531101 0.384464,0.4343122 0.510598,0.6422898 0.238627,0.3930534 2.118512,2.3022404 2.514764,2.553835 0.129671,0.082349 0.377392,0.2485631 0.550511,0.3694767 0.548657,0.3834539 0.804798,0.4831484 1.346046,0.5240705 0.232733,0.017516 0.414609,0.049003 0.562467,0.097169 0.272982,0.088917 0.381265,0.089085 0.658793,0.00134 0.121419,-0.038227 0.320977,-0.083022 0.443574,-0.099526 0.407199,-0.054566 0.781559,-0.2170718 1.191115,-0.5169979 0.131187,-0.096158 0.32064,-0.2231342 0.421009,-0.2820752 0.451657,-0.2657406 1.009914,-0.8221454 1.31725,-1.3132091 0.108283,-0.17295 0.297568,-0.4258915 0.420671,-0.561961 0.122934,-0.1360696 0.301778,-0.3760446 0.397431,-0.5333333 0.266919,-0.4390266 1.381916,-1.547962 1.850245,-1.8403095 0.177497,-0.1106407 0.392212,-0.251426 0.477087,-0.3125565 0.205452,-0.1478579 0.891189,-0.3746971 1.13049,-0.373855 0.357857,0.00134 1.301252,0.6203973 1.621555,1.0639716 0.09498,0.1315225 0.326197,0.400968 0.513629,0.5985048 0.249405,0.2627089 0.382275,0.4301018 0.494769,0.6230915 0.222966,0.3827805 2.235214,2.4073239 2.603682,2.6198486 0.127309,0.073256 0.335796,0.2110093 0.463277,0.3061573 0.473379,0.3528046 0.799743,0.4809595 1.330552,0.5227237 0.242335,0.019196 0.432122,0.05153 0.578972,0.098852 0.273484,0.088075 0.38177,0.088243 0.658793,7.001e-4 0.121416,-0.038227 0.320973,-0.083022 0.443572,-0.099526 0.403665,-0.054057 0.807158,-0.2303755 1.194484,-0.5217135 0.113842,-0.085885 0.304304,-0.2123561 0.423027,-0.2812332 0.439532,-0.2552991 1.002846,-0.8189452 1.313884,-1.3152293 0.106432,-0.1697504 0.302622,-0.4287544 0.43566,-0.5754335 0.759326,-0.836459 0.848918,-1.948088 0.182041,-2.2569395 -0.206628,-0.095653 -0.769936,-0.085886 -0.989701,0.017179 -0.238294,0.1114828 -0.444247,0.3238395 -0.67412,0.6941576 -0.147519,0.2379134 -0.283931,0.4096847 -0.51346,0.6471335 C 63.031589,4.440044 62.820244,4.6817025 62.73402,4.7990797 62.492869,5.1274656 61.932425,5.5695244 61.479585,5.7886164 61.169388,5.9386638 61.022539,5.9423688 60.608945,5.8108488 60.157454,5.6673693 60.101374,5.6434566 59.935328,5.5250692 59.850287,5.4646095 59.635569,5.3236588 59.458072,5.2120073 58.918175,4.8725065 57.872895,3.8140927 57.576675,3.3068623 57.5164,3.2034629 57.365999,3.0067675 57.242566,2.8698559 57.119126,2.7327756 56.927315,2.4754558 56.816166,2.2979587 56.545036,1.864994 55.897358,1.2090636 55.528724,0.9941814 55.397538,0.91772625 55.189391,0.78064596 55.066288,0.68954021 54.673067,0.39870758 54.262669,0.22020042 53.886793,0.17641538 53.794171,0.1656397 53.592087,0.12067207 53.437829,0.07672091 c -0.34371,-0.098179 -0.324512,-0.098179 -0.68641,5.0537e-4 C 52.566512,0.12774405 52.321485,0.1691741 52.098688,0.18736164 51.684079,0.22154722 51.379437,0.33420943 51.023939,0.58546676 50.811414,0.73551412 50.509804,0.93608246 50.267134,1.0888241 49.949189,1.2888871 47.98544,3.3087145 47.781672,3.6451843 47.650149,3.8625928 47.520984,4.0247652 47.289766,4.2627187 47.117322,4.4402158 46.905807,4.6817056 46.819585,4.7990829 46.491199,5.247035 45.612471,5.8574967 45.222618,5.9086911 44.984496,5.939847 44.270129,5.6980192 43.96734,5.4838104 43.834975,5.3900097 43.619082,5.2505719 43.487897,5.1739481 43.099727,4.9471095 41.971763,3.8078615 41.69676,3.3646245 41.586625,3.1869595 41.393634,2.9281235 41.268174,2.789191 41.142377,2.6500899 40.969932,2.4168515 40.884215,2.2700037 40.67489,1.9109685 39.975174,1.2045166 39.6286,1.0020961 39.505161,0.92985128 39.296678,0.79293965 39.165492,0.69762356 38.753073,0.39820221 38.351094,0.22121052 37.98667,0.17860489 37.9018,0.16883489 37.701058,0.12370809 37.540738,0.07857308 37.184397,-0.02162676 37.195343,-0.02162676 36.849948,0.07704548 36.670599,0.12840978 36.462958,0.16427822 36.274683,0.17673995 35.779914,0.20923885 35.41869,0.34884789 34.973769,0.67942388 34.847971,0.77288718 34.637636,0.91182027 34.50645,0.98827478 34.294935,1.111546 34.14573,1.2486262 33.192231,2.1967367 32.132133,3.2507721 32.04709,3.3469303 31.783875,3.7894938 31.745311,3.8543287 31.562089,4.0663487 31.376845,4.2606858 31.191601,4.455023 30.966109,4.7170585 30.875846,4.8431926 30.765204,4.997281 30.650691,5.1166791 30.525904,5.2077855 30.42402,5.2823879 30.251575,5.4105427 30.142955,5.492555 29.895739,5.6796509 29.481804,5.8859451 29.308517,5.908679 29.069048,5.9400004 28.352829,5.697165 28.052061,5.4824508 27.920202,5.3884815 27.704982,5.2492124 27.573796,5.1729259 27.187479,4.9487809 26.059683,3.8098702 25.782997,3.3646125 25.672692,3.1869474 25.482733,2.9316477 25.361146,2.7970936 25.239391,2.6623709 25.066609,2.4287957 24.977187,2.2777382 24.758432,1.9085982 24.061074,1.2038311 23.7145,1.0017473 23.591061,0.92967052 23.382578,0.79292756 23.251391,0.69761147 22.838972,0.39819012 22.436994,0.22119843 22.072569,0.1785928 21.987689,0.1688228 21.786958,0.123696 21.626637,0.07856099 c -0.357182,-0.10053654 -0.338322,-0.10053654 -0.702072,3.367e-4 -0.195011,0.05405663 -0.4008,0.08874885 -0.597158,0.10087388 -0.471697,0.0287946 -0.823996,0.17328671 -1.322133,0.54175262 -0.104915,0.0776339 -0.294369,0.20090504 -0.421008,0.27432925 C 18.195591,1.2205032 16.264512,3.1596657 15.994562,3.5965035 15.850746,3.8290685 15.71114,4.0042074 15.462745,4.2635487 15.277501,4.4568751 15.056557,4.7138589 14.971681,4.8344352 14.78408,5.1005124 14.196016,5.559074 13.768272,5.7724408 13.418499,5.9470749 13.301122,5.948591 12.796417,5.7855778 12.438729,5.6702214 12.354191,5.6269417 11.929478,5.343351 11.813953,5.2660537 11.645887,5.1587813 11.556128,5.104724 11.352866,4.9822943 10.142215,3.7812431 10.000083,3.5609717 9.9453516,3.4760965 9.8431309,3.3183031 9.7732436,3.210188 9.7031877,3.1020734 9.5573507,2.9171664 9.4490675,2.7991157 9.3407843,2.6810651 9.1723813,2.4537211 9.0748757,2.2939062 8.8392797,1.9075894 8.2385854,1.2861814 7.8825812,1.0605215 7.751058,0.97699314 7.5206825,0.82239934 7.3709724,0.71697905 6.9011273,0.38606636 6.5905922,0.24696587 6.1705942,0.17926747 6.0255992,0.15602942 5.7980866,0.10533853 5.6647113,0.06677393 5.4390508,0.00126504 5.343398,-0.01254349 5.2743528,0.01019047"
       stroke="none"
       fill="#b40c7c"
       fill-rule="evenodd"
       style="stroke-width:0.168403" />
  </g>
</svg>
