<?xml version="1.0" encoding="UTF-8" standalone="no"?>
<svg
   width="150"
   height="100"
   version="1.1"
   xml:space="preserve"
   style="clip-rule:evenodd;fill-rule:evenodd"
   id="svg2"
   sodipodi:docname="ce_merke.svg"
   inkscape:version="1.4.2 (2aeb623e1d, 2025-05-12)"
   xmlns:inkscape="http://www.inkscape.org/namespaces/inkscape"
   xmlns:sodipodi="http://sodipodi.sourceforge.net/DTD/sodipodi-0.dtd"
   xmlns="http://www.w3.org/2000/svg"
   xmlns:svg="http://www.w3.org/2000/svg"><defs
   id="defs2" /><sodipodi:namedview
   id="namedview2"
   pagecolor="#ffffff"
   bordercolor="#000000"
   borderopacity="0.25"
   inkscape:showpageshadow="2"
   inkscape:pageopacity="0.0"
   inkscape:pagecheckerboard="0"
   inkscape:deskcolor="#d1d1d1"
   showgrid="false"
   inkscape:zoom="2.211954"
   inkscape:cx="138.11318"
   inkscape:cy="145.12056"
   inkscape:window-width="1920"
   inkscape:window-height="1014"
   inkscape:window-x="0"
   inkscape:window-y="33"
   inkscape:window-maximized="1"
   inkscape:current-layer="svg2" />
    <path
   d="m 61.455455,88.140296 a 38.191008,38.968793 0 0 1 -3.8191,0.195336 38.191008,38.968793 0 0 1 0,-77.937586 38.191008,38.968793 0 0 1 3.8191,0.195333 v 11.690638 a 26.733705,27.278155 0 0 0 -3.8191,-0.195333 26.733706,27.278155 0 0 0 0,54.55631 26.733705,27.278155 0 0 0 3.8191,-0.195337 z"
   fill="#000000"
   id="path1"
   style="stroke-width:0.38578" />
    <path
   d="m 126.38017,88.140296 a 38.191008,38.968793 0 0 1 -3.81911,0.195336 38.191008,38.968793 0 0 1 0,-77.937586 38.191008,38.968793 0 0 1 3.81911,0.195333 v 11.690638 a 26.733705,27.278155 0 0 0 -3.81911,-0.195333 26.733705,27.278155 0 0 0 -26.1149,21.432836 h 22.29581 V 55.212153 H 96.44616 a 26.733705,27.278155 0 0 0 26.1149,21.432841 26.733705,27.278155 0 0 0 3.81911,-0.195337 z"
   fill="#000000"
   id="path2"
   style="stroke-width:0.38578" />
</svg>
