<?xml version="1.0" encoding="UTF-8" standalone="no"?>
<svg
   xmlns:dc="http://purl.org/dc/elements/1.1/"
   xmlns:cc="http://creativecommons.org/ns#"
   xmlns:rdf="http://www.w3.org/1999/02/22-rdf-syntax-ns#"
   xmlns:svg="http://www.w3.org/2000/svg"
   xmlns="http://www.w3.org/2000/svg"
   xmlns:sodipodi="http://sodipodi.sourceforge.net/DTD/sodipodi-0.dtd"
   xmlns:inkscape="http://www.inkscape.org/namespaces/inkscape"
   id="Layer_1"
   xml:space="preserve"
   viewBox="0 0 221.99999 56.999998"
   version="1.1"
   y="0px"
   x="0px"
   sodipodi:docname="134.svg"
   width="222"
   height="57"
   inkscape:version="1.0.1 (3bc2e813f5, 2020-09-07)"><defs
   id="defs9" /><sodipodi:namedview
   pagecolor="#ffffff"
   bordercolor="#666666"
   borderopacity="1"
   objecttolerance="10"
   gridtolerance="10"
   guidetolerance="10"
   inkscape:pageopacity="0"
   inkscape:pageshadow="2"
   inkscape:window-width="1920"
   inkscape:window-height="1002"
   id="namedview7"
   showgrid="false"
   inkscape:zoom="2.291807"
   inkscape:cx="46.671001"
   inkscape:cy="87.267383"
   inkscape:window-x="-8"
   inkscape:window-y="-8"
   inkscape:window-maximized="1"
   inkscape:current-layer="Layer_1" />
<path
   d="m 222.07525,8.8186419 c -4.47014,5.4179401 -14.65752,5.1180301 -20.45568,9.2061201 -3.26135,-1.03115 -5.32669,1.81348 -7.67187,2.55627 -1.31889,0.41855 -3.81981,0.0827 -5.62477,0.51162 -6.79403,1.61578 -13.54546,4.52854 -20.45568,4.60276 -1.92846,0.0207 -4.06863,1.2684 -6.13701,1.53425 -1.68633,0.21657 -3.6878,-0.19771 -5.62599,0 -3.25588,0.33155 -6.58536,0.78781 -10.73915,0.51162 -1.16134,1.90656 0.0712,6.20758 -1.53365,7.67126 8.09224,0.0408 18.77116,3.40309 27.61653,2.55628 2.38046,1.20817 7.06291,2.8136 10.22814,1.53425 0.48486,1.0494 1.65106,1.41623 2.5575,2.04587 1.23129,0.20927 1.11145,-0.93503 2.55688,-0.51223 7.96022,3.35808 20.31819,5.46965 28.63916,8.69328 1.11023,0.43071 5.79268,-1.03054 2.55688,3.06972 -1.00134,-0.17703 -0.66431,-3.03808 -4.09174,-2.5581 -1.2465,0.1746 -1.8585,0.78659 -2.55749,2.04587 1.8147,1.60421 8.16098,1.37304 7.67187,3.58013 -0.88089,3.18469 -3.87943,-0.15574 -5.11438,-0.51162 -2.39324,-0.68926 -5.53292,-0.65276 -8.18227,-1.53425 -1.32985,-0.44227 -2.33179,-1.68999 -3.58012,-2.04466 -7.76616,-2.20587 -16.79099,-2.0185 -23.52479,-5.11437 -3.36477,2.07811 -5.00852,-1.40955 -7.16085,0.51162 -3.71761,-2.58913 -10.91984,-1.69304 -15.34252,-3.57952 -1.13396,-0.28227 -0.72819,0.97579 -1.53364,1.02385 -2.98821,-2.128 -8.67869,-1.5519 -12.78685,-2.5581 -1.71007,1.5817 -3.28021,2.84828 -5.11377,4.60215 -0.67709,0.64788 -0.55603,1.73439 -1.02263,2.04526 -2.74851,1.83782 -6.23495,1.6109 -9.71652,3.06911 v -1.53364 c -0.90157,0.46356 -0.84561,1.88222 -2.04588,2.04526 -4.17508,-0.70264 -7.35248,-0.29627 -11.25077,-1.53425 -3.00402,-0.95328 -5.48121,-4.22497 -8.18349,-4.60215 -3.04356,-0.42462 -5.291401,1.83539 -8.181049,2.55689 -6.201492,1.5525 -12.501535,0.17155 -18.412237,1.53425 0.282273,-1.13335 -0.975789,-0.72819 -1.022023,-1.53425 -5.851692,0.78537 -8.407967,-5.82128 -12.785634,-8.18167 -0.133228,-1.91386 -1.185668,-2.90668 -2.045263,-4.09296 -10.273159,0.52501 -20.082758,1.13822 -31.707663,2.04588 -11.01352,0.85959 -21.6182299,4.50359 -31.19543982,4.60275 1.63158997,-3.82468 8.06302992,-2.84706 9.20489992,-7.16025 -3.30819,-0.90643 -4.97445,2.50579 -6.13701,2.04466 0.35224,-1.37547 -1.05548,-0.98796 -1.53363995,-1.53365 17.41941985,-4.42694 41.98386885,-6.87736 59.83460085,-6.13579 1.406499,-3.01436 -0.338849,-6.93454 0.51162,-9.71834 -8.087976,-0.50006 -18.914731,-0.6777 -26.593291,-1.02203 -1.57197,-0.13383 -2.29955,-1.10962 -3.58073,-1.53425 -7.56541,-0.35162 -14.24506,-2.15841 -21.4789198,-4.09174 -2.7965701,-0.74705 -6.7575201,-0.89184 -8.1828801,-3.58012 0.2549,-2.1310401 2.58122,-2.1924901 4.09175,-3.0685101 -0.85047,-1.19357 -2.77711,-1.31281 -4.09175,-2.04465 1.65167,-1.39616 4.46406,-0.0103 6.13762,0.51162 10.6308699,3.31123 23.2820599,7.0002501 37.3324449,8.1822701 5.124108,0.43071 10.488514,0.15574 16.36454,1.02324 3.867263,-9.2189001 9.360638,-13.3970201 17.8994,-13.8082701 0.925296,-0.045 1.018981,-0.56149999 0.51162,-0.51161999 2.799005,-0.2774 6.960709,-0.45078 10.228142,1.02262999 -0.339458,1.78125 -3.847188,-0.28957 -5.113767,1.53426 -0.123495,-0.89975 -0.87967,-1.16621 -2.045872,-1.02324 -4.121552,2.23628 -10.37962,-0.98553 -13.296645,4.09174 -0.79876,1.39311 -1.846942,2.90668 0,4.6015401 1.61212,-0.77382 1.883443,-2.8908701 2.557492,-4.6015401 1.105367,0.42767 1.74474,1.32316 3.580123,1.02202 3.43047,-4.92335 12.841601,1.17655 15.854137,-5.11376 4.546787,0.73853 7.256365,3.31366 10.739764,5.11376 7.03858,-3.09162 9.70314,-4.90997 17.90974,-6.13579 -1.93576,2.13895 4.33447,1.75813 3.58012,0.51101 9.72139,2.93041 18.02716,8.4262201 20.9673,19.4330501 h 9.20612 c -1.14005,1.2465 -3.14394,1.62915 -4.60215,2.55749 0.6272,-2.50274 -2.5946,-1.15708 -3.58073,-2.04587 -1.46186,0.0724 -0.93442,2.13347 -1.02324,3.58012 5.02008,-2.13591 5.92834,1.60847 10.73915,-1.02263 1.32985,-1.86702 -1.02081,-2.29712 0,-3.58012 3.00524,0.10767 5.41186,-0.38387 7.16025,-1.53365 6.26415,0.46661 13.74013,-2.11887 17.38839,-4.60275 5.26828,0.5323 11.14187,-2.39689 15.3413,-4.6027601 3.23823,0.1965001 4.36063,0.4234101 6.13761,-1.53425 3.58925,0.97701 6.48802,-1.63463 9.2049,-3.06729 3.17375,0.68196 6.25746,-0.13626 7.1566,-3.0685 1.47281,0.74219 3.68902,0.74219 3.57891,3.0685 -1.77394,-0.41124 -1.96497,0.76105 -3.57891,0.51162 0.36257,1.89622 -0.8742,2.19431 -0.51101,4.09053 1.64497,1.2714501 2.61163,-1.55311 5.11316,-1.02324 z m -6.64741,-2.55567 c -1.33533,1.3919 -4.47987,0.97458 -3.58074,4.6015401 2.08663,1.15039 6.51905,-2.1042701 3.58074,-4.6015401 z m -9.20551,3.06729 c -0.0858,1.4484801 -0.93808,2.1316501 -1.02264,3.5801201 2.20891,0.83892 4.81203,-1.87614 6.1364,-3.5801201 -1.1881,-2.29043 -3.09527,0.10342 -5.11376,0 z m -1.02264,41.9358101 c 2.56845,0.35953 2.37742,0.31816 5.11316,0.51162 0.21901,-0.97397 1.10233,-1.28361 1.02324,-2.55749 -1.96983,-0.24152 -7.07386,-1.9893 -6.1364,2.04587 z m -6.13761,-2.04587 c 1.09807,0.94841 3.74681,0.34432 5.62599,0.51162 v -2.04527 c -1.89926,-0.82796 -5.60713,-1.00134 -5.62599,1.53365 z m 0.51162,-37.84407 c -0.0785,1.62612 -1.16012,2.24967 -1.02324,4.09175 2.91702,-0.6631 5.49337,-1.66505 5.62599,-5.11438 -1.83234,0.0426 -2.95535,0.79572 -4.60275,1.02263 z m -6.64802,36.82083 c 1.43205,-0.58828 2.65787,-0.58828 4.09053,0 0.007,-1.01594 1.39494,-0.64911 1.02324,-2.04527 -1.75143,-1.22582 -5.73307,-1.68329 -5.11377,2.04527 z m 0,-31.19483 c 2.20039,-0.86811 4.22558,-1.91082 4.60154,-4.60276 -2.09454,0.64485 -6.5227,1.64193 -4.60154,4.60276 z m -6.13761,28.63794 c 0.88818,1.65471 5.27437,1.35905 5.11376,-1.02202 -1.01168,-1.51113 -5.03103,-1.30734 -5.11376,1.02202 z m -1.53426,-29.14956 c 0.36927,1.56223 -0.52196,1.86337 -0.51162,3.0685 2.75034,-1.00134 5.84865,-1.65227 6.13762,-5.11437 -2.4924,0.0651 -3.55822,1.55615 -5.626,2.04587 z m -6.13639,28.63855 h 6.13639 c -0.11437,-0.96727 0.57611,-1.12787 0.51162,-2.04526 -2.55445,-0.74462 -6.40711,-0.92591 -6.64801,2.04526 z m -1.53365,-26.59268 v 2.55627 c 3.24614,-0.5031 5.5609,-1.93941 6.64802,-4.60214 -2.35491,0.54325 -4.46831,1.32741 -6.64802,2.04587 z m -4.60336,25.05904 c 2.07811,1.16012 6.13701,0.51344 6.13701,-2.04466 -2.21804,-1.30125 -6.08165,-0.45747 -6.13701,2.04466 z m 3.0685,-25.57066 c -1.75265,1.82626 -5.98553,1.17472 -6.137,4.60215 2.78075,1.60117 7.98699,-3.22364 6.137,-4.60215 z m -9.2049,25.05904 c 2.27339,0.22813 3.72734,-0.3644 5.11316,-1.02385 v -1.53364 c -2.24541,-0.59071 -5.17886,-0.49459 -5.11316,2.55749 z m -2.55749,-21.99115 c -2.55688,-0.55359 -7.99794,0.0919 -7.67126,4.09175 3.498,-0.41854 5.97093,-1.86945 7.66943,-4.09175 z m 0.51162,3.06912 c 1.31403,-1.75509 4.8175,-1.3189 5.11377,-4.09175 -3.5637,-0.86628 -7.49849,2.2953 -5.11377,4.09175 z m -3.58195,14.83029 c -0.63086,1.07434 -1.41502,1.99294 -2.04587,3.06789 3.22789,-0.0128 6.8141,0.33702 7.16085,-2.55688 -2.17788,0.30295 -3.38302,-0.36745 -5.1168,-0.51101 z m -8.69328,1.53486 c 1.30551,0.80606 5.34129,0.80606 6.64802,0 0.35892,-3.89099 -6.84391,-3.1263 -6.64924,0 z m -6.64924,0 c 2.49605,-0.72394 5.87116,0.30113 6.64924,-3.06912 -3.25466,-0.0182 -7.08725,-0.61078 -6.64924,3.06912 z m -2.55505,-4.09297 c -0.58949,0.6047 -0.57854,1.80923 -0.51101,3.06912 1.38946,-0.31513 2.39506,-1.01473 3.0685,-2.04527 -0.66918,-0.52013 -1.88588,-0.50067 -2.55506,-1.02385 z m -3.06607,-15.3413 c -0.91617,1.83478 1.064,4.56018 3.06728,5.11438 0.93077,-1.84998 -0.93685,-4.68427 -3.06607,-5.11438 z m 0.51101,6.64863 c -1.36087,3.0101 0.67891,5.81458 2.55627,7.15964 0.45018,-3.27291 1.19845,-6.96618 -2.55505,-7.15964 z m -4.60519,-12.2734 c 2.34883,1.40041 3.29055,4.20976 6.1364,5.11376 1.18019,-2.66638 -3.38241,-7.96935 -6.13822,-5.11376 z m 4.09418,19.43304 c -1.73562,1.13457 -1.88223,6.1072 -1.53425,7.67126 2.78014,-0.79146 4.19759,-5.64851 1.53303,-7.67126 z M 109.0565,11.376132 c -1.02506,0.85047 -2.37681,1.37304 -2.55688,3.06851 2.25027,0.59618 5.5609,0.87662 5.62599,-2.04588 -0.96119,-0.40759 -1.87979,-0.85411 -3.07215,-1.02263 z m 25.56884,8.18349 c -1.89622,0.36197 -2.19431,-0.8748 -4.09236,-0.51162 -0.42401,1.27935 -1.40041,2.00815 -1.53364,3.57891 1.31038,1.09928 2.89938,-0.46965 3.58012,0.51162 -0.34919,3.73586 -4.64047,1.07738 -6.64801,0.51162 -2.98151,-0.84013 -5.96972,-2.17545 -8.6945,-2.04588 -4.56443,-3.61662 -11.16682,-5.19711 -16.36394,-8.18227 -9.711651,4.52367 -21.699741,4.84245 -32.730901,7.15964 -0.07969,3.65982 -0.08213,7.24177 1.022632,9.71835 9.169617,0.57732 16.96072,1.60239 24.548635,4.09053 4.150753,1.36087 8.039304,4.09052 11.762394,4.09174 1.43631,0.001 3.55822,-1.21183 5.11437,-1.53364 6.65411,-1.37852 12.39812,-1.69425 18.92143,-1.02324 -1.86033,2.03613 -2.15538,2.57756 -1.02202,5.62599 -3.58378,0.73671 -11.75814,-0.68074 -14.31989,2.55689 4.15379,0.97213 9.99393,-0.0438 13.29604,0.51222 -2.83551,0.91374 -5.53414,1.96557 -6.13762,5.11255 2.3251,0.40881 4.29858,-1.91751 5.11438,0 0.56576,-2.16085 1.62854,-3.82589 2.04587,-6.13639 1.44847,-0.0858 2.13043,-0.93808 3.57891,-1.02324 0.57549,-2.28009 -3.72005,0.31086 -2.5575,-2.55689 1.88588,-0.84195 4.18361,-1.27205 4.60337,-3.58073 -0.43193,-1.10233 -3.26014,0.19102 -3.58073,-1.02324 1.31038,-0.8091 4.04794,0.48972 6.64923,0 1.34931,-2.36951 1.69303,-7.73331 0.51162,-9.71652 -2.19857,0.0176 -1.71493,2.71688 -4.60275,2.04587 -0.83952,-3.49921 2.36038,-6.64863 3.58012,-9.71652 -4.3217,-6.20332 -16.5653,-11.3876501 -25.56944,-6.64863 6.89257,3.68233 16.27328,4.86921 23.53087,8.18288 z m 1.53303,-10.2293601 c -1.71676,0.15817 -4.43363,-0.68196 -4.09174,1.5342501 2.47901,0.25003 3.30758,2.14808 5.62599,2.55749 1.31403,-1.56771 -1.09502,-2.69132 -1.53303,-4.0917401 z m -0.51101,12.2734101 c -0.81884,1.42475 2.20891,1.4144 2.04587,0.51162 -0.68743,-0.16061 -0.97336,-0.72759 -2.04405,-0.51162 z m 1.02202,18.41163 c -2.89999,0.16729 -1.67234,4.46405 -2.55627,6.64801 3.1269,-0.7069 3.13907,-3.30028 2.55506,-6.64801 z m -9.7153,-32.2192901 c 0.99464,1.4576 5.65702,2.4273101 6.1364,0 -0.90644,-1.29943 -5.63938,-2.80874 -6.13823,0 z m 3.06607,36.3116401 c -0.80424,1.24042 -1.90656,2.18396 -1.53365,4.60093 2.5867,-0.31087 4.86678,-0.92712 4.60154,-4.09053 -1.55737,0.37048 -1.50262,-0.88271 -3.06607,-0.5104 z m -7.16025,-23.52662 c 2.16632,1.24894 6.09442,0.46965 6.64741,-1.53364 -1.99538,-1.52938 -6.67357,-2.52951 -6.64924,1.53364 z m -2.04405,19.43427 c 1.54155,-1.52817 6.10112,-0.0371 5.626,-3.58135 -2.93224,0.14053 -5.1892,0.94781 -5.62721,3.58135 z M 118.77181,7.2843919 h 5.62599 c 0.29931,-1.064 1.07495,-1.65288 1.53425,-2.55628 -2.22655,-0.57184 -7.78684,-1.29152 -7.16024,2.55628 z m -6.64924,7.6718701 c 0.10585,3.18895 3.94148,1.7855 5.62539,1.02263 -0.21962,1.97895 -0.55968,1.81896 0.51101,3.0685 1.96739,-0.41915 4.37523,-0.39968 4.60336,-2.55749 -4.22193,-0.379 -7.98151,-3.99806 -10.74341,-1.53364 z m 2.55506,33.75232 h 5.11377 c 0.20501,-1.32924 1.52573,-1.54156 1.53364,-3.06851 -3.63792,-0.39968 -5.96789,0.50736 -6.64924,3.06851 z m -1.53304,-7.67004 c 2.72844,0.002 4.1392,-1.31525 6.1364,-2.04588 v -1.53364 c -3.72917,-0.49154 -5.54812,0.92834 -6.13822,3.57952 z M 112.63358,7.2843919 c 2.05378,0.83769 4.97689,-1.35966 5.62478,-3.57891 -3.32157,-0.25429 -5.13445,1.00256 -5.62721,3.57891 z m -2.04404,38.8673001 c 0.43314,0.76044 1.64558,0.74036 2.55688,1.02385 0.76834,-0.76652 2.15355,-0.91495 2.55749,-2.04465 -1.52695,-0.99404 -4.76944,-1.57015 -5.11012,1.0208 z m -6.13823,-2.55627 c 3.24249,-0.72272 6.8798,-2.18275 8.6945,-5.626 -4.03334,0.73793 -8.22485,1.32377 -8.69328,5.626 z m 2.55506,-34.7767801 c 2.42001,1.5020101 4.4969,-1.12848 5.11438,-3.06729 -1.68513,-1.97165 -4.97628,0.40881 -5.1162,3.06729 z m -5.11012,2.5574901 c 1.49593,1.69547 5.03225,1.00013 5.62478,-1.02324 -1.32011,-1.2757001 -5.56637,-1.7015401 -5.62721,1.02324 z m 2.04405,-3.0685001 c 1.1662,0.14357 1.9236,-0.12228 2.04587,-1.02263 -0.90643,0.1168 -2.56114,-0.51527 -2.04404,1.02263 z M 96.269043,45.640072 c 3.202336,-1.3998 6.952197,-2.25271 8.181057,-5.62477 -4.13068,0.4739 -7.987603,1.21426 -8.182274,5.62477 z M 98.313089,6.7739919 c -1.05244,0.65154 -2.593992,0.81457 -2.556883,2.55627 2.030055,-0.35527 5.664934,0.8918401 6.137004,-1.02324 -1.18019,-0.52439 -1.64862,-1.75995 -3.583163,-1.53303 z m 1.02202,31.7076601 c -0.788414,1.54338 2.646311,1.34506 2.556891,0.51101 -0.5901,-0.42949 -1.36878,-0.67465 -2.555061,-0.51101 z m -5.621125,-2.0477 c -0.285315,1.25077 -1.978953,1.09077 -1.534251,3.06912 2.217425,-0.34129 4.986013,-0.12836 5.625995,-2.04527 -1.125443,-0.58218 -2.092715,-1.3195 -4.094177,-1.02385 z M 89.619808,6.7739919 c 1.687555,1.05426 5.383872,0.4812 6.648626,-0.51102 -0.279839,-2.44981 -7.221081,-3.46027 -6.649235,0.51102 z M 81.948549,45.640072 c 0.424018,-2.83003 -4.038817,-2.85862 -5.624778,-2.04465 0.114369,-0.96727 -0.576105,-1.12788 -0.51162,-2.04466 -3.970074,0.0487 -4.198204,-3.644 -7.160855,-4.60336 -0.680132,0.51405 -1.90291,0.48364 -2.045872,1.53425 2.114615,0.82857 2.894516,1.57562 1.534252,3.58013 2.715053,0.0128 3.289333,2.16632 6.648626,1.53364 0.11437,0.96727 -0.576104,1.12787 -0.511011,2.04465 2.530724,-0.0931 4.509678,1.15465 6.64741,0 v 2.04466 c 3.059378,-0.51953 6.119364,-1.04088 8.183487,-2.55567 -0.02312,0.70447 0.240905,1.12301 0.51162,1.53365 2.875657,-0.53353 5.301745,-1.51601 5.624778,-4.60154 -4.623439,1.69911 -9.459799,0.65701 -13.29847,3.5789 z M 92.174866,9.8418819 c 0.443485,2.4151401 -2.77528,2.9869901 -1.533643,4.6027601 2.294077,-0.43497 3.656775,-1.79889 4.091743,-4.09175 -1.186277,0.16365 -1.964962,-0.0809 -2.561142,-0.5110101 z m -6.13214,27.1043001 c 2.503957,-0.14478 5.810324,1.65532 6.648018,-1.02324 -1.91021,-1.40285 -5.99222,-2.26122 -6.649235,1.02324 z m -14.831505,0 c 3.973115,5.77991 12.634155,6.69973 21.478915,5.11377 v -1.53364 c -7.452254,-0.90157 -13.061215,-3.64765 -21.48074,-3.58013 z m -2.05013,-22.50154 c 7.958398,-0.7361 14.532198,-2.85741 21.990535,-4.09175 0.02798,-0.6533601 0.65519,-0.7081101 0.511011,-1.5342501 -8.20052,-2.26305 -19.722616,-1.68877 -22.502763,5.6260001 z m 14.831505,-0.51102 c -1.986254,-2.1432 -7.623808,0.78538 -6.648019,3.06851 4.878945,-1.81166 10.720295,-0.0773 12.785634,-5.11438 -2.482057,-1.56406 -4.258431,1.36757 -6.138224,2.04587 z m -4.088094,20.9673 c 0.629031,2.07081 4.025434,0.58584 5.625995,0.51162 v -2.04587 c -2.013629,0.37839 -5.8523,-1.0786 -5.627211,1.53425 z m -7.160246,0 c 3.337393,0.26767 5.759223,-0.37778 7.160246,-2.04526 -2.323886,-1.27023 -7.038577,-1.5306 -7.160246,2.04526 z m -4.094177,-20.9673 c 0.227522,-3.49677 -4.126419,-2.77406 -4.091135,0 0.967272,1.32194 2.512474,0.63634 4.088093,0 z m -7.665175,4.60276 c 2.286777,0.97761 3.460887,-0.17034 6.137007,-1.02263 2.783188,0.71724 8.173753,0.5901 8.694498,-2.55749 -3.038086,-1.66748 -5.089433,1.59995 -8.182878,1.53425 0.31269,-0.47695 1.189927,-1.88709 -0.51162,-1.53425 -2.1718,1.0719 -6.065222,0.41976 -6.138224,3.58012 z m -2.05013,12.78503 c 0.243947,1.60907 -0.727583,1.99902 -1.023848,3.06789 2.420613,1.02324 5.109508,-0.64302 7.160246,-1.53364 0.459303,3.14759 7.599474,1.17837 7.160855,-1.53365 -5.8523,0.58097 -7.513088,-0.65397 -13.29847,-6e-4 z m 8.18227,-6.13701 c 0.296265,-1.66018 -0.347975,-2.37925 -0.512228,-3.58013 -0.966664,-0.11376 -1.127876,0.57672 -2.044047,0.51162 -0.06753,1.26172 -0.07848,2.46442 0.510403,3.06851 h 2.044047 z m -3.06607,0 c -1.864584,0.38812 0.04745,1.6328 -0.512228,3.58012 1.127267,0.74827 2.196742,1.55433 4.091743,1.53364 -0.15817,-2.74486 -1.520868,-4.27911 -3.583165,-5.11376 z m -10.743412,-7.67065 c 1.764816,2.20465 6.357229,-0.0438 7.160855,-2.04587 -3.06607,0 -6.162557,-0.0262 -7.160246,2.04587 z m -1.022023,16.87555 c 1.975303,0.91009 4.998789,-0.98309 5.625387,-3.06789 -3.157322,-0.25916 -5.085783,0.70689 -5.627212,3.06789 z m -6.643152,-16.36454 c 1.449692,0.0785 7.81057,1.12118 7.160247,-2.55749 -3.461495,-0.21596 -6.381562,0.0986 -7.160247,2.55749 z m 0,16.87616 c 3.852055,0.44349 5.54326,-1.2751 6.648019,-3.57951 -3.887339,-0.47573 -6.174724,0.64788 -6.649235,3.57951 z m -6.138223,-20.45628 c -2.169974,-1.10537 -5.964233,0.0176 -6.136403,2.55749 3.236412,-0.71359 5.645467,0.89974 6.138228,-2.55749 z m -0.511012,3.06911 c 1.922378,1.05183 5.902793,-0.21962 6.648019,-2.04587 -2.044047,-1.1729 -6.637068,-0.51345 -6.649235,2.04587 z m 0,17.89879 c 2.370121,0.15574 4.425726,-0.004 5.624779,-1.02324 -0.164254,-1.18628 0.08273,-1.96435 0.51162,-2.55627 -3.668334,-0.42767 -5.438624,1.0427 -6.138224,3.57951 z m -6.138221,0 c 1.80314,0.58706 5.800589,-0.53656 5.625993,-3.57951 -2.980903,0.0858 -5.469043,0.66918 -5.627213,3.57951 z m -5.62721,-18.92203 c 2.30502,-0.93503 6.54216,0.0639 6.64923,-3.06851 -3.26682,-0.0292 -6.57015,-0.0913 -6.64923,3.06851 z m -3.57709,20.45567 c 2.95596,-0.80058 8.76142,-1.45577 7.66944,-4.60153 -3.24249,0.85107 -7.51917,0.66309 -7.67126,4.60153 z m -3.07215,-21.98992 c 3.75959,0.17946 6.13336,0.7069 7.15964,-2.5575 -2.51856,-0.51222 -6.53973,-0.28348 -7.16025,2.5575 z m -5.62113,23.52539 c 3.70179,-0.5615 7.16816,-1.3554 8.18288,-4.60275 -2.93223,-0.60592 -7.70776,1.07981 -8.18227,4.60275 z m 0,-25.05965 h 5.626 c 0.26584,-0.75739 0.75556,-1.28847 1.02324,-2.04587 -2.43948,-1.4265701 -6.12606,-1.02324 -6.64924,2.04587 z m -5.6272098,-2.04587 c 1.2446798,2.2156 6.3401898,0.94355 5.6247798,-2.0458701 -2.67673,-0.11376 -5.2682898,-0.14844 -5.6272098,2.0458701 z m -1.0220201,27.61593 c 2.0282299,0.50127 6.6157699,-0.42585 6.1363999,-4.09236 -3.36417,0.0481 -5.0918698,1.73318 -6.1382299,4.09236 z M 3.7029311,9.8418819 c 0.9691,0.9076601 3.37876,0.3723101 5.1143701,0.5110101 -0.3717001,-1.3949401 1.01594,-1.0287101 1.02324,-2.0458701 -2.1839601,-1.00985 -5.5116201,-0.51953 -6.1382201,1.53486 z"
   id="path2"
   style="stroke-width:0.608347" />
<metadata
   id="metadata4"><rdf:RDF><cc:Work><dc:format>image/svg+xml</dc:format><dc:type
         rdf:resource="http://purl.org/dc/dcmitype/StillImage" /><cc:license
         rdf:resource="http://creativecommons.org/publicdomain/zero/1.0/" /><dc:publisher><cc:Agent
           rdf:about="http://openclipart.org/"><dc:title>Openclipart</dc:title></cc:Agent></dc:publisher><dc:title></dc:title><dc:date>2008-01-09T16:37:50</dc:date><dc:description>from the Merchant Marine Manual, 1918</dc:description><dc:source>https://openclipart.org/detail/10876/seizings-hitches-splices-bends-and-knots-by-johnny_automatic-10876</dc:source><dc:creator><cc:Agent><dc:title>johnny_automatic</dc:title></cc:Agent></dc:creator><dc:subject><rdf:Bag><rdf:li>bend</rdf:li><rdf:li>externalsource</rdf:li><rdf:li>hitch</rdf:li><rdf:li>knot</rdf:li><rdf:li>maritime</rdf:li><rdf:li>rope</rdf:li><rdf:li>sailing</rdf:li><rdf:li>seizing</rdf:li><rdf:li>splice</rdf:li></rdf:Bag></dc:subject></cc:Work><cc:License
       rdf:about="http://creativecommons.org/publicdomain/zero/1.0/"><cc:permits
         rdf:resource="http://creativecommons.org/ns#Reproduction" /><cc:permits
         rdf:resource="http://creativecommons.org/ns#Distribution" /><cc:permits
         rdf:resource="http://creativecommons.org/ns#DerivativeWorks" /></cc:License></rdf:RDF></metadata></svg>
