<?xml version="1.0" encoding="UTF-8" standalone="no"?>
<svg
   xmlns:dc="http://purl.org/dc/elements/1.1/"
   xmlns:cc="http://creativecommons.org/ns#"
   xmlns:rdf="http://www.w3.org/1999/02/22-rdf-syntax-ns#"
   xmlns:svg="http://www.w3.org/2000/svg"
   xmlns="http://www.w3.org/2000/svg"
   xmlns:sodipodi="http://sodipodi.sourceforge.net/DTD/sodipodi-0.dtd"
   xmlns:inkscape="http://www.inkscape.org/namespaces/inkscape"
   id="svg"
   version="1.1"
   width="50"
   height="50"
   viewBox="0 0 50 50"
   sodipodi:docname="53.svg"
   inkscape:version="1.0.1 (3bc2e813f5, 2020-09-07)">
  <metadata
     id="metadata10">
    <rdf:RDF>
      <cc:Work
         rdf:about="">
        <dc:format>image/svg+xml</dc:format>
        <dc:type
           rdf:resource="http://purl.org/dc/dcmitype/StillImage" />
        <dc:title></dc:title>
      </cc:Work>
    </rdf:RDF>
  </metadata>
  <defs
     id="defs8" />
  <sodipodi:namedview
     pagecolor="#ffffff"
     bordercolor="#666666"
     borderopacity="1"
     objecttolerance="10"
     gridtolerance="10"
     guidetolerance="10"
     inkscape:pageopacity="0"
     inkscape:pageshadow="2"
     inkscape:window-width="1920"
     inkscape:window-height="1002"
     id="namedview6"
     showgrid="false"
     inkscape:zoom="2.1396227"
     inkscape:cx="200"
     inkscape:cy="177.60141"
     inkscape:window-x="-8"
     inkscape:window-y="-8"
     inkscape:window-maximized="1"
     inkscape:current-layer="svgg" />
  <g
     id="svgg"
     transform="translate(-45.335097,9.3474426)">
    <path
       id="path1"
       d="m 85.675056,-9.3127767 c -0.969061,0.087403 -2.615421,0.7058778 -3.433067,1.28975 -0.259849,0.1856888 -0.670951,0.452444 -0.913541,0.5928073 -0.612339,0.3543197 -1.168507,0.9230833 -1.598494,1.6343223 -0.199446,0.3299511 -0.513349,0.815374 -0.697327,1.0785552 -0.273526,0.3913601 -0.404427,0.6828088 -0.716539,1.5959825 l -0.381796,1.1170577 0.0015,1.4042824 0.0016,1.40444491 0.391891,1.14889929 c 0.501789,1.4710524 0.639202,1.7750104 1.145875,2.5344992 0.80983,1.2140447 0.800388,1.4509077 -0.09768,2.44466 -0.253825,0.280889 -0.63383,0.7892185 -0.844509,1.1295669 -0.21068,0.3405109 -0.639039,0.9115482 -0.951803,1.2689547 -0.312763,0.357569 -0.725981,0.9120363 -0.918263,1.2322403 -0.192282,0.320203 -0.591662,0.849652 -0.887492,1.176517 -0.29583,0.326865 -0.69407,0.854039 -0.884887,1.171643 -0.190816,0.317442 -0.605989,0.872397 -0.922659,1.233215 -0.31667,0.360818 -0.734122,0.921946 -0.927544,1.247023 -0.25301,0.424826 -0.578961,0.828534 -1.159877,1.436287 -0.569519,0.595894 -0.922496,1.031442 -1.196347,1.476088 -0.21361,0.346848 -0.641644,0.921135 -0.951314,1.276266 -0.30967,0.355133 -0.717027,0.902615 -0.905238,1.216644 -0.188374,0.314193 -0.581893,0.83552 -0.874467,1.158648 -0.292575,0.323128 -0.712794,0.881169 -0.93373,1.240199 -0.283457,0.460242 -0.622596,0.882794 -1.150923,1.433201 -0.412079,0.429375 -0.859651,0.952975 -0.994948,1.163358 -0.135134,0.210545 -0.352326,0.548618 -0.48274,0.751365 -0.13025,0.202909 -0.46141,0.618151 -0.735749,0.922922 -0.274178,0.304769 -0.65695,0.816673 -0.850534,1.137365 -0.193422,0.320852 -0.563495,0.818297 -0.822204,1.105523 -0.258709,0.287224 -0.59215,0.708963 -0.741123,0.937216 -0.148974,0.228253 -0.374144,0.572988 -0.500161,0.765988 -0.126179,0.193161 -0.449199,0.593944 -0.718166,0.890754 -0.268803,0.296647 -0.649785,0.813749 -0.846626,1.148899 -0.484693,0.825122 -2.077164,2.450671 -2.673058,2.728473 l -0.383912,0.179029 -4.893985,0.03249 c -6.270241,0.04159 -5.885515,-0.09813 -5.885515,2.13794 0,1.417605 0.148486,1.786221 0.814064,2.021134 0.434384,0.153523 26.947608,0.123468 27.348453,-0.03103 0.635946,-0.244823 0.753822,-0.562103 0.750404,-2.022108 -0.0052,-2.23379 0.51693,-2.065972 -6.554186,-2.106423 -4.271552,-0.02453 -5.597987,-0.05037 -5.70463,-0.111284 -0.651413,-0.37219 -0.490066,-1.149225 0.454248,-2.18684 0.464179,-0.509792 0.612338,-0.712052 1.201232,-1.63806 0.130249,-0.205021 0.461411,-0.622049 0.735587,-0.926819 0.274339,-0.30477 0.657112,-0.816999 0.850533,-1.138178 0.193585,-0.321178 0.577334,-0.832918 0.852813,-1.137364 0.275479,-0.304446 0.606477,-0.721148 0.735588,-0.92617 0.604848,-0.959962 0.777104,-1.182853 1.476547,-1.9118 0.530281,-0.552518 0.866326,-0.971658 1.154179,-1.439048 0.223216,-0.362767 0.581567,-0.851278 0.796316,-1.085704 0.526048,-0.574449 0.736891,-0.852414 1.056004,-1.393072 0.148484,-0.251485 0.527186,-0.751528 0.84174,-1.111372 0.314554,-0.359843 0.742101,-0.929581 0.950176,-1.266355 0.208073,-0.336613 0.598661,-0.85469 0.868116,-1.151012 0.269456,-0.296485 0.667533,-0.827883 0.884562,-1.181066 0.217192,-0.35302 0.597684,-0.857288 0.845486,-1.120632 0.247963,-0.263343 0.607291,-0.645605 0.798595,-0.84949 0.191306,-0.203884 0.461248,-0.548618 0.599639,-0.765987 0.138391,-0.217368 0.343535,-0.539034 0.455712,-0.714813 0.112178,-0.175779 0.391565,-0.523601 0.620968,-0.772972 0.409474,-0.445297 0.75773,-0.922921 1.08824,-1.492822 0.09166,-0.157909 0.430802,-0.588259 0.753659,-0.956225 0.322859,-0.367966 0.704002,-0.87061 0.846952,-1.1170576 0.357048,-0.6152264 0.804946,-1.1674194 1.348252,-1.6621018 0.862743,-0.7858068 1.25447,-0.8704471 2.314544,-0.500369 l 0.703676,0.2456356 1.407516,3.25e-4 c 1.390745,1.624e-4 1.41305,-0.00195 1.88716,-0.1809777 0.26392,-0.099587 0.758545,-0.2651305 1.099312,-0.3678037 1.375468,-0.414429 2.07312,-0.8454286 3.201899,-1.9779197 1.200581,-1.2044598 1.436171,-1.6050799 2.116891,-3.601195 l 0.392053,-1.14889926 0.0015,-1.40444491 0.0016,-1.40428243 -0.267664,-0.765987 c -0.147261,-0.421418 -0.328798,-0.9640259 -0.403692,-1.2060878 -1.01823,-3.2926883 -5.05696,-5.6903981 -8.988723,-5.3364034"
       stroke="none"
       fill="#040404"
       fill-rule="evenodd"
       style="stroke-width:0.162634" />
  </g>
</svg>
