<?xml version="1.0" encoding="UTF-8" standalone="no"?>
<svg
   xmlns:dc="http://purl.org/dc/elements/1.1/"
   xmlns:cc="http://creativecommons.org/ns#"
   xmlns:rdf="http://www.w3.org/1999/02/22-rdf-syntax-ns#"
   xmlns:svg="http://www.w3.org/2000/svg"
   xmlns="http://www.w3.org/2000/svg"
   xmlns:sodipodi="http://sodipodi.sourceforge.net/DTD/sodipodi-0.dtd"
   xmlns:inkscape="http://www.inkscape.org/namespaces/inkscape"
   id="svg"
   version="1.1"
   width="50"
   height="250"
   viewBox="0 0 50 250"
   sodipodi:docname="50.svg"
   inkscape:version="1.0.1 (3bc2e813f5, 2020-09-07)">
  <metadata
     id="metadata11">
    <rdf:RDF>
      <cc:Work
         rdf:about="">
        <dc:format>image/svg+xml</dc:format>
        <dc:type
           rdf:resource="http://purl.org/dc/dcmitype/StillImage" />
        <dc:title></dc:title>
      </cc:Work>
    </rdf:RDF>
  </metadata>
  <defs
     id="defs9" />
  <sodipodi:namedview
     pagecolor="#ffffff"
     bordercolor="#666666"
     borderopacity="1"
     objecttolerance="10"
     gridtolerance="10"
     guidetolerance="10"
     inkscape:pageopacity="0"
     inkscape:pageshadow="2"
     inkscape:window-width="1904"
     inkscape:window-height="986"
     id="namedview7"
     showgrid="false"
     inkscape:zoom="1.4830946"
     inkscape:cx="160.98861"
     inkscape:cy="217.01934"
     inkscape:window-x="0"
     inkscape:window-y="0"
     inkscape:window-maximized="0"
     inkscape:current-layer="svgg"
     inkscape:pagecheckerboard="true" />
  <g
     id="svgg">
    <path
       id="path0"
       d="m 14.481461,0.03471645 c 6.12828,0.01884607 16.156374,0.01884607 22.284652,0 C 42.894393,0.01553974 37.880345,0 25.623788,0 13.367229,0 8.3531825,0.01553974 14.481461,0.03471645 M 0.28243478,1.4604052 C 0.1617538,1.6445678 0.08703078,1.8194725 0.1164571,1.8488987 0.14588343,1.8783251 0.27020137,1.7275565 0.39286615,1.5139677 0.66563824,1.0385177 0.58463318,0.99917246 0.28243478,1.4604052 M 50.991259,1.5886908 c 0.06679,0.1454784 0.154738,0.3537771 0.195075,0.462886 0.06381,0.1712677 0.07505,0.1702758 0.08398,-0.00793 0.006,-0.1130764 -0.082,-0.3213752 -0.195073,-0.4628861 -0.202348,-0.2526034 -0.20367,-0.2522728 -0.08398,0.00793 M 7.4344536e-5,2.5144627 C 0.00139688,2.8054196 0.02850876,2.9089076 0.06024951,2.7442525 0.09199028,2.5799279 0.09066774,2.3418723 0.05760446,2.21524 0.02454117,2.0889382 -0.00157882,2.2235057 7.4344536e-5,2.5144627 M 50.548542,4.2006901 c -0.203999,0.3091418 -0.285997,0.4923124 -0.182839,0.407009 0.19871,-0.1643245 0.704909,-0.9690848 0.609686,-0.9690848 -0.03074,0 -0.222846,0.2529341 -0.426847,0.5620758 M 1.8843508,6.1514238 c 0.1127459,0.2182177 0.23508,0.3967594 0.2714495,0.3967594 0.03637,0 -0.026451,-0.1785417 -0.1391963,-0.3967594 C 1.9038581,5.9332062 1.7815241,5.7546645 1.7451545,5.7546645 c -0.03637,0 0.026451,0.1785417 0.1391963,0.3967593 m 3.0672809,5.8293882 c 0.1315918,0.223838 0.3236895,0.476772 0.4268469,0.562075 0.1031575,0.0853 0.021161,-0.09787 -0.1828399,-0.407009 C 4.7674692,11.486845 4.5985158,11.37939 4.9516317,11.980812 m 4.2066418,7.395925 c 0.1127456,0.218218 0.2350793,0.39676 0.2714495,0.39676 0.036373,0 -0.026448,-0.178542 -0.1391965,-0.39676 -0.1127462,-0.218217 -0.2350799,-0.396759 -0.2714494,-0.396759 -0.036373,0 0.026448,0.178542 0.1391964,0.396759 m 32.1325505,1.223342 c -0.204001,0.309141 -0.285998,0.492312 -0.182841,0.407009 0.198711,-0.164325 0.70491,-0.969086 0.609687,-0.969086 -0.03074,0 -0.222846,0.252935 -0.426846,0.562077 m -0.608696,0.859644 c -0.380558,0.45925 -0.541576,0.69433 -0.476111,0.69433 0.03638,0 0.225492,-0.208299 0.419573,-0.462886 0.36039,-0.472474 0.404033,-0.650686 0.05654,-0.231444 m -1.972225,3.353279 c -0.441395,0.880806 -0.781616,1.622085 -0.756157,1.647544 0.02546,0.02546 0.415605,-0.694991 0.866919,-1.600924 0.451314,-0.906265 0.791535,-1.647544 0.756158,-1.647544 -0.03538,0 -0.425524,0.720449 -0.86692,1.600924 m -24.856644,2.763429 c 0.148453,0.290957 0.299553,0.529013 0.335923,0.529013 0.03638,0 -0.05522,-0.238056 -0.20367,-0.529013 -0.148454,-0.290957 -0.299554,-0.529012 -0.335923,-0.529012 -0.03638,0 0.05522,0.238055 0.20367,0.529012 m 23.342675,0.264507 c -0.112746,0.218217 -0.175565,0.396759 -0.139195,0.396759 0.03638,0 0.158703,-0.178542 0.271449,-0.396759 0.112745,-0.218218 0.175566,-0.39676 0.139196,-0.39676 -0.03637,0 -0.158704,0.178542 -0.27145,0.39676 m -1.754668,2.611999 c -0.342535,0.494627 -0.453628,0.694328 -0.386841,0.694328 0.03108,0 0.21392,-0.238055 0.406679,-0.529011 0.391139,-0.591172 0.373946,-0.734336 -0.01984,-0.165317 m -2.154072,4.014874 c -0.804429,1.608198 -1.44255,2.944286 -1.417752,2.969414 0.02513,0.0248 0.712844,-1.29079 1.528514,-2.923786 0.81534,-1.633326 1.453461,-2.969414 1.417753,-2.969414 -0.03604,0 -0.723755,1.315588 -1.528515,2.923786 m -15.305325,0.177881 c 0.815671,1.632996 1.503387,2.948583 1.528515,2.923786 0.05786,-0.05819 -2.858981,-5.8932 -2.946269,-5.8932 -0.03571,0 0.602413,1.336088 1.417754,2.969414 m 13.239861,5.42866 c 6.6e-4,0.509175 0.02446,0.701273 0.05323,0.426848 0.02877,-0.274426 0.0281,-0.691024 -9.5e-4,-0.925773 -0.02942,-0.234749 -0.05291,-0.01025 -0.05224,0.498925 m -13.306005,5.561244 c -0.851711,1.705735 -1.519589,3.101336 -1.483881,3.101336 0.08729,0 3.136383,-6.099514 3.078522,-6.157705 -0.02513,-0.0248 -0.742601,1.350304 -1.594641,3.056369 m 13.935843,-2.916181 c 0,0.07274 0.143494,0.400066 0.318729,0.727392 0.175236,0.327328 0.31873,0.535625 0.31873,0.462887 0,-0.07274 -0.143494,-0.400066 -0.31873,-0.727393 -0.175235,-0.327327 -0.318729,-0.535625 -0.318729,-0.462886 m 2.831537,5.753011 c 0.112746,0.218218 0.23508,0.39676 0.27145,0.39676 0.03638,0 -0.02645,-0.178542 -0.139197,-0.39676 -0.112746,-0.218217 -0.235079,-0.396759 -0.271449,-0.396759 -0.03638,0 0.02645,0.178542 0.139196,0.396759 m -21.358879,5.157872 c -0.437427,0.872871 -0.765745,1.587038 -0.729376,1.587038 0.03638,0 0.424202,-0.714167 0.861629,-1.587038 0.437427,-0.87287 0.765746,-1.587037 0.729376,-1.587037 -0.03638,0 -0.424202,0.714167 -0.861629,1.587037 m 24.995841,0.925772 c 0.655313,1.309306 1.221357,2.380557 1.257727,2.380557 0.03638,0 -0.470161,-1.071251 -1.125474,-2.380557 -0.655315,-1.309306 -1.221358,-2.380556 -1.257728,-2.380556 -0.03637,0 0.47016,1.07125 1.125475,2.380556 m 3.636961,6.083645 c 0.112746,0.218217 0.235079,0.396759 0.271449,0.396759 0.03638,0 -0.02645,-0.178542 -0.139197,-0.396759 -0.112745,-0.218218 -0.235079,-0.396759 -0.271449,-0.396759 -0.03637,0 0.02645,0.178541 0.139197,0.396759 M 9.1582906,60.771967 c -0.1127462,0.218218 -0.1755665,0.39676 -0.1391964,0.39676 0.036373,0 0.1587032,-0.178542 0.2714494,-0.39676 0.1127455,-0.218217 0.1755659,-0.396758 0.1391965,-0.396758 -0.036373,0 -0.1587039,0.178541 -0.2714495,0.396758 M 45.78414,67.560521 c 0.20367,0.26682 0.397091,0.485369 0.429823,0.485369 0.09192,0 -0.48074,-0.773681 -0.650024,-0.878161 -0.08266,-0.05124 0.01653,0.12564 0.220201,0.392792 M 1.7520977,74.261786 c -0.1127458,0.218219 -0.175566,0.396763 -0.1391964,0.396763 0.03637,0 0.1587037,-0.178544 0.2714495,-0.396763 0.1127459,-0.21822 0.175566,-0.396756 0.1391965,-0.396756 -0.03637,0 -0.1587038,0.178536 -0.2714496,0.396756 m 48.1655983,0.803768 c 0.131591,0.223838 0.323688,0.476771 0.426847,0.56208 0.103157,0.0853 0.02116,-0.09787 -0.182841,-0.407012 -0.428169,-0.649033 -0.597123,-0.756484 -0.244006,-0.155068 M 0.89245238,75.584316 c -0.15539749,0.218219 -0.25260351,0.396763 -0.21623389,0.396763 0.0363696,0 0.19308954,-0.178544 0.34848701,-0.396763 0.1553974,-0.218212 0.2526034,-0.396756 0.2162339,-0.396756 -0.03637,0 -0.1930896,0.178544 -0.34848702,0.396756 M 7.4344536e-5,77.634241 C 0.00139688,77.925199 0.02850876,78.02869 0.06024952,77.864029 0.09199028,77.699708 0.09066774,77.461655 0.05760443,77.335019 0.02454114,77.208715 -0.00157885,77.343312 7.4316892e-5,77.634241 M 0.09893356,78.324933 c 0,0.07671 0.12266478,0.280044 0.27244145,0.451975 L 0.64348583,79.089026 0.41138158,78.692269 C 0.10554622,78.170198 0.09893356,78.162264 0.09893356,78.324933 m 6.91948384,1.855183 c 2.0238037,0.02053 5.2970686,0.02053 7.2739226,0 1.977184,-0.02081 0.321374,-0.03739 -3.679282,-0.03739 -4.0006577,0 -5.6181134,0.01686 -3.5946406,0.03739 m 30.0783286,0 c 1.982144,0.02053 5.225651,0.02053 7.207796,0 1.982143,-0.02052 0.36039,-0.03739 -3.603898,-0.03739 -3.964288,0 -5.586042,0.01686 -3.603898,0.03739 M 18.97939,80.609277 c 0.237064,0.144487 0.549182,0.456606 0.693669,0.693663 0.144485,0.237067 0.263183,0.349811 0.263514,0.250294 3.31e-4,-0.235082 -0.972392,-1.207801 -1.207472,-1.20747 -0.09952,3.32e-4 0.01322,0.119027 0.250289,0.263513 m 1.085469,4.044958 c -0.08861,3.426022 -0.343859,3.71962 -3.393616,3.906429 -2.475118,0.151432 -3.138367,0.478098 -3.562238,1.754338 -0.297239,0.894696 -0.349149,156.476948 -0.05291,157.712848 0.459249,1.91404 0.135559,1.8661 12.65927,1.86543 12.211922,-6.9e-4 11.809872,0.0493 12.429809,-1.55694 0.232104,-0.60176 0.241032,-3.50207 0.241032,-79.18657 V 90.588108 l -0.335921,-0.652674 c -0.522068,-1.01438 -1.082161,-1.241521 -3.391631,-1.374439 -2.95321,-0.169946 -3.338398,-0.573648 -3.485198,-3.652832 l -0.082,-1.719293 -0.02546,1.719293 c -0.05125,3.442222 -0.43908,3.703088 -5.508343,3.703088 -4.982968,0 -5.228297,-0.190776 -5.359227,-4.165975 l -0.07175,-2.182173 -0.06183,2.391132 m 17.058337,58.908185 c 1.250454,0.7026 1.126136,-1.87633 1.165151,24.18283 0.03736,24.68107 0.06513,23.68587 -0.682427,24.43343 -0.728714,0.72872 -0.630517,0.72309 -12.20597,0.68408 l -10.687046,-0.036 -0.575631,-0.32964 c -0.3551,-0.20334 -0.68474,-0.53265 -0.859646,-0.85965 l -0.284013,-0.53 -0.03505,-22.74027 c -0.03802,-24.94955 -0.07704,-23.67 0.741279,-24.45393 0.77864,-0.74591 0.606711,-0.736 12.188449,-0.70755 l 10.646375,0.0261 0.588527,0.33064"
       stroke="none"
       fill="#fcf404"
       fill-rule="evenodd"
       style="stroke-width:0.330632" />
    <path
       id="path2"
       d="M 2.076304,0.14844066 C -0.18853086,0.76176457 -0.58033077,2.28499 0.94157219,4.5600748 1.4160303,5.2696129 2.4363632,7.0996657 3.2090521,8.6271889 3.9906682,10.171906 4.9776072,11.90343 5.4328885,12.528657 c 0.4506526,0.618283 1.5509985,2.54455 2.4453606,4.280373 0.9059339,1.757973 2.0281015,3.72061 2.5333089,4.430479 0.502231,0.70524 1.570175,2.571002 2.391797,4.178207 0.879484,1.720283 1.880971,3.459742 2.457264,4.26814 2.135888,2.994211 4.726726,8.632162 4.726726,10.285326 0,1.633657 -2.580588,7.277559 -4.658946,10.190434 -0.53232,0.745578 -1.602578,2.604396 -2.471481,4.291284 -0.842453,1.636632 -1.802941,3.362535 -2.134235,3.835341 -1.2355745,1.764256 -1.5179349,2.247642 -2.9350271,5.025619 -0.8117041,1.591336 -1.8297224,3.367495 -2.311785,4.033721 -0.4972718,0.687055 -1.4855334,2.420562 -2.3369129,4.099847 -0.811373,1.600261 -1.8323671,3.436929 -2.26913317,4.081331 -1.19656021,1.765907 -1.16052123,2.900308 0.12001971,3.777808 0.94031976,0.644403 1.30599966,0.67119 9.13505446,0.67119 10.235401,0 9.806239,-0.18251 9.959322,4.236729 0.143164,4.129935 0.347495,4.293592 5.359889,4.293592 5.210442,0 5.412129,-0.15837 5.537108,-4.349805 0.07968,-2.660928 0.266491,-3.213415 1.281202,-3.78376 l 0.587866,-0.330632 8.001315,-0.06614 8.001314,-0.06614 0.697305,-0.31509 C 51.366056,78.77588 51.548565,77.541955 50.160898,75.461946 49.755543,74.854239 48.778522,73.07742 47.989632,71.513525 47.122383,69.794563 46.181733,68.148677 45.611392,67.35152 45.043363,66.557341 44.090811,64.891281 43.216948,63.163395 42.304732,61.359138 41.380283,59.749948 40.726621,58.827482 40.070646,57.90171 39.123052,56.250861 38.158265,54.352698 37.20935,52.486296 36.299779,50.898597 35.760846,50.16889 33.91823,47.673605 31.064868,41.477214 31.064868,39.971182 c 0,-1.528846 2.863612,-7.714326 4.766404,-10.295576 0.590841,-0.801123 1.417753,-2.245989 2.364686,-4.130927 0.801123,-1.594311 1.668373,-3.196228 1.927258,-3.559924 1.307323,-1.835673 2.004297,-3.013387 3.287813,-5.554631 0.843775,-1.670357 1.720283,-3.199204 2.199039,-3.835341 C 46.094775,11.95038 46.981865,10.39905 47.87821,8.6271889 48.687599,7.0269261 49.693714,5.2077845 50.113949,4.5845416 51.59353,2.38947 51.427884,1.2177072 49.512527,0.33491757 L 48.852915,0.03073537 25.774743,0.00560727 C 7.4705785,-0.01423069 2.5682857,0.01519563 2.076304,0.14844066 M 14.550089,143.25857 c -0.318069,0.10051 -0.75186,0.34848 -0.963795,0.55149 -0.818316,0.78393 -0.779301,-0.49562 -0.741278,24.45393 l 0.03505,22.74027 0.284014,0.53 c 0.174904,0.327 0.504546,0.65632 0.859645,0.85965 l 0.575632,0.32964 10.687044,0.036 c 11.575456,0.0391 11.477259,0.0447 12.205973,-0.68407 0.747561,-0.74756 0.719788,0.24763 0.682427,-24.43344 -0.03901,-26.05916 0.0853,-23.48023 -1.16515,-24.18282 l -0.588526,-0.33062 -10.646378,-0.0261 c -8.733998,-0.0215 -10.750196,0.007 -11.224654,0.15606"
       stroke="none"
       fill="#040404"
       fill-rule="evenodd"
       style="stroke-width:0.330632" />
  </g>
</svg>
