<?xml version="1.0" encoding="UTF-8" standalone="no"?>
<svg
   xmlns:dc="http://purl.org/dc/elements/1.1/"
   xmlns:cc="http://creativecommons.org/ns#"
   xmlns:rdf="http://www.w3.org/1999/02/22-rdf-syntax-ns#"
   xmlns:svg="http://www.w3.org/2000/svg"
   xmlns="http://www.w3.org/2000/svg"
   xmlns:sodipodi="http://sodipodi.sourceforge.net/DTD/sodipodi-0.dtd"
   xmlns:inkscape="http://www.inkscape.org/namespaces/inkscape"
   id="svg"
   version="1.1"
   width="50"
   height="216"
   viewBox="0 0 50 216.00001"
   sodipodi:docname="52.svg"
   inkscape:version="1.0.1 (3bc2e813f5, 2020-09-07)">
  <metadata
     id="metadata11">
    <rdf:RDF>
      <cc:Work
         rdf:about="">
        <dc:format>image/svg+xml</dc:format>
        <dc:type
           rdf:resource="http://purl.org/dc/dcmitype/StillImage" />
        <dc:title></dc:title>
      </cc:Work>
    </rdf:RDF>
  </metadata>
  <defs
     id="defs9" />
  <sodipodi:namedview
     pagecolor="#ffffff"
     bordercolor="#666666"
     borderopacity="1"
     objecttolerance="10"
     gridtolerance="10"
     guidetolerance="10"
     inkscape:pageopacity="0"
     inkscape:pageshadow="2"
     inkscape:window-width="1920"
     inkscape:window-height="1002"
     id="namedview7"
     showgrid="false"
     inkscape:zoom="1.5284864"
     inkscape:cx="141.35054"
     inkscape:cy="159.5375"
     inkscape:window-x="-8"
     inkscape:window-y="-8"
     inkscape:window-maximized="1"
     inkscape:current-layer="svgg" />
  <g
     id="svgg"
     transform="translate(2)">
    <path
       id="path0"
       d="M 0.55874181,0.04919551 C 0.69293134,0.0752143 0.88759047,0.07425064 0.99070194,0.04702727 1.0940544,0.02004482 0.98419724,-0.00115568 0.74641441,4.8895904e-5 0.50887245,0.00125347 0.42431137,0.02341763 0.55874181,0.04919551 m 43.10519219,0 C 43.798365,0.0752143 43.992783,0.07425064 44.096136,0.04702727 44.199488,0.02004482 44.08939,-0.00115568 43.851848,4.8895904e-5 43.614065,0.00125347 43.529745,0.02341763 43.663934,0.04919551 M -0.73906605,0.35877099 c -0.41870985,0.22718263 -0.37149055,0.30572084 0.0539649,0.0893794 0.40738687,-0.2071867 0.47942039,-0.2609107 0.34209897,-0.25488783 -0.0544467,0.002409 -0.23272367,0.0768518 -0.39606388,0.16550845 M 44.887059,0.22915884 c 0.111302,0.0994978 0.747317,0.39172742 0.747317,0.34354447 0,-0.0623969 -0.598914,-0.38377724 -0.714794,-0.38377724 -0.04264,0 -0.0571,0.0180686 -0.03252,0.0402328 M -1.5682947,1.0236958 c -0.1826134,0.2216415 -0.3319805,0.4512333 -0.3319805,0.5102574 0,0.059024 0.080466,-0.012768 0.1787587,-0.1597265 0.098534,-0.1467171 0.277052,-0.37630883 0.3970276,-0.51001652 0.1199755,-0.1337077 0.1888771,-0.243083 0.1529808,-0.243083 -0.035655,0 -0.2144141,0.1811679 -0.3967866,0.40256862 M 45.968525,0.88492885 c 0.09492,0.12214375 0.25272,0.34258075 0.351254,0.48929785 0.09829,0.1469581 0.178759,0.2158597 0.178759,0.1532218 0,-0.062879 -0.1578,-0.2830748 -0.351013,-0.4895388 -0.193214,-0.20646393 -0.273679,-0.27536555 -0.179,-0.15298085 M -1.999773,2.7602094 c -0.00964,0.1561128 0.2903023,0.7776729 0.3751043,0.7776729 0.029632,0 -0.013491,-0.1337077 -0.096125,-0.2970479 -0.082393,-0.1633402 -0.1770724,-0.3700451 -0.2103186,-0.4591836 -0.040474,-0.1086525 -0.06312,-0.11588 -0.068661,-0.021441 m 48.3713493,0.350531 c -0.0995,0.2351328 -0.161413,0.4271419 -0.137804,0.4271419 0.07926,0 0.386668,-0.6613111 0.352459,-0.7583997 -0.01855,-0.05276 -0.114917,0.096366 -0.214655,0.3312578 m -47.24459096,1.453439 c 0.43292384,0.6015642 0.55265848,0.7128668 0.3115028,0.2900614 C -0.67401936,4.656932 -0.86000556,4.413849 -0.97492191,4.3138692 -1.0965839,4.2081076 -1.053942,4.3129055 -0.87301496,4.5641798 M 45.385752,4.537197 c -0.293193,0.3965457 -0.490743,0.7379219 -0.328367,0.5673543 0.200442,-0.2105595 0.69528,-0.9183674 0.642038,-0.9183674 -0.02963,0 -0.170808,0.1580404 -0.313671,0.3510131 M -0.04137688,5.9653397 c 0.18959992,0.3842591 0.36233581,0.6808252 0.38425906,0.6591428 0.048183,-0.048424 -0.60493699,-1.3580365 -0.67721142,-1.3580365 -0.0284279,0 0.10359335,0.3143938 0.29295236,0.6988937 M 44.391979,6.238778 c -0.26862,0.5348308 -0.464002,0.972332 -0.434369,0.972332 0.02987,0 0.27392,-0.4375012 0.542299,-0.972332 0.26862,-0.5348308 0.464242,-0.972332 0.434369,-0.972332 -0.02963,0 -0.273679,0.4375012 -0.542299,0.972332 m -1.219993,2.4342028 c -0.189359,0.3842591 -0.32138,0.6988938 -0.292952,0.6988938 0.07228,0 0.725635,-1.3096127 0.677212,-1.3580366 -0.02168,-0.021682 -0.19466,0.2748838 -0.38426,0.6591428 M 36.214609,20.580193 c -0.190323,0.221642 -0.332944,0.459184 -0.275848,0.459184 0.02192,0 0.147922,-0.145754 0.279703,-0.324031 0.260428,-0.352217 0.257778,-0.43991 -0.0039,-0.135153 M 9.7889093,23.359868 c 0.1293712,0.26597 0.2536837,0.465206 0.2763297,0.44256 0.0489,-0.0489 -0.3876323,-0.926558 -0.4608704,-0.926558 -0.027705,0 0.05541,0.217787 0.1845407,0.483998 m 1.2746797,2.541168 c 0.238988,0.475325 0.458943,0.864161 0.488575,0.864161 0.02987,0 -0.141416,-0.388836 -0.380404,-0.864161 -0.238987,-0.475566 -0.458943,-0.864402 -0.488575,-0.864402 -0.02987,0 0.141417,0.388836 0.380404,0.864402 m 1.994775,2.997702 c 0.166472,0.25272 0.323307,0.459184 0.348362,0.459184 0.07806,0 -0.335594,-0.657457 -0.49797,-0.791405 -0.08432,-0.06987 -0.01711,0.07974 0.149608,0.332221 m 1.376828,2.56237 c 0.189599,0.384259 0.362335,0.681066 0.384259,0.659143 0.04818,-0.04818 -0.604937,-1.357796 -0.677453,-1.357796 -0.02819,0 0.103594,0.314394 0.293194,0.698653 m 15.636813,-0.03951 c -0.182854,0.362577 -0.314876,0.67697 -0.293193,0.698653 0.02192,0.02192 0.194659,-0.274884 0.384259,-0.659143 0.1896,-0.384259 0.32138,-0.698653 0.293193,-0.698653 -0.02843,0 -0.201164,0.296566 -0.384259,0.659143 m -1.026297,2.052353 c -0.153463,0.30307 -0.260911,0.56904 -0.238746,0.591205 0.02216,0.02216 0.170567,-0.225738 0.330053,-0.550973 0.159485,-0.324994 0.266933,-0.591204 0.238987,-0.591204 -0.02819,0 -0.17659,0.248142 -0.330294,0.550972 m -13.530977,0.148885 c 0.129371,0.266211 0.253683,0.465447 0.276329,0.442801 0.04891,-0.04891 -0.387632,-0.926558 -0.46087,-0.926558 -0.0277,0 0.05541,0.217787 0.184541,0.483757 m 0.480625,2.108968 c -0.04192,0.210078 -0.189359,0.400159 -0.41871,0.53989 -0.194419,0.11853 -0.289098,0.21586 -0.210319,0.2161 0.224774,7.23e-4 0.774782,-0.606623 0.774782,-0.855488 0,-0.32403 -0.07059,-0.275606 -0.145753,0.0995 m 12.465893,-0.104798 c -0.0094,0.367395 0.679139,0.974018 1.097848,0.966791 0.07709,-0.0012 -0.06794,-0.09685 -0.322584,-0.212487 -0.318249,-0.144308 -0.510981,-0.320657 -0.616983,-0.564704 -0.08456,-0.195141 -0.155872,-0.280425 -0.158281,-0.1896 M 5.6350569,36.677153 c 1.6784531,0.01687 4.4251221,0.01687 6.1038161,0 1.678454,-0.01662 0.305239,-0.03036 -3.0519079,-0.03036 -3.3571473,0 -4.7306024,0.01373 -3.0519082,0.03036 m 27.8263781,0 c 2.009711,0.01662 5.266879,0.01662 7.238284,0 1.971406,-0.01638 0.326921,-0.02987 -3.653954,-0.02987 -3.981117,0 -5.594041,0.01349 -3.58433,0.02987 M 0.29903569,37.128146 c -0.18646803,0.113712 -0.37727253,0.271511 -0.42352816,0.350531 -0.0501103,0.08504 2.4091e-4,0.07203 0.12310744,-0.03156 0.1141936,-0.09661 0.35342197,-0.25272 0.5316989,-0.346917 0.17827693,-0.0942 0.27560649,-0.172977 0.21610054,-0.175145 -0.059265,-0.0022 -0.26066977,0.08914 -0.44737872,0.203091 m 46.84611731,0.49508 c 0.430274,0.518207 0.466411,0.551695 0.349085,0.322103 -0.06119,-0.119494 -0.225255,-0.31343 -0.364504,-0.431238 -0.244046,-0.206464 -0.243565,-0.202609 0.01542,0.109135 m -48.04225914,1.40381 c 7.2275e-4,0.297048 0.0216823,0.405701 0.0464965,0.241638 0.0248142,-0.164304 0.0243324,-0.407387 -0.001445,-0.540372 -0.025537,-0.132744 -0.0460147,0.0017 -0.0450511,0.298734 m 0.9884733,2.034044 c 0.1664721,0.218268 0.32451219,0.396545 0.35125373,0.396545 0.0749245,0 -0.39269107,-0.631919 -0.53097615,-0.717203 -0.06745613,-0.04168 0.01349123,0.10263 0.17972242,0.320658 m 1.19517814,2.017179 c 0.2686199,0.534831 0.5126666,0.972332 0.5422991,0.972332 0.029874,0 -0.1655084,-0.437501 -0.4341284,-0.972332 -0.26862,-0.534831 -0.51266657,-0.972332 -0.54229909,-0.972332 -0.0298734,0 0.16550839,0.437501 0.43412839,0.972332 m 44.1317303,0.10793 c -0.238988,0.475325 -0.410278,0.864402 -0.380405,0.864402 0.02963,0 0.249588,-0.389077 0.488576,-0.864402 0.238987,-0.475325 0.410036,-0.864162 0.380404,-0.864162 -0.02963,0 -0.249588,0.388837 -0.488575,0.864162 M 1.880882,44.196826 c 0,0.117567 0.9684774,2.014289 1.0284652,2.014289 0.048183,0 -0.8856027,-1.933582 -0.9870278,-2.04344 -0.022887,-0.02481 -0.041437,-0.0118 -0.041437,0.02915 m 42.5339836,0.992328 c -0.27922,0.562054 -0.483998,1.021961 -0.455329,1.021961 0.07179,0 1.049425,-1.957674 1.001723,-2.005616 -0.0212,-0.02096 -0.266933,0.421601 -0.546394,0.983655 m -38.4827608,5.99155 c 0.2093549,0.41606 0.4049777,0.756232 0.4348511,0.756232 0.029632,0 -0.1173255,-0.340172 -0.3269213,-0.756232 -0.209355,-0.415819 -0.4049777,-0.756231 -0.4348512,-0.756231 -0.029632,0 0.1173255,0.340412 0.3269214,0.756231 m 34.7815868,0.226219 c -0.09516,0.183818 -0.153703,0.353181 -0.130094,0.376791 0.02337,0.02337 0.123349,-0.126962 0.222124,-0.334149 0.222123,-0.465929 0.145271,-0.501584 -0.09203,-0.04264 M 6.7423011,52.732436 c 0,0.117085 0.644688,1.365264 0.7053985,1.365264 0.029632,0 -0.098293,-0.303793 -0.2845204,-0.675284 C 6.8102391,52.718463 6.7423011,52.60692 6.7423011,52.732436 m 0.8641613,1.730732 c 0,0.11588 0.3216212,0.714794 0.3837772,0.714794 0.029633,0 -0.02626,-0.15804 -0.1245529,-0.351013 C 7.6652456,54.432572 7.6064624,54.35042 7.6064624,54.463168 m 2.4308296,3.847891 c 0.09227,0.178277 0.192009,0.32403 0.221642,0.32403 0.02963,0 -0.02144,-0.145753 -0.113471,-0.32403 -0.09227,-0.178277 -0.1920089,-0.324271 -0.2216414,-0.324271 -0.029874,0 0.021441,0.145994 0.1134704,0.324271 m 26.684442,0 c -0.09227,0.178277 -0.143344,0.32403 -0.113711,0.32403 0.02963,0 0.129371,-0.145753 0.221641,-0.32403 0.09227,-0.178277 0.143345,-0.324271 0.113471,-0.324271 -0.02963,0 -0.129371,0.145994 -0.221401,0.324271 m -22.693929,7.057598 c 0.166472,0.218269 0.324271,0.396546 0.351012,0.396546 0.07517,0 -0.392691,-0.63192 -0.530976,-0.717445 -0.06746,-0.04168 0.01349,0.102871 0.179964,0.320899 m 0.709012,1.152777 c 0.12118,0.237783 0.244769,0.432201 0.274402,0.432201 0.02987,0 -0.04505,-0.194418 -0.166472,-0.432201 -0.12118,-0.237542 -0.24477,-0.43196 -0.274402,-0.43196 -0.02963,0 0.04529,0.194418 0.166472,0.43196 m 16.523861,1.523063 c -0.124312,0.243324 -0.207427,0.461111 -0.184781,0.483757 0.02265,0.02265 0.146958,-0.17659 0.276329,-0.44256 0.294398,-0.606142 0.214655,-0.641797 -0.09155,-0.0412 m -15.108487,1.231797 c 0,0.05951 0.238265,0.570005 0.52929,1.134468 0.291025,0.564463 0.529049,0.977632 0.529049,0.918367 0,-0.05951 -0.238024,-0.570004 -0.529049,-1.134467 -0.291025,-0.564464 -0.52929,-0.977633 -0.52929,-0.918368 M 30.072003,70.4216 c -0.182854,0.362577 -0.314876,0.676971 -0.293193,0.698894 0.02192,0.02168 0.194659,-0.274884 0.384259,-0.659143 0.1896,-0.3845 0.32138,-0.698894 0.293193,-0.698894 -0.02843,0 -0.201164,0.296567 -0.384259,0.659143 m -11.855897,7.065308 c -0.03565,4.936343 -0.07468,4.993681 -3.479291,5.128111 -1.998629,0.07902 -2.290859,0.149609 -2.778229,0.67143 -0.611442,0.654806 -0.57145,-1.949723 -0.5635,36.806241 0.006,29.86957 0.03036,35.53613 0.151295,35.1485 0.209114,-0.66926 0.433887,-0.96221 0.950408,-1.23806 l 0.457497,-0.24453 h 10.479311 10.479069 l 0.457738,0.24453 c 0.516281,0.27585 0.741054,0.5688 0.950168,1.23806 0.120939,0.38763 0.145272,-5.27893 0.151536,-35.1485 0.0077,-38.755964 0.0477,-36.151435 -0.563741,-36.806241 -0.487371,-0.521821 -0.7796,-0.592409 -2.778229,-0.67143 -3.404608,-0.13443 -3.443636,-0.191768 -3.479291,-5.128111 l -0.02313,-3.241027 -0.0583,3.457127 c -0.08625,5.105707 0.171772,4.861419 -5.135821,4.861419 -5.307834,0 -5.049814,0.244288 -5.136062,-4.861419 l -0.05806,-3.457127 -0.02337,3.241027 M 11.332932,184.54823 c 0,15.68644 0.01253,22.08755 0.02771,14.22457 0.01542,-7.86273 0.01542,-20.69723 0,-28.52069 -0.01518,-7.82371 -0.02771,-1.39032 -0.02771,14.29612 m 24.199406,0 c 0,15.68644 0.01253,22.08755 0.02795,14.22457 0.01518,-7.86273 0.01518,-20.69723 0,-28.52069 -0.01542,-7.82371 -0.02795,-1.39032 -0.02795,14.29612 m -24.028116,29.7696 c -0.0046,0.0925 0.06722,0.26259 0.159486,0.37799 0.165508,0.20647 0.166472,0.20622 0.06866,-0.006 -0.05469,-0.11877 -0.126481,-0.2891 -0.159486,-0.37824 -0.0518,-0.13997 -0.06119,-0.13901 -0.06866,0.007 m 23.677826,0.23657 c -0.116121,0.31753 -0.11323,0.33102 0.03036,0.14142 0.137322,-0.18141 0.21851,-0.49243 0.128408,-0.49243 -0.01662,0 -0.08817,0.15804 -0.158763,0.35101 m -21.875542,1.12989 c 0.13443,0.0258 0.328848,0.0248 0.432201,-0.002 0.103352,-0.0272 -0.0067,-0.0482 -0.244288,-0.047 -0.237783,0.001 -0.322103,0.0231 -0.187913,0.0491 m 19.878359,0 c 0.134189,0.0258 0.328848,0.0248 0.43196,-0.002 0.103352,-0.0272 -0.0065,-0.0482 -0.244288,-0.047 -0.237542,10e-4 -0.322103,0.0231 -0.187672,0.0491"
       stroke="none"
       fill="#fcf404"
       fill-rule="evenodd"
       style="stroke-width:0.240915" />
    <path
       id="path2"
       d="M 0.42305664,0.09797726 C -2.0366832,0.41767116 -2.7326859,2.2050178 -1.1599943,4.1629323 -0.74248901,4.6823445 -0.18718047,5.6749134 0.73287303,7.5448938 2.2091987,10.546209 2.5223879,11.093086 3.3677579,12.144197 c 0.4235281,0.52664 1.0499065,1.63557 2.1145089,3.743093 1.1383223,2.253757 1.7189269,3.271863 2.346028,4.114583 0.6263784,0.841997 1.2084285,1.862512 2.3455462,4.112898 1.184337,2.343378 1.67773,3.202962 2.273754,3.959916 1.060506,1.347436 3.518319,6.188859 3.591798,7.075908 0.12648,1.525954 0.265729,1.49849 -7.9721108,1.563536 -6.7976511,0.05348 -6.8648663,0.05613 -7.37849657,0.293194 -1.89985383,0.87717 -2.09812673,2.078853 -0.65432452,3.966421 0.36498588,0.477252 1.16915939,1.919127 2.14317779,3.842831 1.105317,2.18317 1.73555,3.298846 2.1665465,3.835122 0.7918869,0.985583 1.1747004,1.651471 2.6782495,4.659533 0.9084896,1.818183 1.4582571,2.774615 2.0176612,3.511092 0.5757863,0.757917 1.1481999,1.764218 2.2773669,4.004003 1.206983,2.39397 1.660144,3.18152 2.268454,3.943052 0.752618,0.941977 4.057727,7.297308 4.427531,8.513928 0.08601,0.282352 0.154186,1.724227 0.19731,4.159393 0.0954,5.420824 -0.194419,5.131485 5.143288,5.131485 3.711292,0 3.859937,-0.01518 4.370917,-0.44497 0.700098,-0.589036 0.700098,-0.588554 0.772372,-4.686515 0.04312,-2.446971 0.111062,-3.875595 0.197551,-4.159393 0.351012,-1.148923 3.599748,-7.380183 4.399344,-8.43804 0.616742,-0.815978 1.164823,-1.776987 2.315432,-4.060377 1.196383,-2.374215 1.663517,-3.188025 2.263876,-3.943293 0.605178,-0.761291 1.056652,-1.55101 2.257131,-3.946907 1.551973,-3.098164 1.650507,-3.268009 2.521173,-4.350921 0.327644,-0.407386 1.088453,-1.77 2.048016,-3.667445 1.094476,-2.164138 1.731455,-3.288969 2.249903,-3.972685 1.150127,-1.51704 1.218306,-2.322177 0.27657,-3.264154 -0.89813,-0.897889 -0.480625,-0.857656 -9.573953,-0.922222 -8.836512,-0.06288 -8.483331,-0.03469 -8.925169,-0.709012 -0.491948,-0.750931 1.479698,-5.285911 3.438336,-7.908268 0.633846,-0.848502 1.194214,-1.831916 2.342414,-4.110007 1.19301,-2.367228 1.66978,-3.198625 2.275681,-3.967143 0.607828,-0.770687 1.093271,-1.618466 2.342896,-4.08977 0.880784,-1.742054 1.775301,-3.362688 2.027298,-3.673227 0.803932,-0.990401 1.090139,-1.48283 2.584292,-4.4448767 1.015456,-2.0133248 1.654121,-3.1446605 2.061508,-3.652027 C 47.204849,2.1630987 46.486682,0.42586226 43.916844,0.09219531 42.942103,-0.03428494 1.3985205,-0.02898482 0.42305664,0.09797726 M 13.026513,153.8134 c -0.665648,0.13275 -1.104113,0.45895 -1.394174,1.03714 l -0.270065,0.53821 v 29.33113 29.33113 l 0.270065,0.53796 c 0.213932,0.42618 0.381609,0.59434 0.807305,0.8102 l 0.53724,0.27247 h 10.377162 10.376922 l 0.53724,-0.27247 c 0.425696,-0.21586 0.593373,-0.38402 0.807305,-0.8102 l 0.270066,-0.53796 v -29.33113 -29.33113 l -0.270066,-0.54013 c -0.199477,-0.39872 -0.397268,-0.61072 -0.756231,-0.8102 l -0.486166,-0.27007 -10.209004,-0.0161 c -5.615241,-0.009 -10.383908,0.0186 -10.597599,0.0612"
       stroke="none"
       fill="#040404"
       fill-rule="evenodd"
       style="stroke-width:0.240915" />
  </g>
</svg>
