<?xml version="1.0" encoding="UTF-8" standalone="no"?>
<svg
   xmlns:dc="http://purl.org/dc/elements/1.1/"
   xmlns:cc="http://creativecommons.org/ns#"
   xmlns:rdf="http://www.w3.org/1999/02/22-rdf-syntax-ns#"
   xmlns:svg="http://www.w3.org/2000/svg"
   xmlns="http://www.w3.org/2000/svg"
   xmlns:sodipodi="http://sodipodi.sourceforge.net/DTD/sodipodi-0.dtd"
   xmlns:inkscape="http://www.inkscape.org/namespaces/inkscape"
   id="Layer_1"
   xml:space="preserve"
   viewBox="0 0 338.00001 60.999999"
   version="1.1"
   y="0px"
   x="0px"
   sodipodi:docname="135.svg"
   width="338"
   height="61"
   inkscape:version="1.0.1 (3bc2e813f5, 2020-09-07)"><defs
   id="defs850" /><sodipodi:namedview
   pagecolor="#ffffff"
   bordercolor="#666666"
   borderopacity="1"
   objecttolerance="10"
   gridtolerance="10"
   guidetolerance="10"
   inkscape:pageopacity="0"
   inkscape:pageshadow="2"
   inkscape:window-width="1920"
   inkscape:window-height="1002"
   id="namedview848"
   showgrid="false"
   inkscape:zoom="0.88011341"
   inkscape:cx="-91.778498"
   inkscape:cy="324.90163"
   inkscape:window-x="-8"
   inkscape:window-y="-8"
   inkscape:window-maximized="1"
   inkscape:current-layer="Layer_1" />
<path
   d="m 118.4115,53.444561 c 2.05408,-0.188721 2.00976,1.290344 2.33796,2.473597 3.47817,-0.90092 7.65895,-5.180849 4.67308,-7.423038 -4.69383,0.396914 -4.84944,4.397506 -9.34805,4.949441 -3.18487,0.292069 -0.11412,-1.66554 0.77806,-1.856508 9.11699,-5.752255 16.1667,-13.146086 24.93097,-19.17693 -1.72588,-2.960378 -2.63786,-6.568549 -4.67497,-9.278797 C 92.883546,22.496515 46.660101,23.416906 0,22.51374 1.7183369,19.752567 9.5989189,21.886167 10.127057,18.182886 9.1896109,15.077222 2.0484229,18.519888 0.7790039,16.945713 c 2.479422,-3.194782 7.281711,-1.306072 10.9051191,-1.236424 39.024726,0.733916 86.577003,-1.661796 127.762387,0 3.25654,-3.806629 6.49044,-7.6312311 10.90512,-10.5159711 7.31283,-0.444843 19.18274,-3.504824 27.26704,0 5.18896,-3.48685 16.64296,-7.3870902 27.26515,-3.712267 3.94312,1.362987 6.0387,5.685603 10.128,5.568027 1.35618,1.809328 2.45019,3.8268491 3.89502,5.5672781 38.9125,-2.365756 83.86086,2.291616 118.41621,-0.617837 2.43699,2.245933 -1.52783,3.367776 -2.33795,4.948691 0.779,1.030479 3.60266,0.437355 3.89502,1.856509 -3.40461,2.825577 -9.50555,0.622331 -13.24402,0.618586 -38.33626,-0.04493 -67.05473,0.986294 -105.16559,0 0.33197,2.827824 1.1836,5.245254 0.779,8.658713 40.44693,0.286077 72.74355,0.810303 116.07732,0 0.43665,2.409941 -2.46339,2.168797 -3.11696,3.712268 0.33291,2.209237 5.69258,0.427618 4.67497,3.712267 -35.92852,-0.760876 -74.8976,0.431363 -118.41622,0 -3.82429,2.262409 -2.67087,5.059528 -5.45397,7.422289 -8.71334,7.398324 -26.60687,2.648838 -33.49813,-3.092183 -11.16353,0.546692 -23.40126,2.72897 -31.94201,-1.237173 -4.32225,3.162579 -10.642,6.186613 -14.02114,10.51597 -1.81359,2.323818 -5.39456,5.702079 -8.56999,8.040875 -2.18612,1.61162 -5.2795,4.479135 -8.56905,3.712268 -0.18862,-2.504302 2.27288,-3.520551 -0.009,-7.423038 z M 324.84767,17.565048 c 2.7482,1.575673 6.30276,-0.482288 8.56999,-1.236424 V 13.85278 c -4.77588,-0.286826 -8.77653,0.04044 -8.56999,3.712268 z m 0.779,15.464662 c 3.2688,-0.292069 6.52723,-0.590878 7.01198,-3.092933 -3.83749,-0.159514 -7.57218,-0.238897 -7.01198,3.092933 z m -7.7891,0 c 3.45271,0.06216 5.82839,-0.733168 6.23109,-3.092933 -3.67056,-0.233655 -6.6885,0.05018 -6.23109,3.092933 z m -3.89502,-15.464662 c 2.59354,0.587882 9.39143,-0.205197 9.34805,-3.712268 -4.84096,-0.131056 -9.52818,-0.14229 -9.34805,3.712268 z m -6.23298,15.464662 c 2.86609,1.165279 8.14937,-0.332509 8.56999,-3.092933 -4.39392,-0.18947 -8.15408,0.124317 -8.56999,3.092933 z M 303.0346,17.565048 c 3.71866,0.477045 5.01354,-0.967571 8.56999,-0.618586 -0.64414,-1.748668 1.09778,-1.603383 0.77901,-3.093682 -4.49578,0.14229 -10.21383,-0.686736 -9.349,3.712268 z m -3.89314,15.464662 c 1.74663,0.452332 7.33642,-0.543697 7.78911,-3.092933 -4.33074,-0.34524 -7.42884,0.286078 -7.78911,3.092933 z m -9.34899,-15.464662 c 2.98681,0.334756 11.85294,0.471803 11.68506,-3.712268 -6.00286,-0.435856 -10.86833,0.03071 -11.68506,3.712268 z m 0,15.464662 c 3.5291,-0.292069 7.20909,-0.461319 8.56999,-2.475844 -2.61994,-1.142063 -9.69417,-1.325542 -8.56999,2.475844 z M 278.88641,14.471367 c 0.31877,1.490299 -1.4222,1.345013 -0.77901,3.093681 4.7325,-1.014003 10.01577,1.045456 10.90606,-3.712268 -1.97769,-0.802065 -7.24493,0.177488 -10.12705,0.618587 z m 0,18.558343 c 1.83717,1.149552 5.21442,-0.44035 7.7891,-0.618587 -0.17353,-1.169772 0.87803,-1.364485 0.779,-2.474346 -4.51464,-0.286077 -8.2748,0.02621 -8.5681,3.092933 z m -9.349,0 c 4.76834,0.280835 7.64952,-0.936118 9.349,-3.092933 -4.26378,0.119823 -9.84979,-0.809554 -9.349,3.092933 z m -3.11696,-15.464662 c 3.55645,0.348985 4.85133,-1.09713 8.56999,-0.618586 0.3348,-1.177262 1.67779,-1.553207 1.55801,-3.093682 -3.7677,-0.562419 -10.11668,-1.425894 -10.128,3.712268 z m -7.0101,15.464662 c 3.16129,1.220697 7.13553,-1.569682 9.34711,-3.092933 -4.23548,0.140792 -10.09593,-1.005764 -9.34711,3.092933 z m -4.67402,-18.558343 c 0.64414,1.748667 -1.09778,1.603382 -0.77901,3.093681 2.72275,0.314535 10.76743,0.03145 10.90512,-3.712268 -3.01605,-1.628095 -7.12704,0.271849 -10.12611,0.618587 z m -5.45398,17.939756 c 2.95852,1.582413 6.05379,-1.121843 9.349,-1.237173 v -1.855759 c -4.56085,-0.11533 -8.5615,0.212686 -9.349,3.092932 z m -7.79004,-14.846075 c 5.46058,0.006 10.50713,-0.316033 11.68507,-3.712268 -4.45995,-1.505277 -12.38297,-0.895677 -11.68507,3.712268 z m -1.55612,16.083997 c 1.89281,-1.795099 7.15156,-0.919642 7.01009,-4.330854 -4.48257,-0.655282 -9.57534,1.446114 -7.01009,4.330854 z M 229.80724,17.565048 c 3.25372,0.545944 10.14121,-0.888188 10.90701,-4.330854 -5.40399,-0.242642 -12.84509,0.754136 -10.90229,4.330854 z m -0.78277,16.083997 c 2.8859,-1.214706 8.29743,-0.422376 8.56999,-3.712268 -3.48949,-1.477568 -9.26129,-0.116078 -8.57282,3.712268 z M 219.6783,33.02971 c 4.98902,0.454578 7.55521,-1.011756 9.34711,-3.092933 -3.37631,-1.396687 -9.95918,-0.677 -9.34617,3.092933 z m 0.78278,-15.464662 c 3.13205,-0.81255 7.50522,-0.638058 7.7891,-3.712268 -3.28201,-1.495541 -9.11982,-0.435856 -7.79005,3.712268 z m -5.46058,3.092932 c -0.39044,2.989585 2.42944,3.431433 2.33702,6.185116 -1.48634,-0.263611 -1.40995,-1.766641 -3.89503,-1.236424 -1.33072,3.876276 3.7479,3.347556 6.23298,2.474346 0.73562,-3.928698 1.63157,-7.787 -4.6778,-7.423038 z m -4.66837,-3.092932 c 3.48383,-1.151799 8.88499,-0.780348 9.349,-4.330854 -5.28139,-0.277091 -10.03463,-0.132554 -9.34617,4.330854 z m -1.55612,11.753143 c 0.12732,1.957609 -2.06917,2.066947 -1.55801,4.330854 5.85668,0.113083 9.59704,-1.452105 12.46502,-3.712268 -2.3389,-1.243913 -7.35622,-0.348984 -10.91172,-0.618586 z m -0.78278,-18.558343 c -0.39233,2.463861 7.32416,2.651085 7.79099,0.618586 -1.90507,-0.708453 -5.58318,-2.0609561 -7.79004,-0.618586 z m 6.23393,28.454978 c 0.0424,-0.789335 0.99874,-0.856735 0.779,-1.855011 -1.92393,-0.96158 -2.29174,2.100648 -0.78278,1.855011 z M 202.54209,8.2847529 c 3.76959,-0.495019 9.41218,0.742903 10.90701,0 -1.80133,-2.047476 -10.00634,-4.288916 -10.91173,0 z M 157.35795,23.133075 c 3.86296,0.483786 7.2902,0.980302 10.12517,-0.618586 -1.14116,-3.8935 -10.00634,-3.897245 -10.12894,0.618586 z m 8.56339,0.617089 c -0.66395,3.004563 1.8117,3.512313 3.89502,4.330854 1.35619,-1.604131 3.53287,-2.556724 4.67497,-4.330854 0.18674,0.883695 1.28262,1.044707 1.55801,1.856508 -1.57216,1.63858 -4.90226,1.881222 -4.67497,4.947943 2.93588,1.728447 6.37161,-0.42687 8.56999,-1.236424 2.02485,0.247884 2.34833,1.845275 4.67308,1.855759 6.85732,-2.615138 17.76621,-2.264655 26.4871,-3.092932 0.10468,-3.288394 1.86829,-6.509387 -0.77901,-8.658713 -10.98811,0.651538 -19.95986,-3.349803 -30.38117,-4.94944 -5.53602,2.39646 -7.35621,7.759291 -14.01453,9.277299 z m 40.51577,16.702583 c -9.15,1.021492 -13.51091,-3.652356 -21.81306,-4.947194 0.58189,1.903689 -2.13802,1.187746 -1.55801,3.092933 2.6605,0.15577 3.74412,1.56369 7.01198,1.237173 -0.24521,0.836514 -1.10909,1.180257 -0.779,2.473597 4.36846,-0.581891 5.00882,1.795848 8.56999,1.856508 1.63817,-0.554182 3.46213,-0.96158 4.67308,-1.856508 3.15563,4.06275 9.52441,-0.188722 9.349,-4.329357 -3.97991,-0.888937 -3.33859,1.891707 -5.46058,2.472848 z m -6.23392,-23.506285 c 4.69383,0.01647 9.33202,-0.01423 10.12612,-3.093682 -4.29113,-2.138092 -8.99722,-0.48079 -10.12895,3.093682 z m -6.23392,19.176929 c 1.05439,3.775175 15.47163,3.723501 15.58009,-0.618587 -4.35715,-1.133825 -10.00634,0.787837 -15.58009,0.618587 z m -5.45114,-1.237173 c 5.69635,-2.459368 12.40182,-0.390174 17.13809,-3.712268 v -1.855759 c -6.27164,1.410167 -16.66466,-0.447839 -17.13621,5.568027 z m -5.45115,-22.270611 c 2.69728,1.688756 5.84725,-0.394667 9.349,0 0.17541,1.169773 -0.87803,1.364485 -0.77901,2.474346 3.11979,1.181755 7.19495,0.14229 9.349,-1.237173 1.02798,-1.547215 -3.07924,-1.93664 -0.77901,-2.474346 0.56398,0.506253 5.39079,1.65955 4.67309,-0.618586 -5.98872,-4.2799301 -17.66435,-2.9476471 -21.80458,1.855759 z m 14.02397,-9.8973831 c -0.44987,1.294089 -1.93054,1.764394 -1.55801,3.712267 3.13582,-0.809554 8.08429,-0.178985 8.5681,-3.092932 -1.94279,-0.520481 -4.16852,-0.810303 -7.00726,-0.619335 z m -10.12895,4.94944 c 3.75545,-1.143561 7.17231,-2.554477 8.56999,-5.568027 -4.74381,-1.967344 -9.9969,2.720732 -8.57282,5.568027 z m -8.57282,3.7107701 c 3.6866,-1.4116651 7.53918,-5.9589501 7.0101,-8.6594611 -2.74444,2.262408 -9.96862,3.880768 -7.00727,8.6594611 z m 1.55612,19.795516 c -1.07985,0.998276 -2.2078,1.958358 -3.11601,3.093682 2.75763,-0.334756 1.9145,2.190515 4.67497,1.856508 1.16945,-0.927131 3.28106,-1.107614 3.89408,-2.475095 -1.96166,-0.715943 -2.6124,-2.46461 -5.46058,-2.475095 z M 169.82579,18.183634 c 4.69572,-1.425894 4.92678,-6.39855 7.01198,-9.8981321 -4.7721,1.419154 -9.09152,4.9284721 -7.01669,9.8981321 z m -12.46784,16.083998 c -2.33796,-2.013028 -5.00317,0.94061 -5.45397,2.475843 2.48036,-0.297311 4.74381,-0.766867 5.45114,-2.475843 z m -0.78278,3.711518 c 3.76771,0.517486 5.50962,-0.574401 7.79005,-1.235675 1.09588,0.160264 0.88746,1.356247 1.55706,1.85576 1.78436,-0.39317 4.69949,-1.227438 6.23298,0 -0.56209,-1.890209 0.79692,-2.254171 0.779,-3.711519 -5.36154,-0.220175 -10.35811,-0.533962 -15.58008,0.618586 0.16976,1.167526 -0.87709,1.36149 -0.78278,2.472848 z m 8.57282,-29.0750611 c 2.30401,1.064178 6.34993,-0.888189 6.23204,-3.710771 -3.45176,0.145286 -5.56432,1.356248 -6.23392,3.710771 z M 157.35795,33.02971 c 3.77996,0.08687 11.74354,2.062454 14.02208,-0.618587 -3.4612,-4.174335 -12.26979,-6.181371 -14.02397,0.618587 z m -7.79004,-21.651276 c -2.78122,0.265109 -4.27415,1.553956 -5.45304,3.092933 2.09181,0.411143 4.14212,2.716238 6.23204,1.237173 -0.009,-1.643074 0.29236,-3.531785 -0.78278,-4.330106 z m 0.77334,5.568028 c 5.68032,0.232157 11.13241,0.646295 14.80014,2.475094 1.12984,-1.578668 4.26095,-1.566686 3.11696,-4.94944 -2.58128,-0.557926 -3.3782,3.435925 -4.67497,1.856508 -0.0792,-2.743948 4.04686,-2.149326 4.67497,-4.330854 -6.37538,-1.059685 -15.9196,0.48753 -17.91899,4.948692 z m 7.0167,-9.8973841 c -3.56777,-2.014525 -9.27826,1.712721 -6.23298,4.9479431 3.5838,-0.453081 4.06478,-3.3715211 6.23392,-4.9479431 z m 0.78278,3.0921831 c 3.14148,-1.0095091 5.94061,-2.2916151 7.7891,-4.3286071 -2.78216,-1.216953 -11.12864,0.692727 -7.79005,4.3286071 z m -7.0167,12.372479 c 4.07232,-0.06665 6.19997,-1.676025 7.79193,-3.712268 -3.60926,-0.649291 -8.64073,-1.122592 -10.12706,0.618587 3.48006,0.06291 0.61302,0.682991 2.3389,3.093681 z m -7.79005,0 c -1.757,1.337524 0.6432,2.108136 0,4.329356 2.2031,-0.106343 5.34363,0.532464 5.45115,-1.237173 -1.17888,-1.538228 -1.90507,-3.429934 -5.45115,-3.092183 z m 6.23393,6.185864 c -5.85103,0.551935 -8.36723,5.495385 -6.22921,10.51597 6.79224,-1.178759 2.74538,-8.285763 7.00915,-10.51597 0.0953,1.782368 -0.42345,4.050019 0.77901,4.949441 2.60485,-1.438625 5.0192,-3.026281 6.23298,-5.568776 -0.33481,-1.17801 -1.67967,-1.553206 -1.55801,-3.092932 -3.2075,0.486032 -3.99688,-0.948849 -7.01199,-0.618587 0.0755,1.74717 2.92363,2.627869 0.77335,4.330854 z m -6.23393,-11.753142 c -2.59165,2.254919 2.38229,5.332874 4.67214,3.712267 0.0566,-2.421923 -2.83874,-4.714288 -4.66836,-3.712267 z m -7.79004,27.83714 c 2.75575,-1.935892 6.28485,-3.258438 6.23109,-7.422289 -5.24366,-2.367254 -8.77087,3.692047 -6.23392,7.422289 z M 127.7539,21.277316 c 4.21945,-0.156519 7.70893,-0.889686 7.79193,-4.330854 -4.88529,-0.377443 -8.2616,0.450085 -7.79005,4.330854 z m 4.67779,21.031191 c -3.9384,0.601362 -5.60487,4.844595 -3.89596,8.042373 4.01763,-1.158539 5.13049,-4.236494 3.89502,-8.042373 z m -6.23392,-24.743459 c -2.1814,-2.245933 -7.43732,-0.374447 -7.01198,3.092932 3.69697,0.04943 7.43167,0.128061 7.0167,-3.092932 z m -15.58008,3.092932 c 3.10564,0.197708 5.75671,0.03295 7.01198,-1.236424 v -2.475094 c -4.05535,-0.122819 -7.79005,0.0075 -7.0167,3.711518 z m -10.12895,0.619336 c 3.30464,-0.469557 6.12169,-1.324794 8.56811,-2.475095 v -2.474346 c -3.79128,0.900171 -9.751704,0.08912 -8.56339,4.949441 z M 89.586449,20.65798 c 4.833407,0.126563 8.438897,-0.722682 10.127997,-3.092932 -3.74412,-1.497788 -10.496751,-0.662771 -10.12894,3.092932 z M 79.457506,19.420807 c 2.002211,2.615887 10.512787,1.366732 9.348053,-2.475094 -4.017626,0.113083 -9.204701,-0.71145 -9.346167,2.475094 z m -10.91172,-1.855759 v 2.474346 c 4.334508,1.601135 8.445501,-0.702463 10.128,-3.092932 -2.518089,-0.436606 -6.564008,-0.612596 -10.128943,0.618586 z m -12.458412,2.474346 c 4.705149,2.334303 9.823378,0.16925 11.685066,-3.092932 -5.300248,-0.08088 -10.977737,-0.468059 -11.685066,3.092932 z m -10.91172,0 c 3.175433,1.46933 10.246831,0.732418 10.126114,-2.474346 -3.121676,-1.186997 -10.45903,-1.067923 -10.128943,2.474346 z M 34.273364,20.65798 C 38.499417,20.09631 44.03544,20.5741 44.401365,16.945713 39.638687,17.0895 33.253868,15.932459 34.272421,20.65798 Z M 22.588298,20.039394 c 2.966064,2.599411 8.917054,0.08313 10.126114,-2.474346 -3.79128,-1.715716 -9.091528,0.01872 -10.128943,2.474346 z m -10.91172,0.618586 c 3.464023,-0.54819 8.081463,-0.181232 10.128,-1.856508 V 16.944964 C 16.7684,16.864084 11.468152,16.569019 11.675635,20.65798 Z"
   id="path843"
   style="stroke-width:0.840408" />
<metadata
   id="metadata845"><rdf:RDF><cc:Work><dc:format>image/svg+xml</dc:format><dc:type
         rdf:resource="http://purl.org/dc/dcmitype/StillImage" /><cc:license
         rdf:resource="http://creativecommons.org/publicdomain/zero/1.0/" /><dc:publisher><cc:Agent
           rdf:about="http://openclipart.org/"><dc:title>Openclipart</dc:title></cc:Agent></dc:publisher><dc:title></dc:title><dc:date>2008-01-09T16:37:50</dc:date><dc:description>from the Merchant Marine Manual, 1918</dc:description><dc:source>https://openclipart.org/detail/10879/seizings-hitches-splices-bends-and-knots-by-johnny_automatic-10879</dc:source><dc:creator><cc:Agent><dc:title>johnny_automatic</dc:title></cc:Agent></dc:creator><dc:subject><rdf:Bag><rdf:li>bend</rdf:li><rdf:li>externalsource</rdf:li><rdf:li>hitch</rdf:li><rdf:li>knot</rdf:li><rdf:li>maritime</rdf:li><rdf:li>rope</rdf:li><rdf:li>sailing</rdf:li><rdf:li>seizing</rdf:li><rdf:li>splice</rdf:li></rdf:Bag></dc:subject></cc:Work><cc:License
       rdf:about="http://creativecommons.org/publicdomain/zero/1.0/"><cc:permits
         rdf:resource="http://creativecommons.org/ns#Reproduction" /><cc:permits
         rdf:resource="http://creativecommons.org/ns#Distribution" /><cc:permits
         rdf:resource="http://creativecommons.org/ns#DerivativeWorks" /></cc:License></rdf:RDF></metadata></svg>
