<?xml version="1.0" encoding="UTF-8" standalone="no"?>
<svg
   xmlns:dc="http://purl.org/dc/elements/1.1/"
   xmlns:cc="http://creativecommons.org/ns#"
   xmlns:rdf="http://www.w3.org/1999/02/22-rdf-syntax-ns#"
   xmlns:svg="http://www.w3.org/2000/svg"
   xmlns="http://www.w3.org/2000/svg"
   xmlns:sodipodi="http://sodipodi.sourceforge.net/DTD/sodipodi-0.dtd"
   xmlns:inkscape="http://www.inkscape.org/namespaces/inkscape"
   id="svg"
   version="1.1"
   width="50"
   height="220"
   viewBox="0 0 50 219.99999"
   sodipodi:docname="51.svg"
   inkscape:version="1.0.1 (3bc2e813f5, 2020-09-07)">
  <metadata
     id="metadata11">
    <rdf:RDF>
      <cc:Work
         rdf:about="">
        <dc:format>image/svg+xml</dc:format>
        <dc:type
           rdf:resource="http://purl.org/dc/dcmitype/StillImage" />
        <dc:title></dc:title>
      </cc:Work>
    </rdf:RDF>
  </metadata>
  <defs
     id="defs9" />
  <sodipodi:namedview
     pagecolor="#ffffff"
     bordercolor="#666666"
     borderopacity="1"
     objecttolerance="10"
     gridtolerance="10"
     guidetolerance="10"
     inkscape:pageopacity="0"
     inkscape:pageshadow="2"
     inkscape:window-width="1920"
     inkscape:window-height="1002"
     id="namedview7"
     showgrid="false"
     inkscape:zoom="0.48800771"
     inkscape:cx="20.644454"
     inkscape:cy="463.72197"
     inkscape:window-x="-8"
     inkscape:window-y="-8"
     inkscape:window-maximized="1"
     inkscape:current-layer="svgg" />
  <g
     id="svgg"
     transform="translate(387.28896,43.032107)">
    <path
       id="path0"
       d="m -361.45126,-42.983334 c 0.1394,0.02696 0.36736,0.02696 0.50676,0 0.13939,-0.0267 0.0252,-0.04878 -0.25338,-0.04878 -0.27879,0 -0.39277,0.02208 -0.25338,0.04878 m -4.20522,1.930744 c -0.24157,0.176875 -0.54064,0.442061 -0.66438,0.589414 -0.12399,0.147611 -0.0221,0.09165 0.22617,-0.124249 0.24824,-0.215639 0.57761,-0.478258 0.73189,-0.583511 0.15429,-0.104995 0.25004,-0.193818 0.21282,-0.196899 -0.0372,-0.0033 -0.26519,0.138626 -0.5065,0.315245 m 9.64884,3.22535 c 0,0.06213 0.17251,0.442061 0.38301,0.844588 0.21077,0.402527 0.38328,0.681061 0.38328,0.619193 0,-0.06187 -0.17251,-0.441804 -0.38328,-0.844331 -0.2105,-0.402527 -0.38301,-0.681318 -0.38301,-0.61945 m 2.07193,4.222426 c 0.58891,1.176518 1.09617,2.139195 1.12723,2.139195 0.0308,0 -0.42563,-0.962677 -1.01453,-2.139195 -0.5889,-1.176775 -1.09616,-2.139451 -1.12697,-2.139451 -0.0311,0 0.42537,0.962676 1.01427,2.139451 m -16.66379,2.139195 c -0.096,0.18586 -0.14941,0.337834 -0.11834,0.337834 0.0311,0 0.13477,-0.151974 0.23103,-0.337834 0.096,-0.185861 0.14916,-0.337836 0.11835,-0.337836 -0.0311,0 -0.13503,0.151975 -0.23104,0.337836 m 20.94244,5.291894 c 0.71264,1.424248 1.32105,2.589728 1.35211,2.589728 0.0308,0 -0.52678,-1.16548 -1.23941,-2.589728 -0.71264,-1.424247 -1.32131,-2.589727 -1.35211,-2.589727 -0.0311,0 0.52677,1.16548 1.23941,2.589727 m -23.93187,-0.43898 c -0.19074,0.377883 -0.32834,0.705449 -0.30549,0.728297 0.0226,0.02259 0.20281,-0.286492 0.40047,-0.686966 0.19742,-0.400473 0.33476,-0.728297 0.30549,-0.728297 -0.0295,0 -0.20974,0.309084 -0.40047,0.686966 m -1.17652,2.353037 c -0.27982,0.557326 -0.48365,1.013506 -0.45259,1.013506 0.0308,0 0.28521,-0.45618 0.56528,-1.013506 0.27983,-0.557325 0.4834,-1.013248 0.45259,-1.013248 -0.0311,0 -0.28546,0.455923 -0.56528,1.013248 m 28.59892,3.940811 c 0.15686,0.309597 0.31037,0.562973 0.34144,0.562973 0.0311,0 -0.0721,-0.253376 -0.22899,-0.562973 -0.15686,-0.309596 -0.31063,-0.562973 -0.34144,-0.562973 -0.0311,0 0.0719,0.253377 0.22899,0.562973 m -32.3146,2.36459 c -0.71263,1.424247 -1.27021,2.58947 -1.23941,2.58947 0.0311,0 0.63948,-1.165223 1.35211,-2.58947 0.71264,-1.424504 1.27048,-2.589727 1.23942,-2.589727 -0.0308,0 -0.63948,1.165223 -1.35212,2.589727 m -2.67983,4.531766 c -0.30549,0.413052 -0.51137,0.768857 -0.3422,0.591211 0.20871,-0.21949 0.72445,-0.957028 0.669,-0.957028 -0.0308,0 -0.1779,0.164553 -0.3268,0.365817 m -0.81045,1.323102 c -0.15685,0.309596 -0.26004,0.562973 -0.22898,0.562973 0.0311,0 0.18457,-0.253377 0.34143,-0.562973 0.15711,-0.309597 0.26005,-0.562974 0.22899,-0.562974 -0.0308,0 -0.18458,0.253377 -0.34144,0.562974 m -1.55311,3.0993031 c -0.16635,0.3388621 -0.27828,0.6161124 -0.24901,0.6161124 0.0757,0 0.64358,-1.1395517 0.59301,-1.1901242 -0.0231,-0.023104 -0.1779,0.2351496 -0.344,0.5740118 m -2.64313,4.8947583 c 0,0.2166668 0.0234,0.3054894 0.0516,0.1971566 0.0283,-0.1085904 0.0283,-0.2857228 0,-0.3943126 -0.0282,-0.1083328 -0.0516,-0.019508 -0.0516,0.197156 m 0.64949,1.4073043 c 0.20999,0.2169232 0.40741,0.394312 0.43821,0.394312 0.0311,0 -0.11552,-0.1773888 -0.32551,-0.394312 -0.21025,-0.2166662 -0.40741,-0.3940555 -0.43821,-0.3940555 -0.0311,0 0.11552,0.1773893 0.32551,0.3940555 m 47.45814,0.1316941 c -0.24747,0.2223144 -0.34887,0.3514411 -0.22514,0.2872629 0.20871,-0.1080764 0.83072,-0.7062193 0.72342,-0.6956944 -0.0262,0.00255 -0.25055,0.1863742 -0.49828,0.4084315 m -45.28916,0.7937588 c 0.17122,0.025674 0.4246,0.025158 0.56297,-0.00153 0.13862,-0.026695 -0.002,-0.048007 -0.31114,-0.047235 -0.30959,0.00102 -0.42306,0.022849 -0.25183,0.048778 m 42.89813,0 c 0.17123,0.025674 0.4246,0.025158 0.56297,-0.00153 0.13862,-0.026695 -0.002,-0.048007 -0.31114,-0.047235 -0.30959,0.00102 -0.42281,0.022849 -0.25183,0.048778 m -29.34288,0.3617095 c 0.26339,0.1196286 0.50136,0.3185816 0.545,0.45617974 0.0426,0.13426151 0.10217,0.21923359 0.13247,0.18894156 0.19022,-0.19022469 -0.59584,-0.8669223 -0.99888,-0.859991 -0.0806,0.0013 0.0642,0.098065 0.32141,0.2148697 m 13.70106,5.134e-4 c -0.34092,0.2076814 -0.58274,0.62638141 -0.44258,0.76628994 0.0365,0.0367071 0.0665,-0.008985 0.0665,-0.10140151 0,-0.20947849 0.41485,-0.60738463 0.78811,-0.75627843 0.1548,-0.061868 0.20563,-0.1152647 0.1127,-0.1188588 -0.0929,-0.00386 -0.3291,0.090877 -0.52472,0.2102488 m -14.48199,4.5728401 c -0.66335,1.3282362 -1.18114,2.4151619 -1.15084,2.4151619 0.0742,0 2.44494,-4.74252791 2.39565,-4.79181677 -0.0213,-0.0213061 -0.58146,1.04816167 -1.24481,2.37665487 m 15.11915,-0.5847937 c 0,0.1224524 0.89696,1.8740095 0.9596,1.8740095 0.0506,0 -0.8107,-1.7900641 -0.91621,-1.9045584 -0.0239,-0.025929 -0.0434,-0.012066 -0.0434,0.030547 m -16.76982,3.6473872 c -0.20614,0.2941936 -0.2793,0.4495054 -0.1625,0.3452795 0.20409,-0.1820096 0.66258,-0.8800139 0.57812,-0.8800139 -0.0226,0 -0.20973,0.2405408 -0.41562,0.5347344 m -1.92073,2.9555439 c -0.24901,0.4954577 -0.42743,0.9008089 -0.39662,0.9008089 0.0311,0 0.26031,-0.4053512 0.50932,-0.9008089 0.24901,-0.4952006 0.42743,-0.9005514 0.39662,-0.9005514 -0.0311,0 -0.26005,0.4053508 -0.50932,0.9005514 m -1.38317,2.7635229 c -0.35324,0.7093 -0.61765,1.289986 -0.58736,1.289986 0.0744,0 1.31899,-2.490636 1.26919,-2.540438 -0.0218,-0.02182 -0.32859,0.540895 -0.68183,1.250452 m 35.04885,17.165671 c 0.18741,0.371465 0.36634,0.67567 0.39714,0.67567 0.0311,0 -0.097,-0.304205 -0.28469,-0.67567 -0.1874,-0.371465 -0.36633,-0.67567 -0.39714,-0.67567 -0.0311,0 0.097,0.304205 0.28469,0.67567 m -45.43574,1.154185 c -0.17354,0.263131 -0.24362,0.418956 -0.15583,0.346306 0.16918,-0.139652 0.6002,-0.824821 0.51908,-0.824821 -0.0262,0 -0.18971,0.215126 -0.36325,0.478515 m -1.37265,2.561488 c 0,0.278535 0.0221,0.392516 0.0488,0.25312 0.0269,-0.139139 0.0269,-0.367101 0,-0.506496 -0.0267,-0.139396 -0.0488,-0.02541 -0.0488,0.253376 m 48.85466,-0.03748 c -0.0108,0.258254 -0.0488,0.562204 -0.0845,0.675671 -0.0608,0.193819 -0.057,0.194076 0.0626,0.0077 0.0701,-0.109103 0.10807,-0.413309 0.0845,-0.67567 l -0.0429,-0.476974 -0.0197,0.469272 m -0.7514,1.576479 c -0.24773,0.222057 -0.34913,0.351184 -0.22539,0.287262 0.20871,-0.108333 0.83072,-0.706219 0.72342,-0.695694 -0.0262,0.0026 -0.25056,0.186374 -0.49803,0.408432 m -31.27183,0.904915 c 0.14017,0.02696 0.34297,0.02593 0.45054,-0.002 0.10756,-0.02824 -0.007,-0.05031 -0.25467,-0.04903 -0.24772,0.0013 -0.33578,0.02413 -0.19587,0.05109 m 14.86243,0 c 0.14017,0.02696 0.34272,0.02593 0.45054,-0.002 0.10756,-0.02824 -0.007,-0.05031 -0.25466,-0.04903 -0.24773,0.0013 -0.33578,0.02413 -0.19588,0.05109 m -13.03437,0.680548 c 0.14736,0.201264 0.28547,0.365817 0.30703,0.365817 0.0855,0 -0.19356,-0.422294 -0.3784,-0.572215 -0.12142,-0.09883 -0.0945,-0.02002 0.0714,0.206398 m 11.25638,0.371978 c -0.068,0.12733 -0.10705,0.281615 -0.0868,0.342713 0.0205,0.06135 0.0952,-0.04287 0.16635,-0.231299 0.14812,-0.392002 0.10371,-0.45387 -0.0796,-0.111414 m -10.65002,2.864924 c 2.5e-4,0.743184 0.0185,1.032502 0.0405,0.643069 0.0221,-0.389438 0.0218,-0.997338 -5.1e-4,-1.351084 -0.0224,-0.353752 -0.0403,-0.03489 -0.04,0.708015 m -0.53346,3.172724 c -0.115,0.153771 -0.36838,0.376595 -0.56297,0.495197 -0.19484,0.118602 -0.2888,0.215898 -0.20896,0.216153 0.16968,5.16e-4 1.11875,-0.857163 1.03661,-0.936744 -0.0306,-0.02978 -0.14967,0.07162 -0.26468,0.225394 m 11.60552,0.263898 c 0.19921,0.208966 0.38147,0.357349 0.40458,0.329621 0.0234,-0.02774 -0.13966,-0.198953 -0.36223,-0.380191 l -0.40483,-0.329621 0.36248,0.380191 m -15.30476,0.644097 c 0.38944,0.02207 0.99759,0.02184 1.35109,-5.11e-4 0.35375,-0.02235 0.0349,-0.04033 -0.70802,-0.04005 -0.74319,2.55e-4 -1.0325,0.01849 -0.64307,0.04056 m 17.56461,0 c 0.38943,0.02207 0.99759,0.02184 1.35108,-5.11e-4 0.35375,-0.02235 0.0352,-0.04033 -0.70802,-0.04005 -0.74318,2.55e-4 -1.0325,0.01849 -0.64306,0.04056 m -19.39857,0.366844 c -0.44026,0.291626 -0.28393,0.291882 0.19433,5.11e-4 0.20255,-0.123736 0.31781,-0.224622 0.25594,-0.224622 -0.0619,2.55e-4 -0.26467,0.101147 -0.45027,0.224111 m 23.33604,31.216637 -0.0293,29.189868 -0.28136,0.50676 c -0.20794,0.37403 -0.42871,0.58017 -0.84459,0.78811 l -0.56297,0.28136 h -10.35865 -10.35866 l -0.56092,-0.28136 c -0.60353,-0.30267 -0.94419,-0.76141 -1.07922,-1.453 -0.0434,-0.22283 -0.0847,15.7327 -0.0914,35.45626 -0.0128,37.73665 -0.0308,36.41098 0.50213,37.11771 0.60354,0.79966 0.15685,0.77014 11.58806,0.77014 12.07555,0 11.4923,0.0739 11.9685,-1.52 0.1263,-0.42281 0.32962,-130.045731 0.20409,-130.045731 -0.0367,0 -0.0798,13.135267 -0.0958,29.189883 m -24.23787,-0.253377 c 0,15.760165 0.0131,22.207781 0.029,14.327441 0.0162,-7.880079 0.0162,-20.774808 0,-28.654887 -0.0159,-7.88034 -0.029,-1.432979 -0.029,14.327446"
       stroke="none"
       fill="#fcf404"
       fill-rule="evenodd"
       style="stroke-width:0.256714" />
    <path
       id="path2"
       d="m -362.18366,-42.847142 c -2.77353,1.020179 -4.30663,2.229814 -4.80388,3.790376 -0.54859,1.721779 -3.5198,7.55919 -4.51893,8.878698 -0.60045,0.792988 -1.19834,1.84038 -2.31376,4.052995 -1.10746,2.196955 -1.71485,3.26206 -2.30349,4.039389 -0.58608,0.773992 -1.20373,1.855783 -2.31504,4.053509 -1.1108,2.197212 -1.73641,3.292352 -2.34277,4.102027 -0.60277,0.804797 -1.23197,1.904302 -2.31941,4.0532516 -0.87693,1.7328167 -1.74745,3.2892718 -2.11095,3.7744605 -1.17293,1.5651829 -1.23968,2.33327 -0.28778,3.3131459 0.89593,0.9221157 0.77322,0.9079962 8.527,0.9783359 9.30818,0.084459 8.99473,-0.1658373 6.35648,5.0775389 -0.67926,1.3498005 -1.46378,2.7496601 -1.74334,3.1105993 -0.96652,1.2478851 -1.15495,1.5692905 -2.62746,4.4847869 -1.11491,2.207738 -1.68713,3.203016 -2.32737,4.049145 -0.64435,0.851519 -1.21246,1.842177 -2.35663,4.109728 -1.1108,2.201576 -1.71587,3.261547 -2.29913,4.027837 -0.5889,0.774249 -1.17806,1.810088 -2.30451,4.053508 -0.87309,1.738209 -1.73693,3.299027 -2.04139,3.688719 -1.09514,1.4014 -1.25019,2.308369 -0.54372,3.181452 0.89952,1.111313 1.24301,1.152131 9.69633,1.152901 9.56053,7.94e-4 9.07662,-0.215383 9.0779,4.054023 10e-4,3.590911 -0.2775,3.909232 -3.53956,4.043751 -2.21236,0.09139 -2.63311,0.245934 -3.06773,1.128 l -0.25337,0.5142 v 29.555694 29.555951 l 0.28161,0.50676 c 0.20794,0.37403 0.42871,0.58017 0.84433,0.78811 l 0.56297,0.28136 h 10.35866 10.35865 l 0.56297,-0.28136 c 0.41588,-0.20794 0.63665,-0.41408 0.84459,-0.78811 l 0.28136,-0.50676 V 74.364709 44.752538 l -0.25492,-0.476977 c -0.42486,-0.795043 -0.88464,-0.958055 -2.954,-1.046876 -3.42071,-0.146329 -3.64431,-0.419985 -3.58295,-4.381331 0.0616,-3.960323 -0.71239,-3.647133 9.21268,-3.727997 8.34345,-0.06803 8.17427,-0.05494 9.03272,-0.704679 1.17318,-0.888486 1.18602,-1.885819 0.0446,-3.467688 -0.48827,-0.676697 -1.2828,-2.091446 -2.20877,-3.933367 -1.0461,-2.081177 -1.66735,-3.171183 -2.24573,-3.940811 -0.5776,-0.768857 -1.2217,-1.898397 -2.32069,-4.070708 -1.11311,-2.200549 -1.73384,-3.287475 -2.31504,-4.053508 -0.58068,-0.765777 -1.19885,-1.847568 -2.30221,-4.030404 -1.12235,-2.2200598 -1.72486,-3.2718156 -2.35355,-4.109729 -1.21348,-1.6167822 -3.46075,-6.0951521 -3.52853,-7.0316432 -0.11552,-1.5947052 -0.5717,-1.5133267 8.92902,-1.5890576 9.03529,-0.07188 8.75881,-0.045437 9.67579,-0.926993 1.01094,-0.9724313 0.93906,-1.8283142 -0.28829,-3.4296937 -0.30369,-0.3961097 -1.22196,-2.0485751 -2.06706,-3.7195241 -1.07563,-2.1263594 -1.75412,-3.3200774 -2.31684,-4.0766124 -0.55271,-0.74293 -1.25892,-1.978749 -2.3117,-4.045294 -1.10952,-2.177958 -1.7359,-3.266167 -2.33635,-4.059926 -0.61124,-0.807108 -1.21272,-1.858863 -2.35561,-4.117687 -1.12286,-2.219802 -1.74668,-3.31289 -2.3248,-4.074816 -0.95523,-1.25918 -3.87252,-6.965154 -4.40469,-8.615309 -0.42204,-1.309496 -0.65205,-1.684812 -1.3113,-2.139708 -0.28982,-0.19998 -0.91082,-0.648202 -1.37957,-0.995792 -1.40603,-1.042771 -2.03292,-1.213229 -3.06491,-0.833549"
       stroke="none"
       fill="#040404"
       fill-rule="evenodd"
       style="stroke-width:0.256714" />
  </g>
</svg>
