<?xml version="1.0" encoding="UTF-8" standalone="no"?>
<!-- Created with Inkscape (http://www.inkscape.org/) -->

<svg
   width="50mm"
   height="30mm"
   viewBox="0 0 50 30"
   version="1.1"
   id="svg1"
   sodipodi:docname="410.svg"
   inkscape:version="1.3.1 (9b9bdc1480, 2023-11-25, custom)"
   xmlns:inkscape="http://www.inkscape.org/namespaces/inkscape"
   xmlns:sodipodi="http://sodipodi.sourceforge.net/DTD/sodipodi-0.dtd"
   xmlns="http://www.w3.org/2000/svg"
   xmlns:svg="http://www.w3.org/2000/svg">
  <sodipodi:namedview
     id="namedview1"
     pagecolor="#ffffff"
     bordercolor="#000000"
     borderopacity="0.25"
     inkscape:showpageshadow="2"
     inkscape:pageopacity="0.0"
     inkscape:pagecheckerboard="0"
     inkscape:deskcolor="#d1d1d1"
     inkscape:document-units="mm"
     inkscape:zoom="4.0275941"
     inkscape:cx="80.445048"
     inkscape:cy="66.168535"
     inkscape:window-width="1536"
     inkscape:window-height="815"
     inkscape:window-x="0"
     inkscape:window-y="25"
     inkscape:window-maximized="1"
     inkscape:current-layer="layer1" />
  <defs
     id="defs1" />
  <g
     inkscape:label="Layer 1"
     inkscape:groupmode="layer"
     id="layer1">
    <rect
       style="fill:#000000;fill-opacity:1;stroke:#000000;stroke-width:0.368502"
       id="rect1"
       width="38.474659"
       height="2.8259194"
       x="3.9130828"
       y="16.996284" />
    <rect
       style="fill:#000000;fill-opacity:1;stroke:#000000;stroke-width:0.247522"
       id="rect1-5"
       width="16.731863"
       height="2.9318209"
       x="2.4621902"
       y="-6.3020926"
       transform="matrix(0.02696809,0.99963629,-0.99998878,0.00473675,0,0)" />
    <rect
       style="fill:#000000;fill-opacity:1;stroke:#000000;stroke-width:0.247522"
       id="rect1-5-2"
       width="16.731863"
       height="2.9318209"
       x="2.4868751"
       y="-11.778822"
       transform="matrix(0.02696809,0.99963629,-0.99998878,0.00473675,0,0)" />
    <path
       style="fill:none;fill-rule:evenodd;stroke:#000000;stroke-width:0.175497px;stroke-linecap:butt;stroke-linejoin:miter;stroke-opacity:1"
       d="m 40.102577,26.888733 6.697339,-8.705836"
       id="path4"
       inkscape:connector-type="polyline"
       inkscape:connector-curvature="0" />
    <path
       style="fill:#1a1a1a;fill-rule:evenodd;stroke:#000000;stroke-width:0.175497px;stroke-linecap:butt;stroke-linejoin:miter;stroke-opacity:1"
       d="M 46.865967,18.224078 40.168629,9.5182416"
       id="path4-6"
       inkscape:connector-type="polyline"
       inkscape:connector-curvature="0" />
    <path
       style="fill:#1a1a1a;fill-rule:evenodd;stroke:#000000;stroke-width:0.183664px;stroke-linecap:butt;stroke-linejoin:miter;stroke-opacity:1"
       d="M 40.176859,26.912473 40.201779,9.4083426"
       id="path4-6-9"
       inkscape:connector-type="polyline"
       inkscape:connector-curvature="0"
       sodipodi:nodetypes="cc" />
    <path
       style="fill:#000000;fill-opacity:1;stroke:#000000;stroke-width:0.222187"
       d="m 40.315079,23.230276 v -3.152999 h 1.149223 1.149224 V 18.441844 16.80641 h -1.149224 -1.149223 v -3.42115 c 0,-1.991257 0.03273,-3.3860494 0.07831,-3.337167 0.143376,0.153752 6.002001,7.790457 6.113296,7.968671 0.09879,0.158189 -0.194583,0.570829 -3.010271,4.234055 -1.715851,2.232333 -3.133592,4.07536 -3.150534,4.095619 -0.01693,0.02026 -0.0308,-1.382016 -0.0308,-3.116162 z"
       id="path5" />
    <path
       style="fill:#000000;fill-opacity:1;stroke:#000000;stroke-width:0.318671"
       d=""
       id="path6"
       transform="scale(0.26458333)" />
    <path
       style="fill:#000000;fill-opacity:1;stroke:#000000;stroke-width:0.055926"
       d="m 40.083009,26.861963 c -0.01709,-0.02737 -0.01908,-0.04846 -0.0054,-0.05694 0.01408,-0.0087 0.0218,-1.21928 0.0218,-3.416597 V 19.985298 H 32.100131 24.100808 V 18.40546 16.825622 h 7.996104 7.996104 l 0.01418,-0.150197 c 0.0078,-0.08261 0.01425,-1.749782 0.01434,-3.704831 l 1.59e-4,-3.5546354 h 0.07788 c 0.07012,0 0.07788,0.0061 0.07789,0.06119 5e-6,0.04719 0.758784,1.0476004 3.316303,4.3723704 l 3.316295,4.311179 -3.327429,4.325658 c -1.991267,2.588649 -3.327429,4.344414 -3.327429,4.372367 0,0.03789 -0.01369,0.04671 -0.07253,0.04671 -0.04786,0 -0.08176,-0.01479 -0.09967,-0.04347 z m 0.237275,-0.376164 c 0.01558,-0.02911 0.01,-0.04563 -0.02214,-0.0657 -0.03941,-0.02462 -0.04294,-0.02029 -0.04294,0.05256 0,0.08102 0.02594,0.08626 0.06508,0.01315 z m 6.206884,-8.0695 c 0.0995,-0.128659 0.180903,-0.247264 0.180903,-0.263566 0,-0.0163 -0.02002,-0.04776 -0.0445,-0.06992 -0.04333,-0.03921 -0.04451,-0.03886 -0.04499,0.01323 -7.3e-4,0.07223 -0.06569,0.210691 -0.187086,0.39836 -0.05544,0.0857 -0.09729,0.155808 -0.09301,0.155808 0.0043,0 0.08919,-0.105265 0.188688,-0.233924 z M 40.339984,9.8600176 c -0.02675,-0.03618 -0.05176,-0.06579 -0.05559,-0.06579 -0.0038,0 -0.0069,0.05462 -0.0069,0.121369 v 0.1213714 l 0.05558,-0.05558 0.05559,-0.05558 z"
       id="path7" />
    <path
       style="fill:#000000;fill-opacity:1;stroke:#000000;stroke-width:0.055926"
       d="m 40.11402,26.899577 c -0.03614,-0.02642 -0.03836,-0.233417 -0.03723,-3.460068 l 0.0013,-3.43196 H 32.089463 24.10087 V 18.40546 16.80337 h 7.985285 7.985284 l 0.0138,-0.08344 c 0.0076,-0.04589 0.0139,-1.713672 0.01404,-3.706176 l 1.76e-4,-3.6227314 0.0818,0.0069 c 0.06987,0.0059 0.08865,0.01989 0.128781,0.09591 0.08911,0.168834 0.701175,0.9731154 4.423806,5.8131364 l 2.194897,2.85372 -2.075002,2.697964 c -3.220972,4.187976 -4.461684,5.814303 -4.583339,6.007837 -0.04159,0.06616 -0.09553,0.07757 -0.156377,0.03308 z m 0.178643,-0.44334 c -0.0071,-0.01775 -0.01237,-0.01248 -0.01344,0.01344 -0.0011,0.02345 0.0043,0.0366 0.01169,0.02921 0.0074,-0.0074 0.0082,-0.02659 0.0017,-0.04265 z m 6.393157,-8.309676 c 0,-0.06765 -0.04192,-0.04355 -0.07503,0.04314 -0.05042,0.132025 -0.04534,0.147744 0.0194,0.06 0.0306,-0.04147 0.05563,-0.08788 0.05563,-0.103139 z M 40.341765,9.9418136 c 0.01921,-0.02314 0.0172,-0.03711 -0.0084,-0.05835 -0.02858,-0.02372 -0.03365,-0.01913 -0.03365,0.03043 0,0.06642 0.0065,0.07075 0.04205,0.02792 z"
       id="path8" />
  </g>
</svg>
