<?xml version="1.0" encoding="UTF-8" standalone="no"?>
<svg
   xmlns:dc="http://purl.org/dc/elements/1.1/"
   xmlns:cc="http://creativecommons.org/ns#"
   xmlns:rdf="http://www.w3.org/1999/02/22-rdf-syntax-ns#"
   xmlns:svg="http://www.w3.org/2000/svg"
   xmlns="http://www.w3.org/2000/svg"
   xmlns:sodipodi="http://sodipodi.sourceforge.net/DTD/sodipodi-0.dtd"
   xmlns:inkscape="http://www.inkscape.org/namespaces/inkscape"
   id="svg"
   version="1.1"
   width="100"
   height="130"
   viewBox="0 0 100 130"
   sodipodi:docname="42.svg"
   inkscape:version="1.0.1 (3bc2e813f5, 2020-09-07)">
  <metadata
     id="metadata10">
    <rdf:RDF>
      <cc:Work
         rdf:about="">
        <dc:format>image/svg+xml</dc:format>
        <dc:type
           rdf:resource="http://purl.org/dc/dcmitype/StillImage" />
        <dc:title></dc:title>
      </cc:Work>
    </rdf:RDF>
  </metadata>
  <defs
     id="defs8" />
  <sodipodi:namedview
     pagecolor="#ffffff"
     bordercolor="#666666"
     borderopacity="1"
     objecttolerance="10"
     gridtolerance="10"
     guidetolerance="10"
     inkscape:pageopacity="0"
     inkscape:pageshadow="2"
     inkscape:window-width="1920"
     inkscape:window-height="1002"
     id="namedview6"
     showgrid="false"
     inkscape:zoom="0.65353904"
     inkscape:cx="27.669285"
     inkscape:cy="229.86481"
     inkscape:window-x="-8"
     inkscape:window-y="-8"
     inkscape:window-maximized="1"
     inkscape:current-layer="svgg" />
  <g
     id="svgg">
    <path
       id="path1"
       d="m 60.727749,0.23040437 c -0.184283,0.18482022 -0.33633,0.68985219 -0.337942,1.12181573 -0.0021,0.7629207 -2.405886,8.3104624 -3.045235,9.5628339 -0.17515,0.34224 -1.859485,5.249109 -3.743147,10.903856 -1.883662,5.654746 -3.566923,10.557318 -3.740461,10.894722 -0.173537,0.337404 -2.29306,6.546074 -4.709154,13.797044 -2.416632,7.250968 -4.54099,13.468234 -4.720975,13.816384 -0.180522,0.348149 -2.016367,5.701488 -4.080014,11.896727 -2.063646,6.1947 -3.897342,11.544279 -4.075178,11.88813 -0.177836,0.343315 -1.962103,5.54407 -3.965038,11.556637 -2.003473,6.013106 -3.789352,11.218696 -3.9688,11.568456 -0.179985,0.34976 -0.931623,2.45531 -1.670366,4.67907 -1.846053,5.55481 -0.311616,4.91815 -12.156228,5.04548 -7.7388088,0.0833 -9.97814213,0.16817 -10.19466116,0.38469 -0.48730214,0.48784 -0.3922057,10.80768 0.10423,11.30412 0.59475576,0.59421 96.26876816,0.59421 96.86352416,0 0.496436,-0.49644 0.591532,-10.81628 0.10423,-11.30412 -0.219205,-0.21921 -3.030192,-0.30034 -13.397854,-0.38469 -11.974094,-0.0972 -13.151248,-0.13808 -13.482742,-0.46957 -0.537806,-0.53781 -0.627529,-2.42308 -0.187507,-3.9328 0.202013,-0.692 0.443246,-2.26781 0.536194,-3.50138 0.09295,-1.2341 0.275081,-2.57889 0.404563,-2.98936 0.129481,-0.41047 0.236935,-1.46835 0.239084,-2.35001 0.0016,-0.88219 0.141301,-1.98843 0.311078,-2.458 0.169239,-0.47011 0.31269,-1.623625 0.319137,-2.563844 0.0064,-0.939681 0.155271,-2.180771 0.329883,-2.757259 0.175149,-0.577026 0.318063,-1.839069 0.318063,-2.80454 0,-1.077759 0.124108,-2.052364 0.320749,-2.523011 0.211683,-0.506643 0.320211,-1.485009 0.320211,-2.88298 0,-1.335111 0.118199,-2.451554 0.320749,-3.024282 0.179985,-0.511479 0.320212,-1.640817 0.320212,-2.583185 0,-0.960635 0.142913,-2.09642 0.335793,-2.663775 0.18482,-0.543715 0.414771,-2.013144 0.511479,-3.264978 0.09671,-1.252372 0.279917,-2.661089 0.406712,-3.130661 0.127332,-0.47011 0.234786,-1.575807 0.239621,-2.456927 0.0043,-0.88112 0.146675,-1.986817 0.315914,-2.456927 0.174075,-0.483004 0.312153,-1.654786 0.317525,-2.697623 0.0054,-1.13471 0.132168,-2.13779 0.329883,-2.610048 0.214907,-0.514703 0.320212,-1.496829 0.320212,-2.990434 0,-1.493606 0.105304,-2.475732 0.320212,-2.990972 0.198789,-0.474945 0.320749,-1.449549 0.320749,-2.562768 0,-1.04982 0.132705,-2.17271 0.320211,-2.704069 0.178911,-0.506106 0.320749,-1.637055 0.320749,-2.556321 0,-0.906371 0.142914,-2.12006 0.318063,-2.696548 0.174612,-0.577026 0.323436,-1.818116 0.329883,-2.757798 0.0064,-0.960635 0.150972,-2.082988 0.329882,-2.563843 0.17515,-0.469572 0.372864,-1.767612 0.439486,-2.883518 0.06662,-1.116443 0.255739,-2.503669 0.420143,-3.083381 0.164404,-0.579175 0.298721,-1.936851 0.298721,-3.017297 0,-1.199183 0.124647,-2.317238 0.320212,-2.871698 0.185895,-0.525986 0.320749,-1.649951 0.320749,-2.670223 0,-1.020272 0.134854,-2.144774 0.320212,-2.670759 0.185357,-0.525448 0.320212,-1.64995 0.320212,-2.670223 0,-1.020272 0.135391,-2.144236 0.320749,-2.670222 0.179447,-0.508793 0.32451,-1.671978 0.329882,-2.643896 0.0048,-0.954188 0.147749,-2.12006 0.316988,-2.589632 C 83.511139,10.463749 82.662792,8.4855281 80.04576,7.5039394 76.535787,6.1876326 75.687978,5.8389456 74.28947,5.1345873 73.466375,4.7203536 72.663696,4.3813375 72.505202,4.3813375 c -0.157957,0 -1.176617,-0.4330381 -2.262973,-0.9617099 -1.086356,-0.5286717 -2.080839,-0.9611725 -2.210321,-0.9611725 -0.129481,0 -0.868225,-0.2831403 -1.640816,-0.6296782 C 62.334718,0.011199 61.25266,-0.29396927 60.727749,0.23040437 M 54.517467,35.90984 c 0.940219,0.30087 2.237722,0.676957 2.884055,0.835452 0.646334,0.158494 1.799848,0.447007 2.563306,0.64096 0.763995,0.193954 1.91751,0.475483 2.563843,0.625918 0.646334,0.150435 1.99219,0.522224 2.990434,0.826855 0.998782,0.304094 2.392992,0.695225 3.097888,0.868763 6.659438,1.642965 7.566884,1.964789 7.919869,2.810449 0.394355,0.943443 0.387907,2.375799 -0.01558,3.519643 -0.179447,0.508793 -0.325047,1.671978 -0.329883,2.643896 -0.0054,0.954726 -0.148285,2.12006 -0.317525,2.59017 -0.181059,0.502345 -0.308929,1.64995 -0.311078,2.784121 -0.0016,1.061104 -0.148286,2.454778 -0.325585,3.09735 -0.177298,0.642573 -0.379848,2.081377 -0.45023,3.19782 -0.06985,1.115905 -0.261113,2.441346 -0.424979,2.944766 -0.163867,0.50342 -0.297647,1.708512 -0.297647,2.678281 0,1.403345 -0.09778,1.957268 -0.480855,2.716428 l -0.480317,0.953113 -1.578494,0.0634 c -1.019198,0.04083 -1.922345,-0.05373 -2.548262,-0.267022 -0.533508,-0.182134 -1.409792,-0.33042 -1.947597,-0.33042 -0.538343,0 -1.314158,-0.09993 -1.724631,-0.221892 -1.027794,-0.305705 -3.556177,-0.791396 -5.979793,-1.149216 -1.116443,-0.164404 -2.300045,-0.404026 -2.631002,-0.532433 -0.330957,-0.12787 -1.063791,-0.232637 -1.628997,-0.232637 -0.564669,0 -1.435581,-0.144525 -1.93524,-0.320749 -0.499659,-0.176224 -1.220673,-0.320212 -1.602133,-0.320212 -0.381998,0 -1.103012,-0.144525 -1.602134,-0.320749 -0.499659,-0.176224 -1.353378,-0.320212 -1.897631,-0.320212 -0.544252,0 -1.32544,-0.104767 -1.735913,-0.232637 -0.409935,-0.12787 -1.507037,-0.307317 -2.437048,-0.398653 -1.782655,-0.175149 -2.260824,-0.469035 -2.260824,-1.3883 0,-0.52115 5.759514,-17.870072 6.24413,-18.809216 0.182134,-0.352448 0.919803,-2.429526 1.639205,-4.61567 1.727316,-5.248572 1.853574,-5.3571 5.040649,-4.337365"
       stroke="none"
       fill="#040404"
       fill-rule="evenodd"
       style="stroke-width:0.537268" />
  </g>
</svg>
