<?xml version="1.0" encoding="UTF-8" standalone="no"?>
<svg
   xmlns:dc="http://purl.org/dc/elements/1.1/"
   xmlns:cc="http://creativecommons.org/ns#"
   xmlns:rdf="http://www.w3.org/1999/02/22-rdf-syntax-ns#"
   xmlns:svg="http://www.w3.org/2000/svg"
   xmlns="http://www.w3.org/2000/svg"
   xmlns:sodipodi="http://sodipodi.sourceforge.net/DTD/sodipodi-0.dtd"
   xmlns:inkscape="http://www.inkscape.org/namespaces/inkscape"
   id="svg"
   version="1.1"
   width="43"
   height="227"
   viewBox="0 0 43 227"
   sodipodi:docname="49.svg"
   inkscape:version="1.0.1 (3bc2e813f5, 2020-09-07)">
  <metadata
     id="metadata11">
    <rdf:RDF>
      <cc:Work
         rdf:about="">
        <dc:format>image/svg+xml</dc:format>
        <dc:type
           rdf:resource="http://purl.org/dc/dcmitype/StillImage" />
        <dc:title></dc:title>
      </cc:Work>
    </rdf:RDF>
  </metadata>
  <defs
     id="defs9" />
  <sodipodi:namedview
     pagecolor="#ffffff"
     bordercolor="#666666"
     borderopacity="1"
     objecttolerance="10"
     gridtolerance="10"
     guidetolerance="10"
     inkscape:pageopacity="0"
     inkscape:pageshadow="2"
     inkscape:window-width="1920"
     inkscape:window-height="1002"
     id="namedview7"
     showgrid="false"
     inkscape:zoom="3.1322321"
     inkscape:cx="27.156049"
     inkscape:cy="121.62002"
     inkscape:window-x="-8"
     inkscape:window-y="-8"
     inkscape:window-maximized="1"
     inkscape:current-layer="svgg"
     inkscape:document-rotation="0" />
  <g
     id="svgg"
     transform="scale(0.36003705)">
    <path
       id="path0"
       d="m 69.275588,10.181622 c 0.336595,0.660147 0.67972,1.200118 0.761832,1.200118 0.08265,0 -0.125069,-0.539971 -0.462216,-1.200118 -0.336595,-0.6601468 -0.67972,-1.2001182 -0.761831,-1.2001182 -0.08265,0 0.125068,0.5399714 0.462215,1.2001182 m 6.749915,10.800519 c 0.256123,0.495382 0.533444,0.899953 0.615556,0.899953 0.08266,0 -0.0593,-0.404571 -0.315388,-0.899953 -0.256123,-0.494837 -0.532901,-0.899952 -0.615557,-0.899952 -0.08211,0 0.05978,0.405115 0.315389,0.899952 M 17.522587,68.384908 c -0.25612,0.494842 -0.398046,0.899953 -0.315392,0.899953 0.08265,0 0.359437,-0.405111 0.615557,-0.899953 0.25612,-0.495385 0.398045,-0.899952 0.315391,-0.899952 -0.08265,0 -0.359437,0.404567 -0.615556,0.899952 M 1.2538352,97.78645 c 0,0.742258 0.058185,1.046227 0.1299629,0.67483 0.071237,-0.371405 0.071237,-0.9788 0,-1.350205 -0.071781,-0.370853 -0.1299629,-0.06746 -0.1299629,0.675375 m 76.7972418,5.90706 c 0.288749,0.0755 0.761296,0.0755 1.050036,0 0.288749,-0.0756 0.05218,-0.13757 -0.52529,-0.13757 -0.57749,0 -0.81349,0.062 -0.524746,0.13757 m -32.292261,1.57913 c 0.349649,0.42034 0.784128,1.03427 0.966293,1.36434 0.182166,0.32953 0.334968,0.42904 0.339862,0.22023 0.0054,-0.20881 -0.429585,-0.82219 -0.96575,-1.36379 -0.536165,-0.54161 -0.689511,-0.64057 -0.340405,-0.22078 m 1.756403,21.91534 c 0,9.98268 0.03752,14.067 0.08374,9.07512 0.04622,-4.99134 0.04622,-13.15944 0,-18.15077 -0.04622,-4.99134 -0.08374,-0.90757 -0.08374,9.07565 m 25.200308,0 c 0,9.15777 0.03809,12.9044 0.08482,8.32524 0.04673,-4.57915 0.04673,-12.07186 0,-16.65102 -0.04673,-4.57862 -0.08482,-0.83252 -0.08482,8.32578 m -25.941478,20.34057 c 0,0.18651 -0.433391,0.85046 -0.963574,1.47472 -0.864608,1.01795 -0.877114,1.0582 -0.122894,0.38554 0.949436,-0.84612 1.521491,-1.7651 1.261021,-2.02557 -0.0957,-0.0962 -0.174553,-0.0218 -0.174553,0.16531 M 41.00239,150.801 c 0.373031,0.0718 0.913003,0.0691 1.200118,-0.006 0.28657,-0.0751 -0.01849,-0.13377 -0.678636,-0.1305 -0.660146,0.003 -0.894514,0.0647 -0.521482,0.13649 m 37.202036,0 c 0.37303,0.0718 0.913004,0.0691 1.200121,-0.006 0.286572,-0.0751 -0.01849,-0.13377 -0.67864,-0.13051 -0.660146,0.003 -0.894511,0.0647 -0.521481,0.13649 m -75.4013668,2.2632 -0.8809205,0.975 0.9749937,-0.88147 c 0.9086534,-0.8211 1.1125701,-1.06852 0.8809204,-1.06852 -0.051655,0 -0.4904873,0.43883 -0.9749936,0.97499 m -1.549224,3.52532 c 0,0.74226 0.058185,1.04623 0.1299629,0.67483 0.071237,-0.37141 0.071237,-0.9788 0,-1.35021 -0.071781,-0.37139 -0.1299629,-0.0675 -0.1299629,0.67538 m 9.6683738,18.90063 c 0.256119,0.49539 0.532902,0.89995 0.615557,0.89995 0.08265,0 -0.05927,-0.40456 -0.315392,-0.89995 -0.25612,-0.49483 -0.532903,-0.89995 -0.615556,-0.89995 -0.08211,0 0.05982,0.40512 0.315391,0.89995 m 66.437726,55.2348 c -1.166407,2.32791 -2.073426,4.27954 -2.015785,4.33663 0.05762,0.0576 1.077765,-1.84667 2.26701,-4.23168 1.189249,-2.38555 2.096268,-4.33717 2.015244,-4.33717 -0.08048,0 -1.100604,1.90485 -2.266469,4.23222 m -29.859399,17.5189 c -5.43e-4,3.30018 0.0435,4.69117 0.09734,3.09138 0.05383,-1.60034 0.05383,-4.3002 5.44e-4,-6.0006 -0.05383,-1.69984 -0.09788,-0.39097 -0.09788,2.90922 m 25.192696,0.15008 c 0,2.22786 0.04729,3.13923 0.104943,2.02503 0.05762,-1.11366 0.05762,-2.9364 0,-4.05005 -0.05762,-1.11367 -0.104943,-0.2023 -0.104943,2.02502 m -34.086729,11.32091 c 0.705824,0.0631 1.785767,0.0625 2.400237,-0.002 0.614469,-0.0647 0.03698,-0.11637 -1.282773,-0.11528 -1.320293,8e-4 -1.822744,0.0539 -1.117464,0.11745 m 40.802389,0 c 0.705823,0.0631 1.785773,0.0625 2.400241,-0.002 0.614469,-0.0647 0.03697,-0.11637 -1.283321,-0.11528 -1.319748,8e-4 -1.822743,0.0539 -1.11692,0.11745 m 9.967457,63.32839 c 0,62.67042 0.103862,59.15979 -1.797192,60.75959 -1.87712,1.57913 -1.325726,1.54813 -27.604352,1.54813 H 35.523824 l -1.441012,-0.70908 c -1.637862,-0.80697 -2.256138,-1.60252 -2.792847,-3.59547 -0.304516,-1.12942 -0.371944,10.61455 -0.355631,61.60788 0.01142,34.65171 0.07722,62.66552 0.14682,62.25279 0.886903,-5.28552 -0.04568,-5.12728 29.69518,-5.03048 27.975207,0.0914 26.149751,-0.0832 27.700062,2.65581 l 0.749869,1.32465 0.150084,60.45341 c 0.08265,33.2493 0.161495,-20.24758 0.175091,-118.88128 0.0136,-98.63372 -0.02009,-179.33419 -0.07506,-179.33419 -0.0549,0 -0.100053,25.62663 -0.100053,56.94824 M 31.18556,627.10323 c -0.02447,0.48287 0.845031,1.87767 1.532367,2.45896 l 0.705825,0.59708 -0.638941,-0.7477 c -0.35128,-0.41164 -0.8521,-1.15281 -1.113113,-1.64819 -0.26047,-0.49484 -0.479613,-0.79175 -0.486138,-0.66015"
       stroke="none"
       fill="#fcf404"
       fill-rule="evenodd"
       style="stroke-width:0.543778" />
    <path
       id="path1"
       d="M -33.329904,337.79865 V 697.81721 H 75.425718 184.18132 V 337.79865 -22.219936 H 75.425718 -33.329904 V 337.79865 M 62.849216,1.1505565 c 1.967388,0.8934273 3.197958,2.4551581 5.790148,7.3491601 1.340959,2.5312874 3.125091,5.5313104 3.965226,6.6672624 2.02395,2.736835 3.234402,4.854307 6.66727,11.66567 1.701484,3.375231 3.671046,6.77765 4.82821,8.342099 1.233283,1.666138 3.233302,5.17079 5.417656,9.492194 2.128346,4.209385 4.280626,7.990818 5.583513,9.808668 1.300174,1.8135 3.439938,5.571006 5.529131,9.709157 2.08376,4.126184 4.23549,7.905449 5.53566,9.722751 1.25939,1.759673 3.4829,5.641157 5.45138,9.51612 1.82818,3.599265 3.91357,7.391579 4.63353,8.42802 3.44429,4.953815 3.70258,7.149044 1.12888,9.593872 -2.03536,1.93313 -1.43013,1.87603 -21.553176,2.04243 -21.657055,0.17891 -21.352541,0.12507 -22.506435,4.01091 -0.660691,2.22459 -0.660691,37.15309 0,39.37823 1.152805,3.88257 0.824909,3.82439 22.656511,4.00765 18.38024,0.15388 18.45583,0.1566 19.65105,0.82273 4.38339,2.44102 4.5971,4.90814 0.8918,10.31982 -0.86135,1.2583 -3.13434,5.37579 -5.05061,9.15015 -2.11204,4.15991 -4.19416,7.80811 -5.28607,9.26326 -1.09517,1.45841 -3.20938,5.1659 -5.38992,9.45032 -2.178923,4.28116 -4.430161,8.22845 -5.731423,10.05065 -1.329543,1.86026 -3.441027,5.57807 -5.557417,9.78474 -2.214258,4.4008 -4.109327,7.72165 -5.393729,9.45087 -2.781969,3.74445 -10.410638,18.98383 -10.894599,21.76308 -0.438289,2.5166 -0.441546,12.92615 -0.004,14.50419 0.854278,3.08485 2.085392,3.76186 7.438344,4.08921 5.833658,0.35726 7.671078,1.22187 8.498713,4.00057 0.688962,2.31269 0.522569,362.05502 -0.168578,363.84567 -1.40947,3.65202 -0.413265,3.53021 -28.855041,3.53021 -28.468959,0 -27.852314,0.0805 -28.918663,-3.76077 -0.451336,-1.62535 -0.470912,-361.89623 -0.01957,-363.52049 0.795548,-2.86462 2.600893,-3.74663 8.387237,-4.09628 5.200693,-0.31485 6.424194,-0.90321 7.365473,-3.54326 0.538884,-1.51061 0.594894,-13.44219 0.07395,-15.74781 -0.585105,-2.5911 -8.234975,-17.64505 -10.56887,-20.79897 -1.272986,-1.71997 -3.2469,-5.16697 -5.436697,-9.49219 -2.071796,-4.09193 -4.278994,-7.96851 -5.553066,-9.75048 -1.253951,-1.75477 -3.542172,-5.76078 -5.62321,-9.8451 -2.199038,-4.31596 -4.385571,-8.12404 -5.857033,-10.20073 -1.504091,-2.12237 -3.542171,-5.68683 -5.6683427,-9.91416 -1.826007,-3.63026 -4.1446761,-7.79125 -5.152297,-9.24695 -2.94238284,-4.25071 -2.46548994,-7.20886 1.4834262,-9.20398 l 1.4850579,-0.74987 18.3008516,-0.1664 c 19.342738,-0.17564 19.523816,-0.18924 21.115454,-1.60034 1.86244,-1.65091 1.822744,-1.16477 1.822744,-22.08446 0,-20.92077 0.04296,-20.39602 -1.822744,-22.1062 -1.554662,-1.42579 -1.477444,-1.41981 -20.974071,-1.58675 l -18.4601791,-0.15824 -1.4589566,-0.7515 c -4.03701264,-2.07887 -4.43016414,-4.866812 -1.3371554,-9.484033 1.0919064,-1.630791 3.4149265,-5.809723 5.1620855,-9.286096 1.9858766,-3.952178 4.0212386,-7.505766 5.4317986,-9.483494 1.396422,-1.958143 3.590023,-5.779822 5.756978,-10.030531 2.0582,-4.037009 4.393183,-8.125676 5.666713,-9.921231 1.294735,-1.826007 3.580237,-5.839632 5.683029,-9.979958 2.180552,-4.294215 4.25289,-7.921217 5.455185,-9.546572 1.216975,-1.645472 3.267018,-5.243651 5.510103,-9.671092 2.205564,-4.353487 4.297478,-8.031601 5.469863,-9.616171 1.04351,-1.411104 2.899425,-4.493782 4.12347,-6.8505152 3.880943,-7.4704229 6.953289,-9.53079787 11.281762,-7.5650403"
       stroke="none"
       fill="#fcfcfc"
       fill-rule="evenodd"
       style="fill:#fcfcfc;fill-opacity:0;stroke-width:0.543778" />
    <path
       id="path2"
       d="M 58.488659,0.91727598 C 55.902995,1.6975973 54.264048,3.6731424 51.174845,9.7319179 c -0.92551,1.8151311 -2.572614,4.5149891 -3.660713,6.0000471 -1.230027,1.678642 -3.264844,5.253983 -5.379597,9.450318 -2.10279,4.172953 -4.221348,7.896201 -5.547624,9.750484 -1.313226,1.836884 -3.478008,5.634089 -5.581885,9.792359 -2.081041,4.113681 -4.270293,7.958735 -5.551978,9.750484 -1.271897,1.778698 -3.512265,5.707494 -5.61723,9.851083 -1.926062,3.791217 -4.252344,7.90871 -5.170241,9.150699 -2.325739,3.147392 -3.421996,5.041372 -6.5922214,11.39107 -1.519316,3.042982 -3.5856727,6.745022 -4.5916618,8.226273 -2.75641074,4.058761 -2.71617084,6.543819 0.1397514,8.665645 2.1093149,1.56663 1.8303562,1.54433 21.5515568,1.71617 20.371021,0.17672 19.396571,0.0794 21.103491,2.10822 1.211537,1.43992 1.24797,2.06472 1.24797,21.60321 0,19.60266 -0.03317,20.15894 -1.272984,21.63313 -1.649279,1.95977 -1.05493,1.90159 -21.22856,2.07614 -20.0909688,0.17346 -19.8750893,0.15335 -21.8484595,2.02829 -2.48180274,2.35836 -2.34803384,4.5052 0.5367089,8.61399 0.6949482,0.99022 2.8434153,4.90542 4.7732832,8.70045 2.1783754,4.28279 4.3518554,8.07836 5.7292454,10.00606 1.374671,1.9228 3.534013,5.69281 5.671605,9.90056 2.063094,4.06148 4.302918,7.98485 5.567746,9.75321 1.289297,1.80262 3.468762,5.63463 5.578623,9.80921 2.207197,4.36599 4.174043,7.80811 5.42419,9.49219 2.708015,3.6482 10.16158,18.54718 10.776593,21.54231 0.506257,2.46386 0.601419,11.82771 0.145189,14.23393 -0.669391,3.52912 -2.270817,4.48182 -8.075648,4.80265 -5.575902,0.30887 -7.429643,1.26483 -8.041393,4.14849 -0.130508,0.61392 -0.237088,27.17258 -0.237088,59.01949 v 57.90257 l 0.74987,1.49376 c 0.594349,1.18381 1.059824,1.65091 2.241999,2.25015 l 1.492127,0.7564 h 24.459138 c 27.136705,0 26.324842,0.0571 28.029047,-1.96794 1.444272,-1.7167 1.419801,-0.56008 1.322469,-61.78514 l -0.0919,-57.75304 -0.643838,-1.20229 c -1.098971,-2.05167 -2.469293,-2.58729 -7.282275,-2.84668 -6.703149,-0.36107 -7.88424,-1.24742 -8.472064,-6.3584 -0.411097,-3.57153 -0.114738,-11.56507 0.509518,-13.75921 0.847756,-2.97773 8.057165,-16.95554 10.514495,-20.38569 1.446994,-2.0196 3.541089,-5.68031 5.836915,-10.20074 2.190884,-4.31488 4.278994,-7.98157 5.381774,-9.45032 1.095714,-1.4595 3.208286,-5.16263 5.390471,-9.45032 2.17838,-4.28062 4.43016,-8.22954 5.73142,-10.05065 1.30017,-1.82002 3.42091,-5.53838 5.39101,-9.45194 1.78577,-3.54816 4.12238,-7.75971 5.19199,-9.35951 2.39208,-3.57806 2.6792,-4.76513 1.64058,-6.78309 -1.80697,-3.51172 -2.73737,-3.65636 -23.455311,-3.65854 -24.789219,-0.002 -22.235636,2.71944 -22.235636,-23.69948 0,-26.4064 -2.517692,-23.6973 22.026822,-23.70002 20.785915,-0.002 22.001795,-0.18978 23.682615,-3.662343 1.0843,-2.239274 0.83253,-3.168051 -2.00817,-7.414955 -0.97282,-1.454611 -3.26593,-5.599285 -5.09574,-9.20997 -2.06038,-4.065827 -4.07671,-7.580267 -5.29749,-9.231179 -1.25776,-1.702029 -3.20448,-5.118044 -5.38395,-9.450323 C 98.501486,60.249989 96.437847,56.621902 95.083842,54.733905 93.746689,52.870377 91.640638,49.177581 89.522624,44.98342 87.404065,40.787629 85.283874,37.07036 83.920073,35.160066 82.713431,33.470004 80.622064,29.891945 79.272948,27.209488 75.805822,20.316013 74.288136,17.646063 72.437653,15.182748 71.54912,13.999488 69.812834,11.104957 68.579548,8.7498541 64.821499,1.5768786 62.437032,-0.27414209 58.488659,0.91727598 M 34.664654,500.24365 c -1.486689,0.53344 -2.774901,1.7738 -3.259408,3.13813 -0.304515,0.85754 -0.381732,13.45797 -0.381732,62.1288 v 61.05268 l 0.74987,1.32355 c 1.758037,3.10226 1.046229,3.02667 28.527688,3.02667 25.562468,0 25.542351,0 27.321593,-1.77598 1.857546,-1.857 1.766191,1.65146 1.681903,-64.41975 l -0.07826,-60.8607 -0.749869,-1.32464 c -1.552488,-2.74228 0.305602,-2.56664 -27.90126,-2.64005 -20.460193,-0.0533 -24.952345,0.008 -25.910482,0.35129"
       stroke="none"
       fill="#040404"
       fill-rule="evenodd"
       style="stroke-width:0.543778" />
  </g>
</svg>
