<?xml version="1.0" encoding="UTF-8"?>
<svg xmlns="http://www.w3.org/2000/svg" width="24" height="24" viewBox="0 0 24 24" fill="none">
  <path d="M16.9622 16.1568C19.5694 13.1341 19.4418 8.55158 16.5747 5.6845C15.12 4.22962 13.1857 3.42847 11.1284 3.42847C9.071 3.42847 7.1365 4.22962 5.68181 5.6845C4.22693 7.13918 3.42578 9.0735 3.42578 11.131C3.42578 13.1884 4.22693 15.1227 5.68181 16.5774C7.1365 18.0323 9.07081 18.8334 11.1282 18.8334C12.9937 18.8334 14.7568 18.1727 16.1543 16.9652L19.5934 20.4043C19.7049 20.5157 19.8511 20.5716 19.9974 20.5716C20.1437 20.5716 20.29 20.5157 20.4014 20.4041C20.6247 20.1811 20.6247 19.8192 20.4014 19.5961L16.9622 16.1568ZM6.48982 15.7694C5.25095 14.5303 4.56865 12.8831 4.56865 11.131C4.56865 9.37883 5.25095 7.73157 6.49001 6.4927C7.72889 5.25363 9.37615 4.57134 11.1284 4.57134C12.8806 4.57134 14.5278 5.25363 15.7667 6.49251C18.3243 9.05007 18.3243 13.2115 15.7667 15.7692C14.5278 17.0081 12.8806 17.6904 11.1284 17.6904C9.37615 17.6904 7.72889 17.0081 6.48982 15.7694Z" fill="#013047"></path>
</svg>
