<svg id="Layer_1" data-name="Layer 1" xmlns="http://www.w3.org/2000/svg" viewBox="0 0 1000 800"><defs><style>.cls-1{fill:#004b7a;}</style></defs><path class="cls-1" d="M802.61,400.52c2.27-90.85-55.91-140.59-91-162.25a258.57,258.57,0,0,0-52-48.64c-6.06-7-12.92-14.53-20.54-22.14-40.4-40.36-79.83-62.2-117.19-64.92S442.13,117,396,153.51a446.37,446.37,0,0,0-49.23,45.62c-3.54,2.86-7,5.8-10.43,8.85-26.36,5.81-145.74,40.29-138.68,186.1,5.63,116.35,76.21,162.37,116.3,179.22,3.75,4.27,7.6,8.48,11.68,12.56A261,261,0,0,0,348.31,606C366.41,640.84,410,696.07,505,697.68l3.85,0c95.8,0,146.51-60.94,168-96.75,5.68-4.79,11.22-9.79,16.53-15.1a265.17,265.17,0,0,0,20.41-23C747.34,539.48,800.41,488.77,802.61,400.52ZM638.19,192.61,585.84,245a175.42,175.42,0,0,0-152.67,0l-52.36-52.36a246.5,246.5,0,0,1,257.38,0Zm-15.42,322.6c-62.46,62.46-164.08,62.45-226.53,0A160.17,160.17,0,0,1,622.76,288.69C685.22,351.15,685.22,452.76,622.77,515.21ZM300.2,273.31l52.32,52.31a175.42,175.42,0,0,0,0,152.67L300.2,530.6A246.5,246.5,0,0,1,300.2,273.31Zm133,285.59a175,175,0,0,0,152.58,0l52.4,52.4a246.47,246.47,0,0,1-257.38,0Zm285.63-28.26-52.39-52.39a175.36,175.36,0,0,0,0-152.59l52.39-52.39a246.42,246.42,0,0,1,0,257.37ZM514.29,113.06c2.28,0,4.58.09,6.86.25,38.7,2.82,75.47,28.65,103.82,55.58a261.28,261.28,0,0,0-230.39-.27C426.88,141.62,471.23,113.06,514.29,113.06ZM208.38,393.56c-3.11-64.23,18.46-113.31,64.1-145.87a183.67,183.67,0,0,1,47.91-24.16C233.8,315.24,226.62,455,298.94,554.61,261.4,533.71,213,488.53,208.38,393.56ZM508.92,686.94l-3.75,0c-73.64-1.25-114.12-35.51-135.58-65.72a260.69,260.69,0,0,0,281.24-.9C625.3,651.78,580.73,687,508.92,686.94ZM735.27,531.1a260.87,260.87,0,0,0-4.37-265.64C761,291,793.5,333.94,791.84,400.25,790.3,462,762.46,504.3,735.27,531.1Z"/><path class="cls-1" d="M561.8,316a54.1,54.1,0,0,0-17.09-11.48,53.16,53.16,0,0,0-20.94-4.19h-67V503.63h67a53,53,0,0,0,20.94-4.2A53.54,53.54,0,0,0,573.27,471h0a52.64,52.64,0,0,0,4.2-20.89V437.93a52.95,52.95,0,0,0-7.92-28.08,55.56,55.56,0,0,0-8.92-11c-.72-.69-1.45-1.35-2.21-2,.76-.65,1.49-1.31,2.21-2a56.74,56.74,0,0,0,8.9-10.94,52.26,52.26,0,0,0,5.88-13.2,53.27,53.27,0,0,0,2.06-14.85V354a53.1,53.1,0,0,0-4.2-20.94A54,54,0,0,0,561.8,316ZM546.11,450.06a21.8,21.8,0,0,1-1.79,8.94,22.93,22.93,0,0,1-5,7.29,24.37,24.37,0,0,1-7.44,5,22.37,22.37,0,0,1-8.94,1.78H488.12V412.17H523a22,22,0,0,1,8.94,1.78,24.36,24.36,0,0,1,7.43,5,22.7,22.7,0,0,1,5,7.3,22,22,0,0,1,1.78,8.94Zm0-91.6a21.88,21.88,0,0,1-1.79,9,23.54,23.54,0,0,1-5,7.39,24,24,0,0,1-7.4,5,22,22,0,0,1-8.94,1.78H488.12V330.85H523a22,22,0,0,1,8.94,1.78,23.6,23.6,0,0,1,12.41,12.42,21.88,21.88,0,0,1,1.78,8.93Z"/></svg>