<?xml version="1.0" encoding="UTF-8"?>
<svg xmlns="http://www.w3.org/2000/svg" width="23" height="24" viewBox="0 0 23 24" fill="none">
  <path d="M5.74016 20.0013H17.4039C18.9152 20.0013 20.1441 18.7724 20.1441 17.2611C20.1441 17.1607 20.1385 17.0636 20.1273 16.9665V16.9497L18.9219 5.87174C18.7701 4.47766 17.5992 3.42847 16.1985 3.42847H6.94659C5.54694 3.42847 4.37497 4.47989 4.22318 5.87174L3.01772 16.9663C3.00656 17.0634 3.00098 17.1639 3.00098 17.261C3.00098 18.7723 4.22987 20.0011 5.74113 20.0011L5.74016 20.0013ZM4.15186 17.0893L5.35733 5.99706C5.4455 5.18563 6.12859 4.57395 6.94562 4.57395H16.1975C17.0145 4.57395 17.6976 5.1856 17.7858 5.99706L18.9912 17.0916C18.9968 17.1486 19.0002 17.2055 19.0002 17.2602C19.0002 18.1397 18.2825 18.8574 17.403 18.8574L5.74034 18.8585C4.86082 18.8585 4.14313 18.1408 4.14313 17.2613C4.14313 17.2044 4.14628 17.144 4.15186 17.0893Z" fill="#013047"></path>
  <path d="M11.572 13.4294C13.3065 13.4294 14.7151 12.0208 14.7151 10.2863V8.57186C14.7151 8.25709 14.4584 8.00039 14.1436 8.00039C13.8289 8.00039 13.5722 8.2571 13.5722 8.57186V10.2863C13.5722 11.389 12.6748 12.2864 11.572 12.2864C10.4692 12.2864 9.57187 11.389 9.57187 10.2863V8.57186C9.57187 8.25709 9.31515 8.00039 9.00039 8.00039C8.68564 8.00039 8.42892 8.2571 8.42892 8.57186V10.2863C8.42892 12.0208 9.83751 13.4294 11.572 13.4294Z" fill="#013047"></path>
</svg>
