<svg width="64" height="64" viewBox="0 0 64 64" fill="none" xmlns="http://www.w3.org/2000/svg">
<path fill-rule="evenodd" clip-rule="evenodd" d="M33 6.53027L38.6406 11.2314C38.964 11.501 39.0837 11.945 38.9404 12.3408C38.797 12.7365 38.4209 13 38 13H37V15H39V21H37.1699L42.8545 57H47V59H17V57H21.1455L26.8301 21H25V15H27V13H26C25.5791 13 25.203 12.7365 25.0596 12.3408C24.9163 11.945 25.036 11.501 25.3594 11.2314L31 6.53027V5H33V6.53027ZM24.9072 46L23.1699 57H40.8301L39.0928 46H24.9072ZM25.2227 44H38.7773L38.1455 40H25.8545L25.2227 44ZM26.1699 38H37.8301L37.1982 34H26.8018L26.1699 38ZM27.1172 32H36.8828L35.1455 21H28.8545L27.1172 32ZM27 19H37V17H27V19ZM29 15H35V13H29V15ZM28.7627 11H35.2373L32 8.30176L28.7627 11Z" fill="#000667"/>
<path d="M47 13C47.5523 13 48 13.4477 48 14C48 14.5523 47.5523 15 47 15L43 15C42.4477 15 42 14.5523 42 14C42 13.4477 42.4477 13 43 13L47 13Z" fill="#000667"/>
<path d="M41.293 16.293C41.6835 15.9024 42.3165 15.9024 42.707 16.293L45.707 19.293C46.0976 19.6835 46.0976 20.3165 45.707 20.707C45.3165 21.0976 44.6835 21.0976 44.293 20.707L41.293 17.707C40.9024 17.3165 40.9024 16.6835 41.293 16.293Z" fill="#000667"/>
<path d="M44.293 7.29297C44.6835 6.90244 45.3165 6.90244 45.707 7.29297C46.0976 7.68349 46.0976 8.31651 45.707 8.70703L42.707 11.707C42.3165 12.0976 41.6835 12.0976 41.293 11.707C40.9024 11.3165 40.9024 10.6835 41.293 10.293L44.293 7.29297Z" fill="#000667"/>
</svg>
