<svg width="64" height="64" viewBox="0 0 64 64" fill="none" xmlns="http://www.w3.org/2000/svg">
<path d="M13 5.5C13.5523 5.5 14 5.94772 14 6.5V9H54V42H14V57.5C14 58.0523 13.5523 58.5 13 58.5C12.4477 58.5 12 58.0523 12 57.5V6.5C12 5.94771 12.4477 5.5 13 5.5ZM46.4141 40H52V34.4141L46.4141 40ZM39.4141 40H43.5859L52 31.5859V27.4141L39.4141 40ZM34 38.4141V40H36.5859L52 24.5859V20.4141L34 38.4141ZM14 40H32V11H14V40ZM34 31.4141V35.5859L52 17.5859V13.4141L34 31.4141ZM34 24.4141V28.5859L51.5859 11H47.4141L34 24.4141ZM34 17.4141V21.5859L44.5859 11H40.4141L34 17.4141ZM34 14.5859L37.5859 11H34V14.5859Z" fill="#000667"/>
</svg>
