<svg width="64" height="64" viewBox="0 0 64 64" fill="none" xmlns="http://www.w3.org/2000/svg">
<path d="M13.1885 50C13.1885 52.2091 14.9794 54 17.1885 54C19.3976 54 21.1884 52.2091 21.1885 50H23.1885L23.1934 50.2061C23.3006 52.3195 25.0485 54 27.1885 54C29.3976 54 31.1884 52.2091 31.1885 50H33.1885L33.1934 50.2061C33.3006 52.3195 35.0485 54 37.1885 54C39.3976 54 41.1884 52.2091 41.1885 50H43.1885L43.1934 50.2061C43.3006 52.3195 45.0485 54 47.1885 54C49.3976 54 51.1884 52.2091 51.1885 50H53.1885C53.1884 53.3137 50.5022 56 47.1885 56C45.1011 56 43.2633 54.9337 42.1885 53.3165C41.1136 54.9337 39.2758 56 37.1885 56C35.1011 56 33.2633 54.9337 32.1885 53.3165C31.1136 54.9337 29.2758 56 27.1885 56C25.1011 56 23.2633 54.9337 22.1885 53.3165C21.1136 54.9337 19.2758 56 17.1885 56C13.8748 56 11.1885 53.3137 11.1885 50H13.1885Z" fill="#000667"/>
<path d="M17.4277 29.3946C16.5719 34.509 18.1835 38.3886 20.874 40.7276C23.5842 43.0834 27.4879 43.9646 31.3818 42.8692L31.9238 44.795C27.4226 46.0613 22.8118 45.0618 19.5615 42.2364C16.2922 39.394 14.4968 34.7915 15.4551 29.0645L17.4277 29.3946Z" fill="#000667"/>
<path fill-rule="evenodd" clip-rule="evenodd" d="M20.4307 7.29302C20.8212 6.90249 21.4552 6.90249 21.8457 7.29302L32.4521 17.8995L34.5732 15.7784C34.9638 15.3878 35.5968 15.3878 35.9873 15.7784L36.6943 16.4854L38.8154 14.3643C39.206 13.9738 39.8399 13.9738 40.2305 14.3643L45.8867 20.0206C46.2772 20.411 46.2771 21.0441 45.8867 21.4346L43.7646 23.5557L44.4727 24.2637C44.863 24.6543 44.8631 25.2873 44.4727 25.6778L42.3516 27.7989L52.958 38.4053C53.3484 38.7957 53.3482 39.4288 52.958 39.8194L48.0078 44.7696C47.6173 45.16 46.9842 45.16 46.5938 44.7696L35.9873 34.1631L35.2803 34.8702C34.8898 35.2606 34.2567 35.2605 33.8662 34.8702L25.3809 26.3848C24.9904 25.9943 24.9904 25.3613 25.3809 24.9707L26.0879 24.2637L15.4814 13.6573C15.0909 13.2667 15.0909 12.6328 15.4814 12.2422L20.4307 7.29302ZM37.4014 32.7491L47.3008 42.6485L50.8369 39.1124L40.9375 29.2129L37.4014 32.7491ZM27.502 25.6778L34.5732 32.7491L40.2295 27.0918C40.2324 27.089 40.2354 27.0859 40.2383 27.0831L42.3516 24.9707L35.2803 17.8995L27.502 25.6778ZM17.6025 12.9493L27.502 22.8497L31.0381 19.3135L21.1387 9.41411L17.6025 12.9493ZM38.1084 17.8995L42.3516 22.1426L43.7656 20.7276L39.5234 16.4854L38.1084 17.8995Z" fill="#000667"/>
<path d="M21.1611 29.6163C20.258 36.2866 25.7066 40.1688 30.8271 38.9043L31.3076 40.8467C24.8907 42.4316 18.0759 37.4921 19.1787 29.3477L21.1611 29.6163Z" fill="#000667"/>
<path d="M25.2373 30.0372C24.814 33.3401 27.5072 35.2474 30.0098 34.6485L30.4756 36.5928C26.6858 37.5 22.6427 34.5485 23.2539 29.7823L25.2373 30.0372Z" fill="#000667"/>
</svg>
