<svg width="64" height="64" viewBox="0 0 64 64" fill="none" xmlns="http://www.w3.org/2000/svg">
<path d="M33.945 45C34.4985 45.0003 34.9476 45.4479 34.9476 46C34.9476 46.5521 34.4985 46.9997 33.945 47H32.4411C31.8874 47 31.4385 46.5523 31.4385 46C31.4385 45.4477 31.8874 45 32.4411 45H33.945Z" fill="#000667"/>
<path d="M38.9581 45C39.5116 45.0003 39.9607 45.4479 39.9607 46C39.9607 46.5521 39.5116 46.9997 38.9581 47H37.4542C36.9005 47 36.4516 46.5523 36.4516 46C36.4516 45.4477 36.9005 45 37.4542 45H38.9581Z" fill="#000667"/>
<path d="M43.9712 45C44.5247 45.0003 44.9738 45.4479 44.9738 46C44.9738 46.5521 44.5247 46.9997 43.9712 47H42.4673C41.9135 47 41.4647 46.5523 41.4647 46C41.4647 45.4477 41.9135 45 42.4673 45H43.9712Z" fill="#000667"/>
<path fill-rule="evenodd" clip-rule="evenodd" d="M44.9738 36C45.4164 36.0002 45.8071 36.29 45.9343 36.7129L47.2238 41H48.9833C49.3728 41 49.7272 41.2252 49.8919 41.5771L53.1309 48.5H53.9974C54.5509 48.5002 55 48.9478 55 49.5V52.5C55 52.674 54.9543 52.845 54.8678 52.9961L52.8626 56.4961C52.6841 56.8076 52.3518 56.9999 51.9921 57H27.428C27.1485 57 26.8815 56.8834 26.6917 56.6787L20.676 50.1787C20.4059 49.8868 20.3342 49.4625 20.4939 49.0986C20.6537 48.735 21.0142 48.5 21.4123 48.5H23.9365L29.6516 41.375L29.728 41.291C29.9146 41.1059 30.1686 41.0001 30.4349 41H32.8758L35.5919 36.4854L35.6663 36.3779C35.855 36.1411 36.1435 36 36.4516 36H44.9738ZM27.8666 55H51.4105L52.9948 52.2344V50.5H23.7025L27.8666 55ZM26.5057 48.5H50.9181L48.3449 43H30.9176L26.5057 48.5ZM35.2149 41H45.1305L44.2277 38H37.0195L35.2149 41Z" fill="#000667"/>
<path fill-rule="evenodd" clip-rule="evenodd" d="M17.2285 9.93066C19.5957 9.93093 21.5156 11.8451 21.5161 14.2061C21.5161 16.5674 19.596 18.4822 17.2285 18.4824C14.8611 18.4822 12.9419 16.5674 12.9419 14.2061C12.9424 11.8451 14.8613 9.93092 17.2285 9.93066ZM17.2285 11.9307C15.9688 11.9309 14.9476 12.9497 14.9472 14.2061C14.9472 15.4628 15.9685 16.4822 17.2285 16.4824C18.4885 16.4822 19.5108 15.4628 19.5108 14.2061C19.5104 12.9497 18.4882 11.9309 17.2285 11.9307Z" fill="#000667"/>
<path fill-rule="evenodd" clip-rule="evenodd" d="M17.2285 6C21.7729 6.00007 25.457 9.67453 25.457 14.207L25.4512 14.5098C25.3318 17.6378 23.3935 20.6931 21.6218 22.8818C20.9652 23.6931 20.308 24.4098 19.7341 25H30.4359C33.2043 25.0003 35.4489 27.2387 35.4489 30C35.4489 32.7613 33.2043 34.9997 30.4359 35H17.4018C15.7406 35 14.394 36.3431 14.394 38C14.394 39.6569 15.7406 41 17.4018 41H26.4254C26.9789 41.0003 27.428 41.4479 27.428 42C27.428 42.5521 26.9789 42.9997 26.4254 43H17.4018C14.6332 43 12.3887 40.7614 12.3887 38C12.3887 35.2386 14.6332 33 17.4018 33H30.4359C32.0968 32.9997 33.4437 31.6567 33.4437 30C33.4437 28.3433 32.0968 27.0003 30.4359 27H17.4018C17.3656 27 17.3294 26.9979 17.2941 26.9941C17.0432 27.0105 16.7876 26.9369 16.5833 26.7656L16.6606 26.6729L16.6596 26.6719L16.5823 26.7646L16.5803 26.7637C16.5803 26.7637 16.5775 26.7605 16.5754 26.7588C16.5711 26.7551 16.5646 26.7497 16.5568 26.7432C16.5413 26.7299 16.5186 26.7111 16.4903 26.6865C16.4333 26.6373 16.3516 26.565 16.2484 26.4727C16.042 26.2878 15.749 26.019 15.3995 25.6797C14.7019 25.0023 13.7697 24.0363 12.8352 22.8818C11.0635 20.6931 9.12527 17.6379 9.00587 14.5098L9 14.207C9 9.67449 12.6841 6 17.2285 6ZM17.2285 8C13.7916 8 11.0052 10.7791 11.0052 14.207L11.0101 14.4414C11.1059 16.8755 12.6675 19.4897 14.3959 21.625C15.2676 22.7018 16.1416 23.6091 16.7987 24.2471C16.9553 24.3992 17.0993 24.5358 17.2275 24.6553C17.356 24.5356 17.5013 24.3995 17.6584 24.2471C18.3154 23.6091 19.1895 22.7018 20.0611 21.625C21.7895 19.4897 23.3512 16.8755 23.4469 14.4414L23.4518 14.207C23.4518 10.7791 20.6654 8.00007 17.2285 8Z" fill="#000667"/>
</svg>
