<?xml version="1.0" encoding="utf-8"?>
<!-- Generator: Adobe Illustrator 25.2.3, SVG Export Plug-In . SVG Version: 6.00 Build 0)  -->
<svg version="1.1" id="Layer_1" xmlns="http://www.w3.org/2000/svg" xmlns:xlink="http://www.w3.org/1999/xlink" x="0px" y="0px"
	 viewBox="0 0 640 640" style="enable-background:new 0 0 640 640;" xml:space="preserve">
<style type="text/css">
	.st0{fill:none;stroke:#000667;stroke-width:14;stroke-miterlimit:10;}
	.st1{fill:none;stroke:#000667;stroke-width:15;stroke-miterlimit:10;}
	.st2{fill:#000667;stroke:#000667;stroke-width:0.5;stroke-miterlimit:10;}
	.st3{fill:#000667;stroke:#000667;stroke-width:6;stroke-miterlimit:10;}
	.st4{fill-rule:evenodd;clip-rule:evenodd;fill:#000667;}
</style>
<g id="icomoon-ignore">
</g>
<path class="st0" d="M202.4,43.8L91.7,177.1c-6.2,7.5-0.9,18.9,8.9,18.9H322c9.8,0,15.1-11.4,8.9-18.9L220.2,43.8
	C215.5,38.2,207,38.2,202.4,43.8z"/>
<path class="st1" d="M295.4,631.5H128c-10,0-18.1-8.1-18.1-18.1V214.1c0-10,8.1-18.1,18.1-18.1h167.4c10,0,18.1,8.1,18.1,18.1v399.2
	C313.5,623.4,305.4,631.5,295.4,631.5z"/>
<rect x="241.7" y="249.5" class="st2" width="42.9" height="128"/>
<rect x="284.6" y="249.5" class="st2" width="15" height="128"/>
<rect x="211.7" y="249.5" class="st2" width="15" height="128"/>
<path class="st3" d="M208.7,7.8l-26.4,33.8c-1.4,1.8-0.1,4.5,2.2,4.5h52.9c2.3,0,3.6-2.7,2.2-4.5L213.1,7.8
	C212,6.4,209.8,6.4,208.7,7.8z"/>
<rect x="211.7" y="409.5" class="st2" width="15" height="128"/>
<rect x="241.7" y="409.5" class="st2" width="42.9" height="128"/>
<rect x="284.6" y="409.5" class="st2" width="15" height="128"/>
<path class="st4" d="M583.6,401c0,7.6-8.5,13.8-18.8,11H417.1c-10.4,2.2-18.7-4-18.7-11.6c0-7.6,8.5-13.8,18.8-20.4H565
	C575.3,387.2,583.7,393.4,583.6,401z"/>
<path class="st4" d="M559.3,270.1c5.1,6.6,2,15.1-7,18.9l-132.8,56c-9,3.8-20.5,1.5-25.6-5.2c-5.1-6.6-2-15.1,7-18.9l132.8-56
	C542.7,261.2,554.2,263.5,559.3,270.1z"/>
<path class="st4" d="M386.6,457.2c5.3-6.6,16.8-8.8,25.7-4.9l137.4,60c8.9,3.9,11.9,12.4,6.6,19c-5.3,6.6-16.8,8.8-25.7,4.9
	l-137.4-60C384.3,472.2,381.3,463.7,386.6,457.2z"/>
</svg>
