<svg width="64" height="64" viewBox="0 0 64 64" fill="none" xmlns="http://www.w3.org/2000/svg">
<path fill-rule="evenodd" clip-rule="evenodd" d="M30.2022 13C31.6417 13 33.0647 13.3108 34.3731 13.9111L48.5606 20.4209C48.8613 20.1105 49.1913 19.8737 49.5518 19.7178C50.1542 19.4574 50.7445 19.4648 51.252 19.5938C52.482 19.9065 53.1337 20.8236 53.4307 21.6914C53.6321 22.2799 53.6905 22.8965 53.668 23.4219L55.6504 25.1035C56.3733 25.7166 56.8552 26.5668 57.0098 27.502L57.3408 29.5098L58.2744 31.0918C58.8273 32.0283 58.7996 33.198 58.2031 34.1074C57.768 34.7707 57.0761 35.223 56.294 35.3555L54.5137 35.6572C53.8797 35.7646 53.2277 35.6651 52.6543 35.374L48.1309 33.0771L44.2217 33.5732L48.7344 48H55.8389V50H6.83889V48H13.6319C11.8695 44.263 8.52575 37.309 5.94045 30.2012C4.20098 25.4188 5.05388 21.129 7.03518 18.0312C8.98204 14.9875 12.0957 13 14.9512 13H30.2022ZM14.9512 15C12.9643 15 10.4123 16.4632 8.71975 19.1094C7.06183 21.7017 6.30158 25.342 7.82033 29.5176C10.5779 37.0991 14.2104 44.4998 15.8428 48H19.9414L21.9053 38.4092L21.9453 38.2676C22.0611 37.9491 22.3325 37.7071 22.6699 37.6328L27.6504 36.5391L27.751 36.5225C27.9885 36.4953 28.2295 36.5534 28.4287 36.6895C28.6563 36.8449 28.8097 37.0881 28.8526 37.3604L30.5293 48H34.3067L38.7422 32.8594L38.794 32.7217C38.9369 32.4118 39.231 32.1923 39.5762 32.1484L48.1846 31.0547C48.3832 31.0295 48.5852 31.0646 48.7637 31.1553L53.5596 33.5908C53.7507 33.6879 53.9684 33.7204 54.1797 33.6846L55.96 33.3838C56.1939 33.3442 56.4011 33.2081 56.5313 33.0098C56.7094 32.7379 56.7179 32.3883 56.5528 32.1084L55.5244 30.3682C55.4617 30.2618 55.4196 30.1443 55.3994 30.0225L55.0362 27.8281C54.9589 27.3605 54.7179 26.9355 54.3565 26.6289L51.5244 24.2266L51.6387 23.6504C51.6985 23.3462 51.6998 22.8086 51.5391 22.3389C51.3877 21.8966 51.1426 21.6288 50.7588 21.5312C50.6002 21.491 50.4722 21.4986 50.3447 21.5537C50.2063 21.6137 49.973 21.7729 49.6895 22.2051L49.2178 22.9238L33.5391 15.7295C32.4923 15.2492 31.3539 15 30.2022 15H14.9512ZM23.7334 39.4463L21.9834 48H28.5049L27.042 38.7197L23.7334 39.4463ZM36.3897 48H40.3711L37.6963 43.54L36.3897 48ZM40.4766 34.0498L38.461 40.9277L42.7031 48H46.6397L42.2071 33.8291L40.4766 34.0498Z" fill="#000667"/>
</svg>
