<svg width="60" height="60" viewBox="0 0 60 60" fill="none" xmlns="http://www.w3.org/2000/svg">
<g clip-path="url(#clip0)">
<path fill-rule="evenodd" clip-rule="evenodd" d="M10.1758 51.5C10.1758 54.4453 12.2246 56.5242 14.4 56.5242C16.5754 56.5242 18.6242 54.4453 18.6242 51.5H20.7758C20.7758 55.3547 18.0246 58.6758 14.4 58.6758C10.7754 58.6758 8.02417 55.3547 8.02417 51.5H10.1758Z" fill="#000667"/>
<path fill-rule="evenodd" clip-rule="evenodd" d="M24.9999 58.6758C21.3754 58.6758 18.6241 55.3547 18.6241 51.5H20.7757C20.7757 54.4453 22.8245 56.5242 24.9999 56.5242C27.1754 56.5242 29.2241 54.4453 29.2241 51.5H31.3757C31.3757 55.3547 28.6245 58.6758 24.9999 58.6758Z" fill="#000667"/>
<path fill-rule="evenodd" clip-rule="evenodd" d="M46.1 58.6758C42.4754 58.6758 39.7242 55.3547 39.7242 51.5H41.8758C41.8758 54.4453 43.9246 56.5242 46.1 56.5242C48.2754 56.5242 50.3242 54.4453 50.3242 51.5H52.4758C52.4758 55.3547 49.7246 58.6758 46.1 58.6758Z" fill="#000667"/>
<path fill-rule="evenodd" clip-rule="evenodd" d="M31.2757 51.5C31.2757 54.4453 33.3245 56.5242 35.4999 56.5242C37.6754 56.5242 39.7241 54.4453 39.7241 51.5H41.8757C41.8757 55.3547 39.1245 58.6758 35.4999 58.6758C31.8754 58.6758 29.1241 55.3547 29.1241 51.5H31.2757Z" fill="#000667"/>
<path fill-rule="evenodd" clip-rule="evenodd" d="M16.3 3C15.7523 3 15.3 3.45228 15.3 4V42.1C15.3 42.6477 15.7523 43.1 16.3 43.1H44.3C44.8477 43.1 45.3 42.6477 45.3 42.1V4C45.3 3.45228 44.8477 3 44.3 3H16.3ZM13.3 4C13.3 2.34772 14.6477 1 16.3 1H44.3C45.9523 1 47.3 2.34772 47.3 4V42.1C47.3 43.7523 45.9523 45.1 44.3 45.1H16.3C14.6477 45.1 13.3 43.7523 13.3 42.1V4Z" fill="#000667"/>
<path fill-rule="evenodd" clip-rule="evenodd" d="M16.9 17.5H43.6V41.5H16.9V17.5ZM18.9 19.5V39.5H41.6V19.5H18.9Z" fill="#000667"/>
<path fill-rule="evenodd" clip-rule="evenodd" d="M16.9 4.69995H43.6V15.9H16.9V4.69995ZM18.9 6.69995V13.9H41.6V6.69995H18.9Z" fill="#000667"/>
<path fill-rule="evenodd" clip-rule="evenodd" d="M25.1 40.5V18.5H27.1V40.5H25.1Z" fill="#000667"/>
<path fill-rule="evenodd" clip-rule="evenodd" d="M33.3 40.5V18.5H35.3V40.5H33.3Z" fill="#000667"/>
<path fill-rule="evenodd" clip-rule="evenodd" d="M42.6 26.8H17.9V24.8H42.6V26.8Z" fill="#000667"/>
<path fill-rule="evenodd" clip-rule="evenodd" d="M34.3 34.1H17.9V32.1H34.3V34.1Z" fill="#000667"/>
</g>
<defs>
<clipPath id="clip0">
<rect width="44.5" height="57.7" fill="white" transform="translate(8 1)"/>
</clipPath>
</defs>
</svg>
