<svg width="64" height="64" viewBox="0 0 64 64" fill="none" xmlns="http://www.w3.org/2000/svg">
<path d="M9 49C9 51.7614 11.2386 54 14 54C16.7614 54 19 51.7614 19 49H21C21 51.7614 23.2386 54 26 54C28.7614 54 31 51.7614 31 49H33C33 51.7614 35.2386 54 38 54C40.7614 54 43 51.7614 43 49H45C45 51.7614 47.2386 54 50 54C52.7614 54 55 51.7614 55 49H57C57 52.866 53.866 56 50 56C47.453 56 45.2247 54.6392 44 52.6055C42.7753 54.6392 40.547 56 38 56C35.453 56 33.2247 54.6392 32 52.6055C30.7753 54.6392 28.547 56 26 56C23.453 56 21.2247 54.6392 20 52.6055C18.7753 54.6392 16.547 56 14 56C10.134 56 7 52.866 7 49H9Z" fill="#000667"/>
<path d="M9 40C9 42.7614 11.2386 45 14 45C16.7614 45 19 42.7614 19 40H21C21 42.7614 23.2386 45 26 45C28.7614 45 31 42.7614 31 40H33C33 42.7614 35.2386 45 38 45C40.7614 45 43 42.7614 43 40H45C45 42.7614 47.2386 45 50 45C52.7614 45 55 42.7614 55 40H57C57 43.866 53.866 47 50 47C47.453 47 45.2247 45.6392 44 43.6055C42.7753 45.6392 40.547 47 38 47C35.453 47 33.2247 45.6392 32 43.6055C30.7753 45.6392 28.547 47 26 47C23.453 47 21.2247 45.6392 20 43.6055C18.7753 45.6392 16.547 47 14 47C10.134 47 7 43.866 7 40H9Z" fill="#000667"/>
<path d="M37.5264 8C42.998 8.00001 46.9128 9.9633 49.4404 13.0039C51.9432 16.0147 53 19.9768 53 23.8574V26.6045C51.7966 25.655 50.7994 23.1973 49.0771 21.5615C48.8387 21.3244 48.5756 21.1051 48.2842 20.9131C47.4833 20.3597 46.5385 20 45.3818 20C45.3578 20 45.3351 20.0014 45.3135 20.0029C45.2336 20.0001 45.1528 20 45.0713 20C42.5872 20 40 22.1531 40 25.5C40 28.8469 42.5872 31 45.0713 31H56V33H45.0713C41.4841 33 38 29.9529 38 25.5C38 21.6943 40.5452 18.9168 43.5244 18.1895C42.916 18.0682 42.2689 18 41.5791 18C38.1901 18 35.9049 19.5094 34.4102 22.0752C32.8744 24.7116 32.1582 28.5055 32.1582 33H30.1582C30.1582 28.3519 30.8887 24.1462 32.6816 21.0684C34.5158 17.9199 37.4418 16 41.5791 16C45.802 16.0001 48.6835 18.0562 50.6504 20.2861C50.2 18.0491 49.3043 15.9688 47.9023 14.2822C45.7985 11.7514 42.4757 10 37.5264 10C29.13 10 25.0472 15.4051 21.4424 21.2402C19.6736 24.1034 17.9781 27.1489 15.9688 29.4287C13.9184 31.755 11.4237 33.4287 8 33.4287V31.4287C10.6553 31.4287 12.6474 30.173 14.4688 28.1064C16.3309 25.9936 17.8917 23.1822 19.7412 20.1885C23.3732 14.3093 27.9754 8 37.5264 8Z" fill="#000667"/>
</svg>
