<svg width="64" height="64" viewBox="0 0 64 64" fill="none" xmlns="http://www.w3.org/2000/svg">
<path d="M13 52C13 54.2091 14.7909 56 17 56C19.2091 56 21 54.2091 21 52H23C23 54.2091 24.7909 56 27 56C29.2091 56 31 54.2091 31 52H33C33 54.2091 34.7909 56 37 56C39.2091 56 41 54.2091 41 52H43C43 54.2091 44.7909 56 47 56C49.2091 56 51 54.2091 51 52H53C53 55.3137 50.3137 58 47 58C44.9126 58 43.0748 56.9336 42 55.3164C40.9252 56.9336 39.0874 58 37 58C34.9126 58 33.0748 56.9336 32 55.3164C30.9252 56.9336 29.0874 58 27 58C24.9126 58 23.0748 56.9336 22 55.3164C20.9252 56.9336 19.0874 58 17 58C13.6863 58 11 55.3137 11 52H13ZM13 43C13 45.2091 14.7909 47 17 47C19.2091 47 21 45.2091 21 43H23C23 45.2091 24.7909 47 27 47C29.2091 47 31 45.2091 31 43H33C33 45.2091 34.7909 47 37 47C39.2091 47 41 45.2091 41 43H43C43 45.2091 44.7909 47 47 47C49.2091 47 51 45.2091 51 43H53C53 46.3137 50.3137 49 47 49C44.9126 49 43.0748 47.9336 42 46.3164C40.9252 47.9336 39.0874 49 37 49C34.9126 49 33.0748 47.9336 32 46.3164C30.9252 47.9336 29.0874 49 27 49C24.9126 49 23.0748 47.9336 22 46.3164C20.9252 47.9336 19.0874 49 17 49C13.6863 49 11 46.3137 11 43H13ZM32 6C38.6274 6 44 11.3726 44 18C44 22.7415 41.0506 27.4753 38.2783 30.9092C36.8719 32.6512 35.4675 34.1111 34.416 35.1348C33.8899 35.6469 33.4502 36.0512 33.1406 36.3291C32.9858 36.4681 32.8629 36.576 32.7783 36.6494C32.7362 36.686 32.7034 36.714 32.6807 36.7334C32.6694 36.743 32.6605 36.7506 32.6543 36.7559C32.6513 36.7584 32.6492 36.7612 32.6475 36.7627L32.6445 36.7646C32.6445 36.7646 32.6436 36.7654 32 36L32.6436 36.7656C32.2716 37.0783 31.7284 37.0783 31.3564 36.7656L32 36L31.3555 36.7646L31.3525 36.7627C31.3508 36.7612 31.3487 36.7584 31.3457 36.7559C31.3395 36.7506 31.3306 36.743 31.3193 36.7334C31.2966 36.714 31.2638 36.686 31.2217 36.6494C31.1371 36.576 31.0142 36.4681 30.8594 36.3291C30.5498 36.0512 30.1101 35.6469 29.584 35.1348C28.5325 34.1111 27.1281 32.6512 25.7217 30.9092C22.9494 27.4753 20 22.7415 20 18C20 11.3726 25.3726 6 32 6ZM32 8C26.4772 8 22 12.4772 22 18C22 22.0084 24.5507 26.2747 27.2783 29.6533C28.6217 31.3173 29.9676 32.717 30.9785 33.7012C31.3793 34.0913 31.7279 34.414 32 34.6621C32.2721 34.414 32.6207 34.0913 33.0215 33.7012C34.0324 32.717 35.3783 31.3173 36.7217 29.6533C39.4493 26.2747 42 22.0084 42 18C42 12.4772 37.5228 8 32 8ZM32 12C35.3137 12 38 14.6863 38 18C38 21.3137 35.3137 24 32 24C28.6863 24 26 21.3137 26 18C26 14.6863 28.6863 12 32 12ZM32 14C29.7909 14 28 15.7909 28 18C28 20.2091 29.7909 22 32 22C34.2091 22 36 20.2091 36 18C36 15.7909 34.2091 14 32 14Z" fill="#000667"/>
</svg>
