<svg width="64" height="64" viewBox="0 0 64 64" fill="none" xmlns="http://www.w3.org/2000/svg">
<path d="M31.0356 9.74316C31.3301 8.77242 32.7696 8.80486 32.9878 9.84082L33.6655 13.0625C44.4874 13.8726 53.1262 22.5113 53.937 33.333L57.1587 34.0117L57.2563 34.0361C58.2271 34.3306 58.1947 35.7702 57.1587 35.9883L53.937 36.666C53.1267 47.4882 44.4877 56.1264 33.6655 56.9365L32.9878 60.1592C32.7696 61.1951 31.3301 61.2276 31.0356 60.2568L31.0112 60.1592L30.3325 56.9365C19.5112 56.1255 10.8723 47.4876 10.062 36.666L6.84033 35.9883C5.80485 35.7699 5.77245 34.3308 6.74268 34.0361L6.84033 34.0117L10.062 33.333C10.8727 22.5119 19.5115 13.8734 30.3325 13.0625L31.0112 9.84082L31.0356 9.74316ZM31.9683 54.999C31.9787 54.999 31.9891 55 31.9995 55C32.0095 55 32.0198 54.999 32.0298 54.999L34.6509 42.5479C33.821 42.8393 32.9289 43 31.9995 43C31.0695 43 30.1774 42.8387 29.3472 42.5469L31.9683 54.999ZM12.1089 37.0967C13.0851 46.4673 20.5314 53.9127 29.9019 54.8896L27.0522 41.3613L21.7065 46.707L20.2925 45.293L25.6382 39.9453L12.1089 37.0967ZM38.3589 39.9443L43.7065 45.293L42.2925 46.707L36.9448 41.3604L34.0962 54.8896C43.4674 53.9135 50.9138 46.4679 51.8901 37.0967L38.3589 39.9443ZM31.9995 29C28.686 29.0002 25.9995 31.6864 25.9995 35C25.9995 38.3136 28.686 40.9998 31.9995 41C35.3132 41 37.9995 38.3137 37.9995 35C37.9995 31.6863 35.3132 29 31.9995 29ZM11.9995 34.9688V35.0303L24.4517 37.6523C24.16 36.8222 23.9995 35.9299 23.9995 35C23.9995 34.0698 24.1598 33.1771 24.4517 32.3467L11.9995 34.9688ZM39.5474 32.3477C39.8391 33.1779 39.9995 34.07 39.9995 35C39.9995 35.9296 39.8389 36.8214 39.5474 37.6514L51.9985 35.0303C51.9986 35.0202 51.9995 35.0101 51.9995 35C51.9995 34.9896 51.9986 34.9792 51.9985 34.9688L39.5474 32.3477ZM29.9019 15.1094C20.5317 16.0862 13.0855 23.5321 12.1089 32.9023L25.6372 30.0527L20.2925 24.707L21.7065 23.293L27.0522 28.6377L29.9019 15.1094ZM36.9448 28.6387L42.2925 23.293L43.7065 24.707L38.3599 30.0537L51.8901 32.9023C50.9134 23.5316 43.4672 16.0854 34.0962 15.1094L36.9448 28.6387ZM29.3472 27.4521C30.1773 27.1604 31.0696 27.0001 31.9995 27C32.9288 27 33.8211 27.1598 34.6509 27.4512L32.0298 15H31.9683L29.3472 27.4521ZM17.9995 3C18.5518 3 18.9995 3.44772 18.9995 4C18.9995 4.55228 18.5518 5 17.9995 5C16.2778 5.00015 14.6862 5.87846 13.563 7.3584C12.6 8.62747 11.9995 10.322 11.9995 12.2012C11.9995 14.2373 12.7043 16.0549 13.8101 17.3506C14.1686 17.7707 14.1188 18.4022 13.6987 18.7607C13.2788 19.1188 12.648 19.069 12.2896 18.6494C10.8622 16.9771 9.99955 14.6939 9.99951 12.2012C9.99951 9.8992 10.7349 7.77724 11.9702 6.14941C13.4112 4.25073 15.5588 3.00015 17.9995 3ZM45.9995 3C48.4403 3 50.5877 4.25073 52.0288 6.14941C53.2642 7.77727 53.9995 9.89909 53.9995 12.2012C53.9995 14.694 53.1369 16.977 51.7095 18.6494C51.3509 19.0689 50.7202 19.1189 50.3003 18.7607C49.8805 18.4022 49.8307 17.7706 50.189 17.3506C51.2948 16.0549 51.9995 14.2374 51.9995 12.2012C51.9995 10.3219 51.3992 8.6275 50.436 7.3584C49.3127 5.87846 47.7214 5 45.9995 5C45.4474 4.99976 44.9995 4.55214 44.9995 4C44.9995 3.44786 45.4474 3.00024 45.9995 3ZM19.9995 7C20.5518 7 20.9995 7.44772 20.9995 8C20.9995 8.55228 20.5518 9 19.9995 9C19.1699 9.00015 18.3798 9.42209 17.8062 10.1777C17.3142 10.826 16.9995 11.7033 16.9995 12.6865C16.9996 13.7522 17.3692 14.6909 17.9321 15.3506C18.2906 15.7707 18.2399 16.4022 17.8198 16.7607C17.3998 17.1187 16.7691 17.0691 16.4106 16.6494C15.5262 15.6131 14.9996 14.2086 14.9995 12.6865C14.9995 11.2805 15.4482 9.9758 16.2124 8.96875C17.1039 7.79411 18.4508 7.00015 19.9995 7ZM43.9995 7C45.5483 7 46.895 7.79411 47.7866 8.96875C48.5509 9.97583 48.9995 11.2804 48.9995 12.6865C48.9995 14.2087 48.4729 15.6131 47.5884 16.6494C47.2299 17.069 46.5991 17.1189 46.1792 16.7607C45.7595 16.4022 45.7087 15.7706 46.0669 15.3506C46.63 14.6909 46.9995 13.7523 46.9995 12.6865C46.9995 11.7032 46.6849 10.8261 46.1929 10.1777C45.6191 9.42209 44.8292 9 43.9995 9C43.4474 8.99976 42.9995 8.55214 42.9995 8C42.9995 7.44786 43.4474 7.00024 43.9995 7Z" fill="#000667"/>
</svg>
