<svg width="64" height="64" viewBox="0 0 64 64" fill="none" xmlns="http://www.w3.org/2000/svg">
<path fill-rule="evenodd" clip-rule="evenodd" d="M54.4735 25.1523C55.1256 24.7584 55.9999 25.2206 55.9999 26.0215V53.9902C55.9998 54.5478 55.5478 54.9999 54.9901 55H9.00967C8.48704 54.9998 8.0567 54.6027 8.00478 54.0938L7.9999 53.9902V50.0039L8.00478 49.9043C8.02775 49.673 8.13017 49.4557 8.2958 49.29L20.287 37.2988L20.3524 37.2393C20.6648 36.9769 21.1059 36.9278 21.4677 37.1162L21.5438 37.1611L31.9228 43.7656L54.3466 25.2422L54.4735 25.1523ZM9.9999 50.4141V53H19.9999V40.4131L9.9999 50.4141ZM21.9999 53H30.9999V45.5488L21.9999 39.8203V53ZM32.9999 45.4707V53H41.9999V38.0352L32.9999 45.4707ZM43.9999 36.3828V53H53.9999V28.1221L43.9999 36.3828Z" fill="#000667"/>
<path fill-rule="evenodd" clip-rule="evenodd" d="M55.0937 9.00488C55.6027 9.0568 55.9998 9.48712 55.9999 10.0098V18.9756C55.9999 19.8754 54.9115 20.3267 54.2753 19.6904L50.4882 15.9033L32.6698 31.7422C32.3326 32.0419 31.8375 32.0818 31.4569 31.8398L21.1093 25.2549L9.67568 35.7373C9.26856 36.1104 8.63575 36.0829 8.2626 35.6758C7.88954 35.2687 7.91711 34.6359 8.32412 34.2627L20.3183 23.2676C20.655 22.959 21.1574 22.9152 21.5429 23.1602L31.8993 29.751L49.0712 14.4863L45.3095 10.7246C44.6734 10.0884 45.1246 9.00011 46.0243 9H54.9901L55.0937 9.00488ZM53.9999 16.585V11H48.4149L53.9999 16.585Z" fill="#000667"/>
</svg>
