<svg width="64" height="64" viewBox="0 0 64 64" fill="none" xmlns="http://www.w3.org/2000/svg">
<path d="M22.9998 37C24.1043 37.0001 24.9998 37.8955 24.9998 39C24.9998 39.7397 24.5969 40.3835 23.9998 40.7295V46.8252C25.1643 46.413 25.9998 45.3057 25.9998 44C25.9998 43.4477 26.4476 43 26.9998 43C27.5521 43.0001 27.9998 43.4478 27.9998 44C27.9998 46.7614 25.7612 48.9999 22.9998 49C20.2384 49 17.9998 46.7614 17.9998 44C17.9998 43.4477 18.4476 43 18.9998 43C19.5521 43.0001 19.9998 43.4478 19.9998 44C19.9998 45.3058 20.8352 46.413 21.9998 46.8252V40.7295C21.4027 40.3835 20.9998 39.7398 20.9998 39C20.9998 37.8954 21.8953 37 22.9998 37Z" fill="#000667"/>
<path fill-rule="evenodd" clip-rule="evenodd" d="M23.9998 21C25.6566 21.0001 26.9998 22.3432 26.9998 24C26.9998 25.6568 25.6566 26.9999 23.9998 27C22.343 27 20.9998 25.6569 20.9998 24C20.9998 22.3431 22.343 21 23.9998 21ZM23.9998 23C23.4476 23 22.9998 23.4477 22.9998 24C22.9998 24.5523 23.4476 25 23.9998 25C24.5521 24.9999 24.9998 24.5522 24.9998 24C24.9998 23.4478 24.5521 23.0001 23.9998 23Z" fill="#000667"/>
<path fill-rule="evenodd" clip-rule="evenodd" d="M31.9998 21C33.6566 21.0001 34.9998 22.3432 34.9998 24C34.9998 25.6568 33.6566 26.9999 31.9998 27C30.343 27 28.9998 25.6569 28.9998 24C28.9998 22.3431 30.343 21 31.9998 21ZM31.9998 23C31.4476 23 30.9998 23.4477 30.9998 24C30.9998 24.5523 31.4476 25 31.9998 25C32.5521 24.9999 32.9998 24.5522 32.9998 24C32.9998 23.4478 32.5521 23.0001 31.9998 23Z" fill="#000667"/>
<path fill-rule="evenodd" clip-rule="evenodd" d="M39.9998 21C41.6566 21.0001 42.9998 22.3432 42.9998 24C42.9998 25.6568 41.6566 26.9999 39.9998 27C38.343 27 36.9998 25.6569 36.9998 24C36.9998 22.3431 38.343 21 39.9998 21ZM39.9998 23C39.4476 23 38.9998 23.4477 38.9998 24C38.9998 24.5523 39.4476 25 39.9998 25C40.5521 24.9999 40.9998 24.5522 40.9998 24C40.9998 23.4478 40.5521 23.0001 39.9998 23Z" fill="#000667"/>
<path fill-rule="evenodd" clip-rule="evenodd" d="M36.9998 6C37.5521 6.00009 37.9998 6.44777 37.9998 7V17H46.9998C47.5521 17.0001 47.9998 17.4478 47.9998 18V34.7129L52.3914 36.5801C52.8518 36.7762 53.0964 37.283 52.9637 37.7656L47.4637 57.7656C47.3442 58.1993 46.9497 58.4999 46.4998 58.5H17.4998C17.0499 58.5 16.6555 58.1994 16.536 57.7656L11.036 37.7656C10.9032 37.2829 11.1476 36.7761 11.6082 36.5801L15.9998 34.7129V18C15.9998 17.4477 16.4476 17 16.9998 17H25.9998V7C25.9998 6.44772 26.4476 6 26.9998 6H36.9998ZM13.1952 38.0771L18.2616 56.5H30.9998V30.5107L13.1952 38.0771ZM32.9998 56.5H45.7381L50.8036 38.0771L32.9998 30.5107V56.5ZM17.9998 33.8633L31.5936 28.0859C31.7177 28.0307 31.8553 28 31.9998 28L32.1024 28.0049C32.207 28.0155 32.3067 28.0426 32.3993 28.083L45.9998 33.8633V19H17.9998V33.8633ZM27.9998 17H35.9998V13H27.9998V17ZM27.9998 11H35.9998V8H27.9998V11Z" fill="#000667"/>
</svg>
